<?xml version="1.0" encoding="iso-8859-1"?>
<!-- Generator: Adobe Illustrator 19.0.0, SVG Export Plug-In . SVG Version: 6.00 Build 0)  -->
<svg version="1.1" id="Capa_1" xmlns="http://www.w3.org/2000/svg" xmlns:xlink="http://www.w3.org/1999/xlink" x="0px" y="0px"
	 viewBox="0 0 512.004 512.004" style="enable-background:new 0 0 512.004 512.004;" xml:space="preserve">
<g>
	<g transform="translate(1 1)">
		<path style="fill:#0377BC;" d="M438.471,84.337v384c0.002,9.053-3.593,17.737-9.995,24.138
			c-6.402,6.402-15.085,9.997-24.138,9.995h-256c-2.826,0.026-5.641-0.347-8.363-1.109c-15.163-3.772-25.797-17.399-25.771-33.024
			V230.854l180.65-180.651h109.483c9.053-0.002,17.737,3.593,24.139,9.995S438.473,75.284,438.471,84.337z"/>
		<path style="fill:#02A9F4;" d="M412.871,84.337v384c0.002,9.053-3.593,17.737-9.995,24.138
			c-6.402,6.402-15.085,9.997-24.138,9.995h-230.4c-2.826,0.026-5.641-0.347-8.363-1.109c-15.163-3.772-25.797-17.399-25.771-33.024
			V230.854l180.65-180.651h83.883c9.053-0.002,17.737,3.593,24.139,9.995S412.873,75.284,412.871,84.337z"/>
		<path style="fill:#4E342E;" d="M438.471,129.393v163.072c-8.394-1.987-16.976-3.074-25.6-3.243V119.409
			C422.08,120.64,430.859,124.064,438.471,129.393z"/>
		<path style="fill:#795548;" d="M412.871,119.409v169.813c-9.157-0.294-18.317,0.45-27.307,2.218
			c-15.411,2.803-29.74,9.834-41.387,20.31c-8.765,7.93-15.447,17.894-19.456,29.013c-4.096,12.032-6.741,24.32-16.469,33.536
			c-12.373,11.605-30.379,13.312-44.544,21.931c-15.59,10.453-27.173,25.886-32.854,43.776c-6.546,20.185-7.548,41.759-2.9,62.464
			h-79.617c-2.826,0.026-5.641-0.347-8.363-1.109c-15.163-3.772-25.797-17.399-25.771-33.024v-34.133
			c23.467-3.669,79.872-19.285,76.629-84.053c-2.475-51.371-25.6-60.075-19.883-89.856c9.375,2.164,18.965,3.252,28.587,3.243
			c50.491,0.028,96.275-29.644,116.872-75.742s12.153-100-21.555-137.591h58.283c2.987,19.2,14.165,68.267,47.957,68.267
			C405.04,118.43,408.981,118.744,412.871,119.409z"/>
		<path style="fill:#607D8B;" d="M327.537,135.537c-0.026,70.682-57.318,127.974-128,128c-4.191,0.033-8.381-0.195-12.544-0.683
			c-0.171,0-0.341,0.085-0.513,0c-65.292-6.688-114.943-61.683-114.943-127.317S121.188,14.907,186.481,8.22
			c0.171-0.085,0.341,0,0.513,0c4.163-0.487,8.353-0.715,12.544-0.683C270.219,7.563,327.512,64.855,327.537,135.537z"/>
		<path style="fill:#CFD8DC;" d="M301.937,135.537c-0.054,65.614-49.677,120.579-114.944,127.317c-0.171,0-0.341,0.085-0.513,0
			c-65.292-6.688-114.943-61.683-114.943-127.317S121.188,14.907,186.481,8.22c0.171-0.085,0.341,0,0.513,0
			C252.26,14.959,301.883,69.923,301.937,135.537z"/>
		<path style="fill:#02A9F4;" d="M196.039,101.574c-16.095,1.644-28.821,14.369-30.465,30.464l-0.94-0.085l-31.487-62.805
			l62.806,31.488L196.039,101.574z"/>
		<path style="fill:#E91E63;" d="M265.927,201.926l-62.806-31.488l-0.085-0.939c16.095-1.644,28.821-14.369,30.465-30.464
			l0.94,0.085L265.927,201.926z"/>
		<path style="fill:#607D8B;" d="M233.5,139.036c-1.645,15.865-14.059,28.474-29.896,30.365
			c-15.837,1.891-30.872-7.439-36.206-22.47c-5.335-15.031,0.454-31.752,13.94-40.268c13.486-8.515,31.072-6.554,42.35,4.725
			C230.969,118.647,234.576,128.81,233.5,139.036z"/>
	</g>
	<g>
		<path d="M149.288,511.999l0.04,0.005l0.004-0.001l0.004,0.001h256c23.553-0.028,42.639-19.114,42.667-42.667v-384
			c-0.028-23.553-19.114-42.639-42.667-42.667h-105.91C265.332,6.616,214.342-8.07,166.293,4.327s-85.57,49.918-97.966,97.967
			s2.289,99.039,38.344,133.134v233.91C106.699,492.869,125.756,511.946,149.288,511.999z M162.658,267.612
			c-0.112,11.613,2.667,23.071,8.087,33.342c7.629,15.829,11.907,33.062,12.567,50.621c2.468,49.243-32.671,66.915-59.575,73.256
			V249.334C135.659,257.453,148.797,263.622,162.658,267.612z M405.337,494.937H236.114c-2.86-17.134-1.543-34.705,3.84-51.221
			c5.051-15.987,15.344-29.805,29.217-39.221c5.501-3.077,11.286-5.615,17.275-7.579c10.528-3.097,20.3-8.342,28.7-15.404
			c8.277-8.771,14.08-19.58,16.817-31.325c0.608-1.887,1.208-3.775,1.842-5.633c3.581-9.786,9.487-18.556,17.208-25.554
			c10.482-9.404,23.379-15.699,37.242-18.175c14.096-2.668,28.56-2.745,42.683-0.228v168.741
			C430.922,483.469,419.469,494.922,405.337,494.937z M430.937,85.337v31.012c-9.177-3.64-18.969-5.477-28.842-5.412
			c-23.106,0-33.515-32.061-37.675-51.2h40.916C419.469,59.752,430.922,71.205,430.937,85.337z M346.99,59.737
			c4.886,25.033,18.601,68.267,55.105,68.267c10.089-0.212,20.049,2.288,28.842,7.239v48.412c-0.936,0.744-2.001,1.584-3.333,2.615
			c-1.792,1.383-2.96,3.422-3.248,5.668c-0.288,2.245,0.329,4.513,1.715,6.303c1.232,1.504,2.956,2.525,4.867,2.883v82.159
			c-15.269-2.371-30.831-2.101-46.008,0.799c-16.979,3.091-32.758,10.862-45.558,22.437c-9.769,8.909-17.22,20.064-21.708,32.5
			c-0.675,1.979-1.317,3.971-1.95,5.958c-1.959,8.955-6.186,17.257-12.275,24.109c-6.766,5.409-14.539,9.421-22.867,11.804
			c-7.052,2.337-13.854,5.367-20.309,9.045c-17.323,11.448-30.195,28.493-36.466,48.287c-6.005,18.269-7.684,37.684-4.904,56.713
			h-57.156c-0.284-2.685-1.843-5.069-4.19-6.404c-1.98-1.097-4.315-1.361-6.49-0.733c-2.175,0.628-4.01,2.095-5.101,4.079
			c-0.532,0.963-0.981,1.78-1.417,2.573c-12.055-2.308-20.778-12.841-20.8-25.115v-27.081c25.69-5.538,79.947-25.12,76.625-91.519
			c-0.755-19.626-5.51-38.89-13.975-56.612c-3.762-7.082-6.07-14.844-6.788-22.831c53.723,8.43,107.318-15.872,136.376-61.838
			c29.057-45.966,28.019-104.805-2.642-149.718H346.99z M81.071,136.537c0-65.98,53.487-119.467,119.467-119.467
			s119.467,53.487,119.467,119.467s-53.487,119.467-119.467,119.467C134.588,255.93,81.144,202.486,81.071,136.537z"/>
		<path d="M157.908,136.666c0.037,23.497,19.091,42.527,42.588,42.533l62.6,31.342c3.286,1.644,7.254,1,9.852-1.598
			c2.598-2.598,3.241-6.566,1.598-9.852l-31.379-62.683c-0.037-23.497-19.091-42.527-42.588-42.533l-62.6-31.342
			c-3.286-1.644-7.254-1-9.852,1.598c-2.598,2.598-3.241,6.566-1.598,9.852L157.908,136.666z M224.253,172.011
			c2.317-1.555,4.478-3.331,6.451-5.304c1.973-1.983,3.746-4.155,5.294-6.486l11.806,23.578L224.253,172.011z M218.637,154.641
			c-10.131,9.667-26.069,9.667-36.2,0c-7.323-7.321-9.514-18.333-5.552-27.899s13.297-15.805,23.652-15.805
			s19.69,6.238,23.652,15.805C228.151,136.308,225.96,147.32,218.637,154.641z M176.822,101.062
			c-2.317,1.555-4.478,3.331-6.451,5.304c-1.973,1.983-3.746,4.155-5.294,6.486L153.27,89.274L176.822,101.062z"/>
		<path d="M224.654,366.625c-3.242,4.087-6.617,8.563-10.05,13.321c-2.729,3.825-1.854,9.135,1.957,11.883
			c3.811,2.747,9.126,1.898,11.892-1.899c3.267-4.533,6.475-8.8,9.567-12.688c2.932-3.691,2.316-9.06-1.375-11.992
			S227.585,362.933,224.654,366.625L224.654,366.625z"/>
		<path d="M291.179,284.587c-3.992-2.5-9.253-1.3-11.767,2.683c-2.942,4.679-5.75,9.492-8.508,14.354
			c-2.324,4.101-0.884,9.309,3.217,11.633c4.101,2.324,9.309,0.884,11.633-3.217c2.625-4.629,5.3-9.225,8.108-13.687
			C296.37,292.364,295.169,287.095,291.179,284.587z"/>
		<path d="M266.571,326.825c-3.991-2.507-9.258-1.31-11.775,2.675c-3.05,4.846-5.925,9.008-8.783,12.725
			c-2.876,3.733-2.183,9.09,1.55,11.967c3.733,2.876,9.09,2.183,11.967-1.55c3.2-4.146,6.375-8.742,9.717-14.05
			C271.753,334.603,270.556,329.337,266.571,326.825z"/>
		<path d="M207.837,404.729c-3.963-2.547-9.241-1.402-11.792,2.558c-2.95,4.579-5.883,9.225-8.783,13.875
			c-1.622,2.587-1.737,5.844-0.303,8.54c1.435,2.696,4.201,4.419,7.253,4.519c3.052,0.1,5.925-1.439,7.533-4.035
			c2.85-4.575,5.75-9.154,8.65-13.667c1.225-1.903,1.644-4.214,1.165-6.426C211.08,407.883,209.741,405.953,207.837,404.729z"/>
		<path d="M181.962,446.2c-1.949-1.152-4.278-1.481-6.47-0.913c-2.192,0.568-4.068,1.985-5.214,3.938
			c-2.9,4.917-5.658,9.662-8.25,14.146c-2.356,4.082-0.957,9.302,3.125,11.658c4.082,2.356,9.302,0.957,11.658-3.125
			c2.558-4.442,5.3-9.146,8.166-14.021C187.371,453.823,186.02,448.594,181.962,446.2z"/>
		<path d="M314.621,248.887c-4.999,3.277-9.67,7.027-13.95,11.2c-3.369,3.288-3.44,8.683-0.159,12.059
			c3.282,3.376,8.677,3.457,12.059,0.183c3.484-3.408,7.29-6.47,11.366-9.142c3.949-2.573,5.064-7.86,2.492-11.808
			C323.856,247.43,318.569,246.314,314.621,248.887L314.621,248.887z"/>
		<path d="M349.021,251.583c1.1-0.001,2.189-0.215,3.209-0.629c5.183-2.104,10.325-4.413,15.383-6.854
			c2.757-1.317,4.6-4.009,4.829-7.057c0.23-3.047-1.188-5.985-3.717-7.701c-2.529-1.716-5.782-1.948-8.529-0.609
			c-4.725,2.283-9.533,4.442-14.383,6.404c-3.783,1.537-5.948,5.536-5.166,9.544S344.938,251.581,349.021,251.583L349.021,251.583z"
			/>
		<path d="M392.479,229.308c1.561,0,3.092-0.429,4.425-1.242c4.942-3.004,9.633-6.004,14.025-8.904
			c3.933-2.596,5.017-7.888,2.421-11.821s-7.888-5.017-11.821-2.421c-4.225,2.792-8.75,5.675-13.492,8.563
			c-3.272,1.988-4.82,5.912-3.785,9.598C385.287,226.767,388.65,229.313,392.479,229.308z"/>
	</g>
</g>
<g>
</g>
<g>
</g>
<g>
</g>
<g>
</g>
<g>
</g>
<g>
</g>
<g>
</g>
<g>
</g>
<g>
</g>
<g>
</g>
<g>
</g>
<g>
</g>
<g>
</g>
<g>
</g>
<g>
</g>
</svg>
