<svg id="_x33_0" enable-background="new 0 0 64 64" height="512" viewBox="0 0 64 64" width="512" xmlns="http://www.w3.org/2000/svg"><g><g><g><path d="m4 50.17v-6.46c0-1.64 1-3.11 2.51-3.72l2.49-.99 3-11h16v20 8h-4v-1-11-4-7c0-.55-.45-1-1-1h-7.22c-.46 0-.86.31-.97.76l-1.81 7.24v6.22c-1.68.39-3.19 1.24-4.36 2.42-.42.41-.79.87-1.12 1.36h-2.52c-.35 0-.69.06-1 .18z" fill="#fcd770"/></g><g><path d="m24 44v11c0-4.97-4.03-9-9-9-.69 0-1.36.08-2 .22v-6.22h11z" fill="#ffeaa7"/></g><g><path d="m34 34-6-6v20c0-1.1.9-2 2-2h8c1.1 0 2 .9 2 2v2h5.52c.33-.49.7-.95 1.12-1.36 1.62-1.63 3.88-2.64 6.36-2.64 2.36 0 4.52.91 6.12 2.4l2.88-14.4z" fill="#ffeaa7"/></g><g><path d="m30 46h8c1.1 0 2 .9 2 2v2 6h-12v-8c0-1.1.9-2 2-2z" fill="#ccd1d9"/></g><g><path d="m62 32v2h-8-4-4-4-4-4l-6-6h-16v-2c0-1.1.9-2 2-2h16l3 3 3 3h23 1c1.1 0 2 .9 2 2z" fill="#fcd770"/></g><g><path d="m24 33v7h-11l1.81-7.24c.11-.45.51-.76.97-.76h7.22c.55 0 1 .45 1 1z" fill="#69d6f4"/></g><g><path d="m5 50h2.52c-.96 1.43-1.52 3.15-1.52 5v1h-3c-.55 0-1-.45-1-1v-2c0-1.31.83-2.42 2-2.82.31-.12.65-.18 1-.18z" fill="#aab2bd"/></g><g><path d="m40 50h5.52c-.96 1.43-1.52 3.15-1.52 5v1h-4z" fill="#aab2bd"/></g><g><path d="m15 50c3.31 0 6 2.69 6 6s-2.69 6-6 6-6-2.69-6-6 2.69-6 6-6z" fill="#838f9b"/></g><g><path d="m53 50c3.31 0 6 2.69 6 6s-2.69 6-6 6-6-2.69-6-6 2.69-6 6-6z" fill="#838f9b"/></g><g><circle cx="53" cy="56" fill="#ccd1d9" r="2"/></g><g><circle cx="15" cy="56" fill="#ccd1d9" r="2"/></g><g><path d="m24 55v1h-3c0-3.31-2.69-6-6-6s-6 2.69-6 6h-3v-1c0-1.85.56-3.57 1.52-5 .33-.49.7-.95 1.12-1.36 1.17-1.18 2.68-2.03 4.36-2.42.64-.14 1.31-.22 2-.22 4.97 0 9 4.03 9 9z" fill="#ccd1d9"/></g><g><path d="m62 55v1h-3c0-3.31-2.69-6-6-6s-6 2.69-6 6h-3v-1c0-1.85.56-3.57 1.52-5 .33-.49.7-.95 1.12-1.36 1.62-1.63 3.88-2.64 6.36-2.64 2.36 0 4.52.91 6.12 2.4 1.77 1.65 2.88 3.99 2.88 6.6z" fill="#ccd1d9"/></g><g><path d="m50 34h4v8h-4z" fill="#ff826e"/></g><g><path d="m42 34h4v8h-4z" fill="#ff826e"/></g><g><path d="m34 34h4v8h-4z" fill="#ff826e"/></g><g><path d="m59 30h-23l-3-3 .43-1.74c.35-1.39 1.44-2.48 2.83-2.83h.01c1.1-.27 2.02-1.01 2.53-2.03.36-.74.92-1.34 1.6-1.75.67-.42 1.46-.65 2.28-.65h2.39c.61 0 1.2.18 1.71.52l1.54 1.03c.45.29.81.7 1.05 1.18.4.81 1.13 1.4 2.01 1.61l1.02.26c1 .25 1.8.99 2.12 1.96l.31.92c.1.32.37.57.7.65l1.2.3c1.33.34 2.27 1.54 2.27 2.91z" fill="#cf9e76"/></g></g><g><path d="m15 53c-1.654 0-3 1.346-3 3s1.346 3 3 3 3-1.346 3-3-1.346-3-3-3zm0 4c-.552 0-1-.449-1-1s.448-1 1-1 1 .449 1 1-.448 1-1 1z"/><path d="m53 53c-1.654 0-3 1.346-3 3s1.346 3 3 3 3-1.346 3-3-1.346-3-3-3zm0 4c-.552 0-1-.449-1-1s.448-1 1-1 1 .449 1 1-.448 1-1 1z"/><path d="m62.98 34.196.02-2.196c0-1.654-1.346-3-3-3h-.029c-.145-1.691-1.33-3.121-3.001-3.538l-1.195-.299-.305-.916c-.436-1.305-1.491-2.283-2.825-2.616l-1.027-.257c-.59-.147-1.084-.544-1.356-1.089-.318-.635-.798-1.178-1.387-1.57l-1.543-1.028c-.673-.45-1.456-.687-2.266-.687h-2.384c-2.036 0-3.866 1.132-4.777 2.954-.377.754-1.063 1.305-1.883 1.51-1.756.438-3.12 1.802-3.559 3.558l-.006.022-2.043-2.044h-16.414c-1.654 0-3 1.346-3 3v1.866l-2.834 10.39-2.022.809c-1.911.765-3.144 2.587-3.144 4.643v5.848c-1.19.694-2 1.97-2 3.444v2c0 1.103.897 2 2 2h5.08c.224 1.557.956 2.949 2.031 4h-9.111v2h28v-2h-9.111c1.074-1.051 1.806-2.443 2.031-4h24.16c.224 1.557.956 2.949 2.031 4h-11.111v2h26v-2h-5.111c1.074-1.051 1.806-2.443 2.031-4h3.08v-2c0-2.684-1.069-5.12-2.796-6.918zm-4.525 12.434c-1.571-1.027-3.443-1.63-5.455-1.63-3.261 0-6.154 1.577-7.981 4h-4.019v-1c0-1.654-1.346-3-3-3h-8c-.352 0-.686.072-1 .184v-14.77l4 4v8.586h6v-8h2v8h6v-8h2v8h6v-8h5.78zm-19.455 8.37h-10v-7c0-.551.448-1 1-1h8c.552 0 1 .449 1 1zm2-4h2.841c-.538 1.226-.841 2.578-.841 4h-2zm-6-16h2v6h-2zm8 0h2v6h-2zm8 0h2v6h-2zm-16.597-9.493c.26-1.038 1.065-1.843 2.106-2.103 1.386-.347 2.547-1.278 3.185-2.556.57-1.14 1.715-1.848 2.989-1.848h2.384c.413 0 .813.121 1.155.35l1.543 1.028c.301.2.545.478.707.801.534 1.067 1.504 1.845 2.661 2.135l1.027.257c.666.167 1.194.655 1.412 1.308l.306.917c.217.651.745 1.14 1.412 1.308l1.195.299c.779.194 1.352.828 1.485 1.598h-21.556l-2.307-2.307zm-21.403.493c0-.551.448-1 1-1h15.586l6 6h24.414c.552 0 1 .449 1 1v1h-26.586l-6-6h-15.414zm-10 27c0-1.103.897-2 2-2h.841c-.538 1.226-.841 2.578-.841 4h-2zm12-6c4.411 0 8 3.589 8 8h-1.08c-.488-3.387-3.401-6-6.92-6s-6.432 2.613-6.92 6h-1.08c0-4.411 3.589-8 8-8zm8-8h-8.719l1.5-6h7.219zm-9 2h9v2h-2v2h2v4.026c-1.825-2.438-4.727-4.026-8-4.026-.338 0-.671.018-1 .051zm1 20c-2.757 0-5-2.243-5-5s2.243-5 5-5 5 2.243 5 5-2.243 5-5 5zm8-30h-7.219c-.92 0-1.718.623-1.94 1.515l-1.811 7.243-.027 5.703c-2.011.632-3.742 1.891-4.984 3.539h-2.019v-5.292c0-1.234.74-2.327 1.886-2.785l2.948-1.179 2.93-10.744h14.236v26h-2v-22c0-1.103-.897-2-2-2zm30 30c-2.757 0-5-2.243-5-5s2.243-5 5-5 5 2.243 5 5-2.243 5-5 5zm6.92-6c-.488-3.387-3.401-6-6.92-6s-6.432 2.613-6.92 6h-1.08c0-4.411 3.589-8 8-8s8 3.589 8 8z"/><path d="m35 49h2v4h-2z"/><path d="m31 49h2v4h-2z"/><path d="m38 25h2v2h-2z"/><path d="m42 21h2v2h-2z"/><path d="m44 25h2v2h-2z"/><path d="m50 25h2v2h-2z"/><path d="m31 61h4v2h-4z"/></g></g></svg>