<svg height="512pt" viewBox="0 0 512 512" width="512pt" xmlns="http://www.w3.org/2000/svg"><path d="m512 256c0 141.386719-114.613281 256-256 256s-256-114.613281-256-256 114.613281-256 256-256 256 114.613281 256 256zm0 0" fill="#ff633e"/><path d="m291.167969 509.585938c105.867187-14.550782 191.089843-93.808594 214.457031-196.597657l-114.296875-114.292969-19.40625 19.417969-9.824219-10.058593-114.773437-94.6875-58.785157 75.621093 15.738282 15.753907v2.914062l-90.910156 60.535156 38.417968 38-16.597656 47.414063zm0 0" fill="#e70020"/><path d="m398.632812 398.632812h-194.976562c-23.367188 0-42.375-19.007812-42.375-42.371093v-6.65625h16.714844v6.65625c0 14.148437 11.511718 25.660156 25.660156 25.660156h194.976562zm0 0" fill="#3c3a41"/><path d="m113.367188 218.808594h36.773437v49.382812h-36.773437zm0 0" fill="#c8c6cd"/><path d="m113.367188 243.351562h36.773437v24.839844h-36.773437zm0 0" fill="#aeadb3"/><path d="m313.949219 235.140625h30.617187v16.714844h-30.617187zm0 0" fill="#57555c"/><path d="m313.949219 243.351562h30.617187v8.503907h-30.617187zm0 0" fill="#3c3a41"/><path d="m246.925781 316.328125h-45.414062v-16.714844h33.464843l10.160157-29.703125 15.816406 5.410156zm0 0" fill="#57555c"/><path d="m167.132812 262.339844-31.945312 91.261718h59.386719l31.945312-91.261718zm0 0" fill="#aeadb3"/><path d="m204.277344 186.300781h16.714844v27.796875h-16.714844zm0 0" fill="#8b8992"/><path d="m144.527344 207.65625h177.78125v71.398438h-177.78125zm0 0" fill="#ffaa20"/><g fill="#60dd4e"><path d="m352.734375 235h15.207031v16.714844h-15.207031zm0 0"/><path d="m374.230469 235h24.402343v16.714844h-24.402343zm0 0"/><path d="m347.636719 212.683594 14.480469-4.636719 5.101562 15.917969-14.484375 4.640625zm0 0"/><path d="m368.066406 206.132812 23.242188-7.441406 5.097656 15.917969-23.242188 7.441406zm0 0"/></g><path d="m347.628906 274.007812 5.097656-15.921874 14.484376 4.640624-5.097657 15.917969zm0 0" fill="#00c800"/><path d="m368.109375 280.570312 5.097656-15.917968 23.246094 7.441406-5.097656 15.921875zm0 0" fill="#00c800"/><path d="m177.945312 113.367188v50.828124c0 18.96875 15.4375 34.40625 34.40625 34.40625h.566407c18.96875 0 34.402343-15.4375 34.402343-34.40625v-50.828124zm0 0" fill="#e1e4fb"/><path d="m177.945312 142.339844v21.855468c0 18.96875 15.4375 34.40625 34.40625 34.40625h.566407c18.96875 0 34.402343-15.4375 34.402343-34.40625v-21.855468zm0 0" fill="#60dd4e"/><path d="m144.527344 243.351562h177.78125v35.703126h-177.78125zm0 0" fill="#ff8900"/><path d="m352.734375 243.351562h15.207031v8.363282h-15.207031zm0 0" fill="#00c800"/><path d="m374.230469 243.351562h24.402343v8.363282h-24.402343zm0 0" fill="#00c800"/><path d="m275.945312 207.65625h16.714844v71.398438h-16.714844zm0 0" fill="#ffc473"/><path d="m275.945312 243.351562h16.714844v35.703126h-16.714844zm0 0" fill="#ffaa20"/></svg>