<svg viewBox="0 0 512 512" xmlns="http://www.w3.org/2000/svg"><circle cx="256" cy="256" fill="#cc3e59" r="256"/><path d="m374.13 206.78a81.89 81.89 0 0 0 -65.63-32.78h-176.09a10.93 10.93 0 0 0 -10.94 10.94v125.75a10.93 10.93 0 0 0 10.94 10.93h247.18a10.93 10.93 0 0 0 10.94-10.93v-38.28z" fill="#ffb531"/><path d="m390.53 256v16.41h-49.22v-65.63h32.82a81.65 81.65 0 0 1 16.4 49.22z" fill="#4db7e5"/><path d="m354.44 321.62a16.41 16.41 0 1 1 -16.44-16.4 16.41 16.41 0 0 1 16.44 16.4z" fill="#7c8388"/><path d="m256 239.59h49.22v82h-49.22z" fill="#deecf1"/><path d="m256 206.78h49.22v32.81h-49.22z" fill="#ccccca" stroke="#000" stroke-miterlimit="10" stroke-width="10"/><path d="m225.38 321.62a16.41 16.41 0 1 1 -16.38-16.4 16.41 16.41 0 0 1 16.38 16.4z" fill="#7c8388"/><path d="m176.16 321.62a16.41 16.41 0 1 1 -16.41-16.4 16.41 16.41 0 0 1 16.41 16.4z" fill="#7c8388"/><path d="m121.47 206.78v65.63h98.44v-65.63z" fill="#4db7e5"/><path d="m209.52 168.5h-77.11a16.43 16.43 0 0 0 -16.41 16.41v125.78a16.42 16.42 0 0 0 16.41 16.4h6.16a21.87 21.87 0 0 0 42.36 0h6.86a21.87 21.87 0 0 0 42.36 0h86.7a21.87 21.87 0 0 0 42.36 0h20.38a16.42 16.42 0 0 0 16.41-16.4v-54.69a87.51 87.51 0 0 0 -87.5-87.5h-99zm49.21 10.94h49.77a75.82 75.82 0 0 1 53.6 21.87h-20.79a5.47 5.47 0 0 0 -5.47 5.47v65.63a5.47 5.47 0 0 0 5.47 5.47h43.75v32.81a5.48 5.48 0 0 1 -5.47 5.47h-20.38a21.87 21.87 0 0 0 -42.36 0h-6.16v-109.38a5.47 5.47 0 0 0 -5.47-5.47h-49.22a5.47 5.47 0 0 0 -5.47 5.47v109.38h-20.38a21.87 21.87 0 0 0 -42.36 0h-6.86a21.87 21.87 0 0 0 -42.36 0h-6.16a5.48 5.48 0 0 1 -5.47-5.47v-32.81h93a5.47 5.47 0 0 0 5.47-5.47v-65.63a5.47 5.47 0 0 0 -5.47-5.47h-93v-16.4a5.47 5.47 0 0 1 5.47-5.47zm-44.29 87.5h-38.28v-54.69h38.28zm-49.22-54.69v54.69h-38.28v-54.69zm134.53 0v21.87h-38.28v-21.87zm-140 120.31a10.94 10.94 0 1 1 10.94-10.94 10.95 10.95 0 0 1 -10.94 10.94zm49.22 0a10.94 10.94 0 1 1 10.94-10.94 10.95 10.95 0 0 1 -10.91 10.94zm52.5-87.5h38.28v71.1h-38.28zm76.53 87.5a10.94 10.94 0 1 1 11-10.94 10.95 10.95 0 0 1 -11 10.94zm47-65.62h-38.22v-54.69h24.55a75.83 75.83 0 0 1 13.73 43.75z"/></svg>