<svg viewBox="0 0 512 512" xmlns="http://www.w3.org/2000/svg" xmlns:xlink="http://www.w3.org/1999/xlink"><linearGradient id="a" gradientUnits="userSpaceOnUse" x1="98" x2="368" y1="256" y2="256"><stop offset="0" stop-color="#fff"/><stop offset=".15" stop-color="#b6b5b6"/><stop offset=".85" stop-color="#9c9a9b"/><stop offset="1"/></linearGradient><linearGradient id="b" gradientUnits="userSpaceOnUse" x1="198" x2="268" y1="255.27" y2="255.27"><stop offset="0" stop-color="#598eca"/><stop offset="1" stop-color="#3468b1"/></linearGradient><g opacity=".5"><path d="m256 509a253 253 0 0 1 -178.9-431.9 253 253 0 0 1 357.8 357.8 251.37 251.37 0 0 1 -178.9 74.1z" fill="#eee"/><path d="m256 6a250.07 250.07 0 0 1 97.31 480.36 250.07 250.07 0 0 1 -194.62-460.72 248.53 248.53 0 0 1 97.31-19.64m0-6c-141.38 0-256 114.62-256 256s114.62 256 256 256 256-114.62 256-256-114.62-256-256-256z" fill="#ccc"/></g><path d="m368 182.39v147.22a61.58 61.58 0 0 1 -61.39 61.39h-147.22a61.58 61.58 0 0 1 -61.39-61.39v-147.22a61.58 61.58 0 0 1 61.39-61.39h147.22a61.58 61.58 0 0 1 61.39 61.39z" fill="#fff"/><path d="m306.61 121h-147.22a61.58 61.58 0 0 0 -61.39 61.39v147.22a61.58 61.58 0 0 0 61.39 61.39h147.22a61.58 61.58 0 0 0 61.39-61.39v-147.22a61.58 61.58 0 0 0 -61.39-61.39zm56.39 205.88a59.29 59.29 0 0 1 -59.12 59.12h-141.76a59.29 59.29 0 0 1 -59.12-59.12v-141.76a59.29 59.29 0 0 1 59.12-59.12h141.76a59.29 59.29 0 0 1 59.12 59.12z" fill="url(#a)" opacity=".1"/><path d="m306.61 123a59.45 59.45 0 0 1 59.39 59.39v147.22a59.45 59.45 0 0 1 -59.39 59.39h-147.22a59.45 59.45 0 0 1 -59.39-59.39v-147.22a59.45 59.45 0 0 1 59.39-59.39zm0-2h-147.22a61.58 61.58 0 0 0 -61.39 61.39v147.22a61.58 61.58 0 0 0 61.39 61.39h147.22a61.58 61.58 0 0 0 61.39-61.39v-147.22a61.58 61.58 0 0 0 -61.39-61.39z" opacity=".1"/><path d="m233 227.26a28 28 0 1 1 -28 28 28 28 0 0 1 28-28m0-7a35 35 0 1 0 35 35 35 35 0 0 0 -35-35z" fill="url(#b)"/><path d="m236.41 181.69v14.71a2.58 2.58 0 0 1 -2.65 2.64h-1.52a2.58 2.58 0 0 1 -2.65-2.64v-14.71a2.59 2.59 0 0 1 2.65-2.65h1.9a3.26 3.26 0 0 1 2.27 2.65z" opacity=".3"/><path d="m311.42 180.44h167.3a33.28 33.28 0 0 1 33.28 33.29v84.54a33.28 33.28 0 0 1 -33.28 33.28h-168.3a33.28 33.28 0 0 1 -33.28-33.28v-83.54a34.28 34.28 0 0 1 34.28-34.29z" fill="#ffb530"/><path d="m339.58 295.1v-78.2h28.09q15.09 0 23 5.53t7.87 16.06a18.64 18.64 0 0 1 -2.79 10.37 16.34 16.34 0 0 1 -8.22 6.34 16.48 16.48 0 0 1 9.4 6 17.53 17.53 0 0 1 3.24 10.8q0 11.51-7.28 17.27t-21.57 5.88zm18.85-45.6h9.83c4.12 0 7.06-.79 8.81-2.26s2.63-3.65 2.63-6.52q0-5-2.84-7.14t-9.19-2.18h-9.24zm0 12.36v18.74h12.36q5.1 0 7.84-2.34a8.15 8.15 0 0 0 2.74-6.58q0-9.76-9.72-9.82z"/><path d="m463.76 226.57-29.22 68.53h-19.12l29.27-64.24h-37.27v-14h56.34z"/></svg>