<svg viewBox="0 0 512 512" xmlns="http://www.w3.org/2000/svg" xmlns:xlink="http://www.w3.org/1999/xlink"><linearGradient id="a" gradientUnits="userSpaceOnUse" x1="98" x2="368" y1="256" y2="256"><stop offset="0" stop-color="#fff"/><stop offset=".15" stop-color="#b6b5b6"/><stop offset=".85" stop-color="#9c9a9b"/><stop offset="1"/></linearGradient><linearGradient id="b" gradientUnits="userSpaceOnUse" x1="198" x2="268" y1="255.27" y2="255.27"><stop offset="0" stop-color="#598eca"/><stop offset="1" stop-color="#3468b1"/></linearGradient><circle cx="256" cy="256" fill="#0295b7" r="256"/><path d="m368 182.39v147.22a61.58 61.58 0 0 1 -61.39 61.39h-147.22a61.58 61.58 0 0 1 -61.39-61.39v-147.22a61.58 61.58 0 0 1 61.39-61.39h147.22a61.58 61.58 0 0 1 61.39 61.39z" fill="#fff"/><path d="m306.61 121h-147.22a61.58 61.58 0 0 0 -61.39 61.39v147.22a61.58 61.58 0 0 0 61.39 61.39h147.22a61.58 61.58 0 0 0 61.39-61.39v-147.22a61.58 61.58 0 0 0 -61.39-61.39zm56.39 205.88a59.29 59.29 0 0 1 -59.12 59.12h-141.76a59.29 59.29 0 0 1 -59.12-59.12v-141.76a59.29 59.29 0 0 1 59.12-59.12h141.76a59.29 59.29 0 0 1 59.12 59.12z" fill="url(#a)" opacity=".1"/><path d="m306.61 123a59.45 59.45 0 0 1 59.39 59.39v147.22a59.45 59.45 0 0 1 -59.39 59.39h-147.22a59.45 59.45 0 0 1 -59.39-59.39v-147.22a59.45 59.45 0 0 1 59.39-59.39zm0-2h-147.22a61.58 61.58 0 0 0 -61.39 61.39v147.22a61.58 61.58 0 0 0 61.39 61.39h147.22a61.58 61.58 0 0 0 61.39-61.39v-147.22a61.58 61.58 0 0 0 -61.39-61.39z" opacity=".1"/><path d="m233 227.26a28 28 0 1 1 -28 28 28 28 0 0 1 28-28m0-7a35 35 0 1 0 35 35 35 35 0 0 0 -35-35z" fill="url(#b)"/><path d="m236.41 181.69v14.71a2.58 2.58 0 0 1 -2.65 2.64h-1.52a2.58 2.58 0 0 1 -2.65-2.64v-14.71a2.59 2.59 0 0 1 2.65-2.65h1.9a3.26 3.26 0 0 1 2.27 2.65z" opacity=".3"/><path d="m311.42 180.44h167.3a33.28 33.28 0 0 1 33.28 33.29v84.54a33.28 33.28 0 0 1 -33.28 33.28h-168.3a33.28 33.28 0 0 1 -33.28-33.28v-83.54a34.28 34.28 0 0 1 34.28-34.29z" fill="#ffb530"/><path d="m339.58 295.1v-78.2h28.09q15.09 0 23 5.53t7.87 16.06a18.64 18.64 0 0 1 -2.79 10.37 16.34 16.34 0 0 1 -8.22 6.34 16.48 16.48 0 0 1 9.4 6 17.53 17.53 0 0 1 3.24 10.8q0 11.51-7.28 17.27t-21.57 5.88zm18.85-45.6h9.83c4.12 0 7.06-.79 8.81-2.26s2.63-3.65 2.63-6.52q0-5-2.84-7.14t-9.19-2.18h-9.24zm0 12.36v18.74h12.36q5.1 0 7.84-2.34a8.15 8.15 0 0 0 2.74-6.58q0-9.76-9.72-9.82z"/><path d="m453.13 215.77v14.23h-.81q-10.15 0-16.68 4.86a20.59 20.59 0 0 0 -8 13.51 21.18 21.18 0 0 1 15.47-6q10.16 0 16.17 7.41t6 19.44a27.42 27.42 0 0 1 -3.51 13.7 25.24 25.24 0 0 1 -9.83 9.75 28.3 28.3 0 0 1 -14 3.52 29.22 29.22 0 0 1 -14.88-3.79 26 26 0 0 1 -10.21-10.82 35.68 35.68 0 0 1 -3.76-16.22v-7.26a45.11 45.11 0 0 1 5.19-21.73 37.49 37.49 0 0 1 14.79-15.12 42.35 42.35 0 0 1 21.33-5.48zm-16.33 40.45a10.36 10.36 0 0 0 -6 1.66 10.61 10.61 0 0 0 -3.6 4.08v5.43q0 14.82 10.26 14.82a8.31 8.31 0 0 0 6.9-3.7 15.1 15.1 0 0 0 2.77-9.3 14.83 14.83 0 0 0 -2.82-9.37 9 9 0 0 0 -7.51-3.62z"/></svg>