<svg width="33" height="22" viewBox="0 0 33 22" fill="none" xmlns="http://www.w3.org/2000/svg">
<path d="M8.46245 20.2822C9.72026 20.2822 10.646 19.5596 10.8023 18.4619H9.9312C9.77495 19.1025 9.20854 19.5049 8.46245 19.5049C7.44683 19.5049 6.81401 18.6689 6.81401 17.3291C6.81401 15.9893 7.44683 15.1494 8.45854 15.1494C9.20073 15.1494 9.76714 15.5947 9.9312 16.2939H10.8023C10.6617 15.165 9.70073 14.3721 8.45854 14.3721C6.89214 14.3721 5.91948 15.5049 5.91948 17.3291C5.91948 19.1494 6.89604 20.2822 8.46245 20.2822ZM12.6248 20.2158C13.1834 20.2158 13.6482 19.9736 13.9021 19.5439H13.9685V20.1455H14.7771V17.2432C14.7771 16.3525 14.1755 15.8213 13.1091 15.8213C12.1443 15.8213 11.4568 16.2861 11.3709 17.001H12.1834C12.2771 16.6924 12.6013 16.5166 13.0701 16.5166C13.6443 16.5166 13.9412 16.7783 13.9412 17.2432V17.6143L12.7888 17.6846C11.7771 17.7471 11.2068 18.1885 11.2068 18.9502C11.2068 19.7236 11.8045 20.2158 12.6248 20.2158ZM12.8396 19.54C12.3826 19.54 12.0505 19.3096 12.0505 18.915C12.0505 18.5283 12.3162 18.3213 12.9021 18.2822L13.9412 18.2119V18.5791C13.9412 19.126 13.4724 19.54 12.8396 19.54ZM15.5644 20.1455H16.4043V17.54C16.4043 16.9854 16.791 16.5518 17.3027 16.5518C17.8027 16.5518 18.123 16.8525 18.123 17.3369V20.1455H18.9472V17.4619C18.9472 16.9502 19.3027 16.5518 19.8457 16.5518C20.3965 16.5518 20.6699 16.8369 20.6699 17.4229V20.1455H21.5097V17.2197C21.5097 16.3369 21.0097 15.8213 20.1504 15.8213C19.5605 15.8213 19.0722 16.1221 18.8574 16.5791H18.791C18.6035 16.1221 18.2011 15.8213 17.6191 15.8213C17.0527 15.8213 16.623 16.1025 16.4355 16.5791H16.373V15.9033H15.5644V20.1455ZM24.4885 15.8291C23.9103 15.8291 23.4103 16.1221 23.1525 16.6064H23.09V15.9033H22.2814V21.5596H23.1213V19.5049H23.1877C23.4103 19.9541 23.8908 20.2158 24.4963 20.2158C25.5705 20.2158 26.2541 19.3643 26.2541 18.0244C26.2541 16.6768 25.5705 15.8291 24.4885 15.8291ZM24.2502 19.4971C23.547 19.4971 23.1056 18.9307 23.1056 18.0244C23.1056 17.1143 23.547 16.5479 24.2541 16.5479C24.965 16.5479 25.3908 17.1025 25.3908 18.0244C25.3908 18.9463 24.965 19.4971 24.2502 19.4971Z" fill="#EF8009"/>
<g clip-path="url(#clip0)">
<path d="M20.9293 12.1465H17.8933C17.6798 12.1465 17.5 12.0715 17.3537 11.9214C17.2075 11.7713 17.1343 11.5935 17.1343 11.3881V8.35468C17.1343 8.14139 17.0592 7.96167 16.909 7.81553C16.7588 7.66938 16.5809 7.59631 16.3753 7.59631H14.8573C14.6439 7.59631 14.464 7.66938 14.3177 7.81553C14.1715 7.96167 14.0983 8.14139 14.0983 8.35468V11.3881C14.0983 11.5935 14.0232 11.7713 13.873 11.9214C13.7228 12.0715 13.5449 12.1465 13.3393 12.1465H10.2915C10.1096 12.1465 9.93965 12.0695 9.78153 11.9154C9.6234 11.7614 9.54434 11.5896 9.54434 11.4C9.54434 11.2578 9.57992 11.1274 9.65108 11.009L14.6913 3.94668L12.6871 1.1502C12.5764 0.968513 12.5487 0.776947 12.6041 0.575506C12.6594 0.374065 12.778 0.221997 12.9598 0.119302C13.1417 0.0166063 13.3334 -0.00906754 13.535 0.0422801C13.7366 0.0936278 13.8888 0.210147 13.9916 0.391839L15.6163 2.65509L17.2292 0.37999C17.332 0.206198 17.4861 0.0916529 17.6917 0.0363554C17.8973 -0.0189421 18.089 0.00475683 18.2669 0.107452C18.4448 0.210147 18.5614 0.362216 18.6167 0.563656C18.6721 0.765097 18.6484 0.956663 18.5456 1.13836L16.5414 3.94668L21.5816 11.0208C21.6527 11.1472 21.6883 11.2696 21.6883 11.3881C21.6883 11.5777 21.6112 11.7515 21.457 11.9095C21.3029 12.0675 21.127 12.1465 20.9293 12.1465Z" fill="#EF8009"/>
</g>
<defs>
<clipPath id="clip0">
<rect width="12.1457" height="12.1457" fill="white" transform="translate(9.54306)"/>
</clipPath>
</defs>
</svg>
