<?xml version="1.0"?>
<svg xmlns="http://www.w3.org/2000/svg" xmlns:xlink="http://www.w3.org/1999/xlink" xmlns:svgjs="http://svgjs.com/svgjs" version="1.1" width="512" height="512" x="0" y="0" viewBox="0 0 480.008 480.008" style="enable-background:new 0 0 512 512" xml:space="preserve" class=""><g>
<g xmlns="http://www.w3.org/2000/svg">
	<g>
		<path d="M475.328,452.708L338.496,315.876C366.816,282.404,384,239.204,384,192.004c0-105.888-86.112-192-192-192    S0,86.116,0,192.004s86.112,192,192,192c47.2,0,90.368-17.184,123.84-45.504l136.832,136.832    c3.136,3.104,7.232,4.672,11.328,4.672s8.192-1.568,11.328-4.672C481.568,469.092,481.568,458.948,475.328,452.708z M192,352.004    c-88.224,0-160-71.776-160-160s71.776-160,160-160s160,71.776,160,160S280.224,352.004,192,352.004z" fill="#9e9e9e" data-original="#000000" style=""/>
	</g>
</g>
<g xmlns="http://www.w3.org/2000/svg">
	<g>
		<path d="M192,64.004c-35.296,0-64,28.704-64,64c0,35.296,28.704,64,64,64s64-28.704,64-64S227.296,64.004,192,64.004z     M192,160.004c-17.664,0-32-14.368-32-32s14.336-32,32-32s32,14.368,32,32S209.664,160.004,192,160.004z" fill="#9e9e9e" data-original="#000000" style=""/>
	</g>
</g>
<g xmlns="http://www.w3.org/2000/svg">
	<g>
		<path d="M208,192.004h-16h-16c-44.128,0-80,35.904-80,80c0,8.832,7.168,16,16,16h160c8.832,0,16-7.168,16-16    C288,227.908,252.128,192.004,208,192.004z M130.752,256.004c6.592-18.624,24.384-32,45.248-32h32    c20.864,0,38.656,13.376,45.248,32H130.752z" fill="#9e9e9e" data-original="#000000" style=""/>
	</g>
</g>
<g xmlns="http://www.w3.org/2000/svg">
</g>
<g xmlns="http://www.w3.org/2000/svg">
</g>
<g xmlns="http://www.w3.org/2000/svg">
</g>
<g xmlns="http://www.w3.org/2000/svg">
</g>
<g xmlns="http://www.w3.org/2000/svg">
</g>
<g xmlns="http://www.w3.org/2000/svg">
</g>
<g xmlns="http://www.w3.org/2000/svg">
</g>
<g xmlns="http://www.w3.org/2000/svg">
</g>
<g xmlns="http://www.w3.org/2000/svg">
</g>
<g xmlns="http://www.w3.org/2000/svg">
</g>
<g xmlns="http://www.w3.org/2000/svg">
</g>
<g xmlns="http://www.w3.org/2000/svg">
</g>
<g xmlns="http://www.w3.org/2000/svg">
</g>
<g xmlns="http://www.w3.org/2000/svg">
</g>
<g xmlns="http://www.w3.org/2000/svg">
</g>
</g></svg>
