<svg width="75" height="75" viewBox="0 0 75 75" fill="none" xmlns="http://www.w3.org/2000/svg">
<path d="M44.5312 65.625H30.4688C29.2259 65.6238 28.0344 65.1295 27.1556 64.2507C26.2768 63.3719 25.7825 62.1803 25.7812 60.9375V49.2188H14.0625C12.8197 49.2175 11.6281 48.7233 10.7493 47.8444C9.8705 46.9656 9.37624 45.7741 9.375 44.5312V30.4688C9.37624 29.2259 9.8705 28.0344 10.7493 27.1556C11.6281 26.2768 12.8197 25.7825 14.0625 25.7812H25.7812V14.0625C25.7825 12.8197 26.2768 11.6281 27.1556 10.7493C28.0344 9.8705 29.2259 9.37624 30.4688 9.375H44.5312C45.7741 9.37624 46.9656 9.8705 47.8444 10.7493C48.7233 11.6281 49.2175 12.8197 49.2188 14.0625V25.7812H60.9375C62.1803 25.7825 63.3719 26.2768 64.2507 27.1556C65.1295 28.0344 65.6238 29.2259 65.625 30.4688V44.5312C65.6231 45.7739 65.1287 46.9651 64.25 47.8438C63.3713 48.7224 62.1801 49.2169 60.9375 49.2188H49.2188V60.9375C49.2169 62.1801 48.7224 63.3713 47.8438 64.25C46.9651 65.1287 45.7739 65.6231 44.5312 65.625ZM14.0625 30.4688V44.5312H30.4688V60.9375H44.5312V44.5312H60.9375V30.4688H44.5312V14.0625H30.4688V30.4688H14.0625Z" fill="white"/>
</svg>
