<svg width="109" height="109" viewBox="0 0 109 109" fill="none" xmlns="http://www.w3.org/2000/svg">
<path d="M66.6979 52.2853L28.9941 45.6431V94.7237C28.9946 95.2569 29.1001 95.7848 29.3045 96.2773C29.509 96.7697 29.8084 97.217 30.1858 97.5938C30.5631 97.9705 31.011 98.2692 31.5037 98.4728C31.9965 98.6764 32.5246 98.781 33.0578 98.7806H98.1172C98.651 98.7819 99.1797 98.678 99.6733 98.4748C100.167 98.2715 100.616 97.973 100.994 97.5962C101.372 97.2194 101.672 96.7717 101.877 96.2788C102.082 95.7859 102.187 95.2575 102.188 94.7237V76.6399L66.6979 52.2853Z" fill="#185C37"/>
<path d="M66.6979 10.2188H33.0578C32.5246 10.2183 31.9965 10.3229 31.5037 10.5265C31.011 10.7301 30.5631 11.0288 30.1858 11.4056C29.8084 11.7823 29.509 12.2296 29.3045 12.7221C29.1001 13.2145 28.9946 13.7424 28.9941 14.2756V32.3594L66.6979 54.5L86.662 61.1422L102.188 54.5V32.3594L66.6979 10.2188Z" fill="#21A366"/>
<path d="M28.9941 32.3594H66.6979V54.5H28.9941V32.3594Z" fill="#107C41"/>
<path opacity="0.1" d="M55.9785 27.9307H28.9941V83.2822H55.9785C57.0537 83.2769 58.0835 82.8481 58.8448 82.0887C59.6061 81.3293 60.0375 80.3006 60.0455 79.2254V31.9875C60.0375 30.9123 59.6061 29.8835 58.8448 29.1242C58.0835 28.3648 57.0537 27.936 55.9785 27.9307Z" fill="black"/>
<path opacity="0.2" d="M53.761 30.146H28.9941V85.4976H53.761C54.8362 85.4922 55.866 85.0634 56.6273 84.304C57.3886 83.5447 57.82 82.5159 57.828 81.4407V34.2028C57.82 33.1276 57.3886 32.0989 56.6273 31.3395C55.866 30.5802 54.8362 30.1513 53.761 30.146Z" fill="black"/>
<path opacity="0.2" d="M53.761 30.146H28.9941V81.0694H53.761C54.8362 81.0641 55.866 80.6353 56.6273 79.8759C57.3886 79.1166 57.82 78.0878 57.828 77.0126V34.2028C57.82 33.1276 57.3886 32.0989 56.6273 31.3395C55.866 30.5802 54.8362 30.1513 53.761 30.146Z" fill="black"/>
<path opacity="0.2" d="M51.5435 30.146H28.9941V81.0694H51.5435C52.6188 81.0641 53.6486 80.6353 54.4099 79.8759C55.1711 79.1166 55.6025 78.0878 55.6106 77.0126V34.2028C55.6025 33.1276 55.1711 32.0989 54.4099 31.3395C53.6486 30.5802 52.6188 30.1513 51.5435 30.146Z" fill="black"/>
<path d="M10.8796 30.146H51.5434C52.6205 30.1451 53.654 30.5719 54.4166 31.3326C55.1792 32.0933 55.6086 33.1257 55.6104 34.2028V74.7985C55.6086 75.8757 55.1792 76.9081 54.4166 77.6688C53.654 78.4295 52.6205 78.8563 51.5434 78.8554H10.8796C10.3461 78.8563 9.81764 78.752 9.32447 78.5486C8.83129 78.3452 8.38304 78.0465 8.00533 77.6698C7.62763 77.293 7.32787 76.8455 7.1232 76.3528C6.91852 75.8602 6.81295 75.332 6.8125 74.7985V34.2028C6.81295 33.6694 6.91852 33.1412 7.1232 32.6485C7.32787 32.1559 7.62763 31.7084 8.00533 31.3316C8.38304 30.9548 8.83129 30.6562 9.32447 30.4528C9.81764 30.2494 10.3461 30.1451 10.8796 30.146Z" fill="url(#paint0_linear)"/>
<path d="M19.4153 67.6924L27.9684 54.4626L20.134 41.3076H26.4253L30.7002 49.7313C31.0953 50.5283 31.3814 51.121 31.5109 51.5161H31.5688C31.8481 50.8758 32.1444 50.2592 32.4544 49.6563L37.0256 41.3212H42.8162L34.7809 54.4012L43.0206 67.7026H36.8587L31.9196 58.4683C31.6903 58.0713 31.4954 57.6553 31.3372 57.225H31.2554C31.1114 57.6443 30.9194 58.0455 30.6832 58.4206L25.5976 67.6924H19.4153Z" fill="white"/>
<path d="M98.1207 10.2188H66.698V32.3594H102.188V14.2756C102.187 13.7421 102.082 13.2139 101.877 12.7213C101.672 12.2286 101.373 11.7811 100.995 11.4044C100.617 11.0276 100.169 10.729 99.6758 10.5255C99.1826 10.3221 98.6541 10.2179 98.1207 10.2188Z" fill="#33C481"/>
<path d="M66.698 54.5H102.188V76.6406H66.698V54.5Z" fill="#107C41"/>
<defs>
<linearGradient id="paint0_linear" x1="15.3077" y1="26.9578" x2="47.1152" y2="82.0436" gradientUnits="userSpaceOnUse">
<stop stop-color="#18884F"/>
<stop offset="0.5" stop-color="#117E43"/>
<stop offset="1" stop-color="#0B6631"/>
</linearGradient>
</defs>
</svg>
