<svg width="31" height="22" viewBox="0 0 31 22" fill="none" xmlns="http://www.w3.org/2000/svg">
<path d="M6.93942 20.1455V15.2627H8.70896V14.5088H4.29099V15.2627H6.06442V20.1455H6.93942ZM12.34 15.9033H11.5002V18.3916C11.5002 19.0752 11.1291 19.4893 10.4494 19.4893C9.83221 19.4893 9.55486 19.1533 9.55486 18.4502V15.9033H8.71502V18.6572C8.71502 19.6533 9.23846 20.2275 10.1799 20.2275C10.8244 20.2275 11.258 19.9541 11.465 19.4736H11.5314V20.1455H12.34V15.9033ZM13.1508 20.1455H13.9906V17.6572C13.9906 16.9736 14.3851 16.5518 15.0062 16.5518C15.6273 16.5518 15.9242 16.8955 15.9242 17.5986V20.1455H16.764V17.3994C16.764 16.3877 16.2406 15.8213 15.2914 15.8213C14.6508 15.8213 14.2289 16.1064 14.0219 16.5752H13.9594V15.9033H13.1508V20.1455ZM17.5396 20.1455H18.3795V17.6572C18.3795 16.9736 18.774 16.5518 19.3951 16.5518C20.0162 16.5518 20.3131 16.8955 20.3131 17.5986V20.1455H21.1529V17.3994C21.1529 16.3877 20.6295 15.8213 19.6803 15.8213C19.0396 15.8213 18.6178 16.1064 18.4107 16.5752H18.3482V15.9033H17.5396V20.1455ZM24.7176 19.0088C24.5613 19.3525 24.2137 19.54 23.7059 19.54C23.034 19.54 22.6004 19.0557 22.573 18.2861V18.2471H25.577V17.958C25.577 16.6299 24.8621 15.8213 23.6785 15.8213C22.4793 15.8213 21.7176 16.6846 21.7176 18.0322C21.7176 19.3877 22.4637 20.2275 23.6824 20.2275C24.6551 20.2275 25.3426 19.7588 25.5262 19.0088H24.7176ZM23.6746 16.5049C24.2957 16.5049 24.702 16.9541 24.7215 17.6416H22.573C22.6199 16.958 23.0535 16.5049 23.6746 16.5049ZM26.2158 20.1455H27.0557V14.2393H26.2158V20.1455Z" fill="#D3D3D3"/>
<g clip-path="url(#clip0)">
<path d="M21.6437 7.59375C21.5066 7.59375 21.388 7.55618 21.2878 7.48103C21.1876 7.40588 21.1375 7.31689 21.1375 7.21406V4.55625C21.1375 3.86807 20.9107 3.23328 20.4572 2.65188C20.0037 2.07048 19.3894 1.60972 18.6142 1.26958C17.839 0.929443 16.9926 0.759375 16.075 0.759375C15.1574 0.759375 14.311 0.929443 13.5358 1.26958C12.7606 1.60972 12.1463 2.07048 11.6928 2.65188C11.2393 3.23328 11.0125 3.86807 11.0125 4.55625V7.21406C11.0125 7.31689 10.9624 7.40588 10.8622 7.48103C10.762 7.55618 10.6434 7.59375 10.5062 7.59375C10.3691 7.59375 10.2505 7.55618 10.1503 7.48103C10.0501 7.40588 10 7.31689 10 7.21406V4.55625C10 3.73359 10.2716 2.97224 10.8147 2.27219C11.3579 1.57214 12.0962 1.01843 13.0296 0.61106C13.963 0.203687 14.9781 0 16.075 0C17.1719 0 18.187 0.203687 19.1204 0.61106C20.0538 1.01843 20.7921 1.57214 21.3353 2.27219C21.8784 2.97224 22.15 3.73359 22.15 4.55625V7.21406C22.15 7.31689 22.0999 7.40588 21.9997 7.48103C21.8995 7.55618 21.7809 7.59375 21.6437 7.59375ZM12.5312 7.59375C12.3941 7.59375 12.2755 7.55618 12.1753 7.48103C12.0751 7.40588 12.025 7.31689 12.025 7.21406V4.55625C12.025 3.71777 12.4205 3.0019 13.2115 2.40864C14.0025 1.81538 14.957 1.51875 16.075 1.51875C17.193 1.51875 18.1475 1.81538 18.9385 2.40864C19.7295 3.0019 20.125 3.71777 20.125 4.55625V7.21406C20.125 7.31689 20.0749 7.40588 19.9747 7.48103C19.8745 7.55618 19.7559 7.59375 19.6187 7.59375H19.1125L20.6312 12.15H11.5187L13.0375 7.59375H12.5312ZM16.7395 9.1125H15.4105L15.2998 9.87187H16.8502L16.7395 9.1125ZM17.0875 11.3906L16.9609 10.6312H15.1891L15.0625 11.3906H17.0875ZM15.5213 8.35312H16.6287L16.5812 7.59375H15.5687L15.5213 8.35312Z" fill="#D3D3D3"/>
</g>
<defs>
<clipPath id="clip0">
<rect width="12.15" height="12.15" fill="white" transform="translate(10)"/>
</clipPath>
</defs>
</svg>
