<svg width="58" height="52" viewBox="0 0 58 52" fill="none" xmlns="http://www.w3.org/2000/svg">
<g clip-path="url(#clip0)">
<path d="M29.0005 11.6802L6.99576 31.2523C6.83263 31.4006 6.62419 31.4696 6.44496 31.5925V50.3755C6.44496 50.8065 6.6147 51.2198 6.91684 51.5246C7.21898 51.8293 7.62878 52.0005 8.05607 52.0005H49.945C50.3723 52.0005 50.7821 51.8293 51.0842 51.5246C51.3863 51.2198 51.5561 50.8065 51.5561 50.3755V31.5966C51.3849 31.4788 51.1815 31.4118 51.0264 31.2716L29.0005 11.6802ZM38.6672 38.188C38.6672 38.4035 38.5823 38.6102 38.4312 38.7625C38.2802 38.9149 38.0753 39.0005 37.8616 39.0005H32.2227V44.688C32.2227 44.9035 32.1379 45.1102 31.9868 45.2625C31.8357 45.4149 31.6308 45.5005 31.4172 45.5005H26.5838C26.3702 45.5005 26.1653 45.4149 26.0142 45.2625C25.8632 45.1102 25.7783 44.9035 25.7783 44.688V39.0005H20.1394C19.9258 39.0005 19.7209 38.9149 19.5698 38.7625C19.4187 38.6102 19.3338 38.4035 19.3338 38.188V33.313C19.3338 33.0975 19.4187 32.8909 19.5698 32.7385C19.7209 32.5861 19.9258 32.5005 20.1394 32.5005H25.7783V26.813C25.7783 26.5975 25.8632 26.3909 26.0142 26.2385C26.1653 26.0861 26.3702 26.0005 26.5838 26.0005H31.4172C31.6308 26.0005 31.8357 26.0861 31.9868 26.2385C32.1379 26.3909 32.2227 26.5975 32.2227 26.813V32.5005H37.8616C38.0753 32.5005 38.2802 32.5861 38.4312 32.7385C38.5823 32.8909 38.6672 33.0975 38.6672 33.313V38.188ZM57.4658 23.9977L31.6941 1.04457C30.9564 0.371922 29.9975 -0.00050354 29.003 -0.00050354C28.0086 -0.00050354 27.0496 0.371922 26.312 1.04457L0.534194 23.9977C0.376729 24.1403 0.248665 24.3128 0.157318 24.5054C0.0659707 24.6979 0.0131306 24.9067 0.00181599 25.1199C-0.00949863 25.333 0.020934 25.5464 0.0913753 25.7476C0.161817 25.9489 0.270886 26.1342 0.412354 26.293L2.56822 28.7122C2.70962 28.871 2.88066 29.0002 3.07156 29.0924C3.26247 29.1845 3.4695 29.2378 3.68083 29.2492C3.89216 29.2606 4.10365 29.2299 4.30321 29.1589C4.50278 29.0878 4.68651 28.9778 4.84392 28.8351L27.9352 8.29105C28.2295 8.02915 28.6085 7.88462 29.001 7.88462C29.3935 7.88462 29.7725 8.02915 30.0669 8.29105L53.1581 28.8341C53.3155 28.9768 53.4993 29.0868 53.6988 29.1578C53.8984 29.2289 54.1099 29.2596 54.3212 29.2482C54.5325 29.2368 54.7396 29.1835 54.9305 29.0913C55.1214 28.9992 55.2924 28.87 55.4338 28.7112L57.5887 26.292C57.8739 25.9713 58.0213 25.5494 57.9982 25.1192C57.9752 24.6889 57.7837 24.2856 57.4658 23.9977Z" fill="white"/>
</g>
<defs>
<clipPath id="clip0">
<rect width="58" height="52" fill="white"/>
</clipPath>
</defs>
</svg>
