<?xml version="1.0"?>
<svg xmlns="http://www.w3.org/2000/svg" xmlns:xlink="http://www.w3.org/1999/xlink" xmlns:svgjs="http://svgjs.com/svgjs" version="1.1" width="512" height="512" x="0" y="0" viewBox="0 0 512 512" style="enable-background:new 0 0 512 512" xml:space="preserve" class=""><g><path xmlns="http://www.w3.org/2000/svg" d="m80 348v144c0 11.046-8.954 20-20 20s-20-8.954-20-20v-127.427c-23.281-8.255-40-30.498-40-56.573v-109c0-33.084 26.916-60 60-60h80c11.046 0 20 8.954 20 20s-8.954 20-20 20h-80c-11.028 0-20 8.972-20 20v109c0 11.028 8.972 20 20 20 11.046 0 20 8.954 20 20zm60 56c-11.046 0-20 8.954-20 20v68c0 11.046 8.954 20 20 20s20-8.954 20-20v-68c0-11.046-8.954-20-20-20zm-100-344c0-33.084 26.916-60 60-60s60 26.916 60 60-26.916 60-60 60-60-26.916-60-60zm40 0c0 11.028 8.972 20 20 20s20-8.972 20-20-8.972-20-20-20-20 8.972-20 20zm292 344c-11.046 0-20 8.954-20 20v68c0 11.046 8.954 20 20 20s20-8.954 20-20v-68c0-11.046-8.954-20-20-20zm80-265h-80c-11.046 0-20 8.954-20 20s8.954 20 20 20h80c11.028 0 20 8.972 20 20v109c0 11.028-8.972 20-20 20-11.046 0-20 8.954-20 20v144c0 11.046 8.954 20 20 20s20-8.954 20-20v-127.427c23.281-8.254 40-30.498 40-56.573v-109c0-33.084-26.916-60-60-60zm-100-79c0-33.084 26.916-60 60-60s60 26.916 60 60-26.916 60-60 60-60-26.916-60-60zm40 0c0 11.028 8.972 20 20 20s20-8.972 20-20-8.972-20-20-20-20 8.972-20 20zm-45.991 295.479c4.982 8.055 3.632 18.5-3.235 25.023-6.869 6.523-17.369 7.333-25.157 1.942l-21.387-14.805c-4.86 2.586-9.969 4.703-15.204 6.3l-5.445 26.139c-1.934 9.276-10.107 15.922-19.581 15.922s-17.647-6.646-19.58-15.921l-5.445-26.139c-5.25-1.603-10.366-3.724-15.214-6.307l-22.72 15.043c-7.931 5.25-18.46 4.19-25.183-2.534-6.725-6.724-7.784-17.254-2.534-25.183l15.041-22.719c-2.588-4.862-4.706-9.974-6.305-15.214l-26.14-5.446c-9.274-1.933-15.92-10.106-15.92-19.58s6.646-17.647 15.921-19.58l26.14-5.446c1.604-5.252 3.724-10.368 6.307-15.216l-14.161-21.898c-5.12-7.917-4.016-18.336 2.652-25.003 6.667-6.667 17.085-7.773 25.003-2.652l21.896 14.161c4.864-2.589 9.978-4.708 15.217-6.306l5.445-26.139c1.933-9.275 10.106-15.921 19.58-15.921s17.647 6.646 19.58 15.921l5.445 26.139c5.249 1.603 10.362 3.722 15.21 6.304l20.546-13.921c7.771-5.266 18.157-4.418 24.973 2.037 6.814 6.455 8.224 16.78 3.387 24.825l-13.209 21.972c-.097.162-.196.322-.299.481 2.589 4.863 4.707 9.975 6.307 15.217l26.14 5.446c9.274 1.932 15.92 10.105 15.92 19.579s-6.646 17.647-15.921 19.58l-26.14 5.446c-1.604 5.252-3.724 10.368-6.307 15.216.057.088.112.177.167.266zm-39.321-63.479c-3.101-3.885-5.497-8.38-6.993-13.305-.855-2.813-1.993-5.558-3.382-8.16-2.43-4.548-3.916-9.431-4.472-14.377-4.947-.556-9.829-2.042-14.379-4.472-2.601-1.388-5.347-2.526-8.158-3.381-4.925-1.497-9.42-3.893-13.305-6.994-3.885 3.101-8.38 5.497-13.305 6.994-2.812.854-5.558 1.993-8.161 3.383-4.548 2.429-9.431 3.915-14.377 4.47-.555 4.948-2.042 9.83-4.472 14.379-1.388 2.6-2.525 5.345-3.381 8.159-1.497 4.925-3.893 9.419-6.993 13.304 3.101 3.885 5.497 8.38 6.993 13.305.855 2.813 1.993 5.558 3.382 8.16 2.43 4.55 3.917 9.432 4.472 14.38 4.95.553 9.83 2.04 14.379 4.469 2.601 1.388 5.347 2.526 8.158 3.381 4.925 1.497 9.42 3.893 13.305 6.994 3.885-3.101 8.38-5.497 13.305-6.994 2.812-.854 5.558-1.993 8.161-3.383 4.548-2.429 9.431-3.915 14.377-4.47.555-4.948 2.042-9.83 4.472-14.379 1.388-2.6 2.525-5.345 3.381-8.159 1.497-4.925 3.893-9.419 6.993-13.304zm-50.688-20c-11.046 0-20 8.954-20 20s8.954 20 20 20 20-8.954 20-20-8.954-20-20-20z" fill="#ffffff" data-original="#000000" style="" class=""/></g></svg>
