<?xml version="1.0"?>
<svg xmlns="http://www.w3.org/2000/svg" xmlns:xlink="http://www.w3.org/1999/xlink" xmlns:svgjs="http://svgjs.com/svgjs" version="1.1" width="512" height="512" x="0" y="0" viewBox="0 0 512 512" style="enable-background:new 0 0 512 512" xml:space="preserve"><g><g xmlns="http://www.w3.org/2000/svg"><g><g><path d="m324.669 146.367c-20.595 0-39.808 6.033-55.964 16.425v-89.301h14.73c5.523 0 10-4.477 10-10v-53.491c0-5.523-4.477-10-10-10h-189.839c-5.523 0-10 4.477-10 10v53.491c0 5.523 4.477 10 10 10h14.73v359.158c0 43.754 35.973 79.351 80.189 79.351s80.189-35.597 80.189-79.351v-95.237c16.156 10.392 35.369 16.425 55.964 16.425 57.2 0 103.735-46.535 103.735-103.735s-46.534-103.735-103.734-103.735zm-196.343 4.047h120.379v22.866h-120.379zm-24.73-130.414h169.839v33.491h-169.839zm145.109 53.491v56.923h-120.379v-56.923zm0 359.158c0 32.726-27.001 59.351-60.189 59.351s-60.189-26.624-60.189-59.351v-30.422h54.346c5.523 0 10-4.477 10-10v-25.919c0-5.523-4.477-10-10-10s-10 4.477-10 10v15.919h-44.346v-139.263h44.346v32.932c0 5.523 4.477 10 10 10s10-4.477 10-10v-42.932c0-5.523-4.477-10-10-10h-54.346v-29.684h109.591c-10.734 16.332-16.983 35.861-16.983 56.823 0 27.233 10.548 52.048 27.774 70.575-.001.065-.003.13-.003.195v111.776zm75.964-98.812c-46.172 0-83.735-37.564-83.735-83.735 0-46.172 37.564-83.735 83.735-83.735 46.172 0 83.735 37.564 83.735 83.735 0 46.172-37.563 83.735-83.735 83.735z" fill="#ffffff" data-original="#000000" style=""/><path d="m331.71 188.676c-3.854-3.656-9.895-3.661-13.755-.009-4.276 4.046-41.778 40.485-41.778 73.549 0 26.827 21.825 48.652 48.651 48.652 26.827 0 48.652-21.825 48.652-48.652 0-32.965-37.494-69.484-41.77-73.54zm-6.882 102.192c-15.798 0-28.651-12.853-28.651-28.652 0-16.908 16.995-39.19 28.644-51.947 11.655 12.784 28.659 35.094 28.659 51.947 0 15.799-12.853 28.652-28.652 28.652z" fill="#ffffff" data-original="#000000" style=""/><path d="m191.91 317.09c-1.634-3.923-5.703-6.455-9.949-6.148-4.156.301-7.746 3.233-8.896 7.232s.384 8.455 3.783 10.871c3.37 2.395 7.926 2.463 11.372.185 3.943-2.607 5.475-7.786 3.69-12.14z" fill="#ffffff" data-original="#000000" style=""/></g></g></g></g></svg>
