<svg width="33" height="22" viewBox="0 0 33 22" fill="none" xmlns="http://www.w3.org/2000/svg">
<path d="M8.46245 20.2832C9.72026 20.2832 10.646 19.5605 10.8023 18.4629H9.9312C9.77495 19.1035 9.20854 19.5059 8.46245 19.5059C7.44683 19.5059 6.81401 18.6699 6.81401 17.3301C6.81401 15.9902 7.44683 15.1504 8.45854 15.1504C9.20073 15.1504 9.76714 15.5957 9.9312 16.2949H10.8023C10.6617 15.166 9.70073 14.373 8.45854 14.373C6.89214 14.373 5.91948 15.5059 5.91948 17.3301C5.91948 19.1504 6.89604 20.2832 8.46245 20.2832ZM12.6248 20.2168C13.1834 20.2168 13.6482 19.9746 13.9021 19.5449H13.9685V20.1465H14.7771V17.2441C14.7771 16.3535 14.1755 15.8223 13.1091 15.8223C12.1443 15.8223 11.4568 16.2871 11.3709 17.002H12.1834C12.2771 16.6934 12.6013 16.5176 13.0701 16.5176C13.6443 16.5176 13.9412 16.7793 13.9412 17.2441V17.6152L12.7888 17.6855C11.7771 17.748 11.2068 18.1895 11.2068 18.9512C11.2068 19.7246 11.8045 20.2168 12.6248 20.2168ZM12.8396 19.541C12.3826 19.541 12.0505 19.3105 12.0505 18.916C12.0505 18.5293 12.3162 18.3223 12.9021 18.2832L13.9412 18.2129V18.5801C13.9412 19.127 13.4724 19.541 12.8396 19.541ZM15.5644 20.1465H16.4043V17.541C16.4043 16.9863 16.791 16.5527 17.3027 16.5527C17.8027 16.5527 18.123 16.8535 18.123 17.3379V20.1465H18.9472V17.4629C18.9472 16.9512 19.3027 16.5527 19.8457 16.5527C20.3965 16.5527 20.6699 16.8379 20.6699 17.4238V20.1465H21.5097V17.2207C21.5097 16.3379 21.0097 15.8223 20.1504 15.8223C19.5605 15.8223 19.0722 16.123 18.8574 16.5801H18.791C18.6035 16.123 18.2011 15.8223 17.6191 15.8223C17.0527 15.8223 16.623 16.1035 16.4355 16.5801H16.373V15.9043H15.5644V20.1465ZM24.4885 15.8301C23.9103 15.8301 23.4103 16.123 23.1525 16.6074H23.09V15.9043H22.2814V21.5605H23.1213V19.5059H23.1877C23.4103 19.9551 23.8908 20.2168 24.4963 20.2168C25.5705 20.2168 26.2541 19.3652 26.2541 18.0254C26.2541 16.6777 25.5705 15.8301 24.4885 15.8301ZM24.2502 19.498C23.547 19.498 23.1056 18.9316 23.1056 18.0254C23.1056 17.1152 23.547 16.5488 24.2541 16.5488C24.965 16.5488 25.3908 17.1035 25.3908 18.0254C25.3908 18.9473 24.965 19.498 24.2502 19.498Z" fill="#D3D3D3"/>
<g clip-path="url(#clip0)">
<path d="M20.9293 12.147H17.8933C17.6798 12.147 17.5 12.0719 17.3537 11.9219C17.2074 11.7718 17.1343 11.594 17.1343 11.3886V8.35516C17.1343 8.14187 17.0592 7.96216 16.909 7.81601C16.7587 7.66987 16.5809 7.5968 16.3753 7.5968H14.8573C14.6438 7.5968 14.464 7.66987 14.3177 7.81601C14.1714 7.96216 14.0983 8.14187 14.0983 8.35516V11.3886C14.0983 11.594 14.0232 11.7718 13.873 11.9219C13.7228 12.0719 13.5449 12.147 13.3393 12.147H10.2914C10.1096 12.147 9.93962 12.07 9.7815 11.9159C9.62337 11.7619 9.54431 11.5901 9.54431 11.4005C9.54431 11.2583 9.57989 11.1279 9.65105 11.0094L14.6913 3.94717L12.687 1.15069C12.5763 0.969001 12.5487 0.777435 12.604 0.575994C12.6594 0.374553 12.778 0.222485 12.9598 0.11979C13.1416 0.0170946 13.3334 -0.00857925 13.535 0.0427684C13.7366 0.0941161 13.8888 0.210636 13.9916 0.392327L15.6163 2.65557L17.2292 0.380478C17.3319 0.206686 17.4861 0.0921412 17.6917 0.0368437C17.8972 -0.0184538 18.089 0.00524511 18.2669 0.10794C18.4447 0.210636 18.5614 0.362704 18.6167 0.564145C18.6721 0.765585 18.6483 0.957152 18.5456 1.13884L16.5413 3.94717L21.5815 11.0213C21.6527 11.1477 21.6883 11.2701 21.6883 11.3886C21.6883 11.5782 21.6112 11.752 21.457 11.91C21.3028 12.068 21.1269 12.147 20.9293 12.147Z" fill="#D3D3D3"/>
</g>
<defs>
<clipPath id="clip0">
<rect width="12.1457" height="12.1457" fill="white" transform="translate(9.54303)"/>
</clipPath>
</defs>
</svg>
