<svg width="75" height="75" viewBox="0 0 75 75" fill="none" xmlns="http://www.w3.org/2000/svg">
<path d="M37.5 2.34375C18.0838 2.34375 2.34375 18.0838 2.34375 37.5C2.34375 56.9162 18.0838 72.6562 37.5 72.6562C56.9162 72.6562 72.6562 56.9162 72.6562 37.5C72.6562 18.0838 56.9162 2.34375 37.5 2.34375ZM59.0446 59.0446C53.7024 64.3709 46.5685 67.5175 39.0331 67.8712C31.4976 68.225 24.1003 65.7605 18.2826 60.9581C12.4649 56.1557 8.64355 49.3594 7.56311 41.8934C6.48268 34.4274 8.22057 26.8266 12.4382 20.5719C16.6557 14.3173 23.0509 9.85691 30.3775 8.0599C37.7041 6.26289 45.4374 7.25797 52.0704 10.8513C58.7034 14.4446 63.761 20.3786 66.2578 27.4973C68.7545 34.6159 68.5116 42.4091 65.5762 49.3584C64.0464 52.9794 61.8282 56.269 59.0446 59.0446Z" fill="white"/>
<path d="M24.6094 46.875H50.3906V51.5625H24.6094V46.875Z" fill="white"/>
<path d="M30.8541 33.4046L27.3323 30.2741L30.4627 26.7524L26.9594 23.6382L23.8289 27.16L20.3073 24.0296L17.193 27.5329L20.7148 30.6634L17.5844 34.1851L21.0877 37.2993L24.2182 33.7775L27.7399 36.9079L30.8541 33.4046V33.4046Z" fill="white"/>
<path d="M56.244 26.7524L52.7407 23.6382L49.6101 27.16L46.0885 24.0296L42.9742 27.5329L46.496 30.6634L43.3656 34.1851L46.869 37.2993L49.9995 33.7775L53.5211 36.9079L56.6354 33.4046L53.1136 30.2741L56.244 26.7524V26.7524Z" fill="white"/>
</svg>
