<svg width="24" height="24" viewBox="0 0 24 24" fill="none" xmlns="http://www.w3.org/2000/svg">
<path d="M11.9999 1.3335C9.89026 1.3335 7.82796 1.95909 6.07384 3.13115C4.31972 4.30322 2.95254 5.96913 2.14521 7.91821C1.33787 9.86728 1.12664 12.012 1.53821 14.0811C1.94979 16.1503 2.96569 18.0509 4.45745 19.5426C5.94921 21.0344 7.84983 22.0503 9.91896 22.4619C11.9881 22.8734 14.1328 22.6622 16.0819 21.8549C18.031 21.0475 19.6969 19.6804 20.8689 17.9262C22.041 16.1721 22.6666 14.1098 22.6666 12.0002C22.6666 9.17119 21.5428 6.45808 19.5424 4.45769C17.542 2.4573 14.8289 1.3335 11.9999 1.3335ZM11.9999 21.3335C10.154 21.3335 8.34946 20.7861 6.8146 19.7605C5.27974 18.735 4.08347 17.2773 3.37705 15.5719C2.67063 13.8664 2.4858 11.9898 2.84593 10.1793C3.20606 8.36883 4.09497 6.70579 5.40026 5.4005C6.70555 4.09521 8.36859 3.2063 10.1791 2.84617C11.9896 2.48604 13.8662 2.67087 15.5716 3.37729C17.2771 4.0837 18.7347 5.27998 19.7603 6.81484C20.7859 8.3497 21.3333 10.1542 21.3333 12.0002C21.3333 14.4755 20.3499 16.8495 18.5996 18.5998C16.8492 20.3502 14.4753 21.3335 11.9999 21.3335Z" fill="#3FB744"/>
<path d="M18.6667 8.06691C18.5418 7.94274 18.3728 7.87305 18.1967 7.87305C18.0206 7.87305 17.8516 7.94274 17.7267 8.06691L10.3267 15.4336L6.32671 11.4336C6.20471 11.3019 6.03538 11.224 5.85597 11.2171C5.67656 11.2102 5.50176 11.2749 5.37004 11.3969C5.23831 11.5189 5.16045 11.6882 5.15357 11.8676C5.1467 12.0471 5.21137 12.2219 5.33337 12.3536L10.3267 17.3336L18.6667 9.01358C18.7292 8.9516 18.7788 8.87787 18.8126 8.79663C18.8465 8.71539 18.8639 8.62825 18.8639 8.54024C18.8639 8.45223 18.8465 8.3651 18.8126 8.28386C18.7788 8.20262 18.7292 8.12888 18.6667 8.06691Z" fill="#3FB744"/>
</svg>
