<svg width="14" height="14" viewBox="0 0 14 14" fill="none" xmlns="http://www.w3.org/2000/svg">
<path d="M9.27367 8.78281C9.60453 8.60508 9.98324 8.50391 10.3866 8.50391H10.3879C10.4289 8.50391 10.4481 8.45469 10.418 8.42734C9.99857 8.05093 9.51944 7.74691 9.00023 7.52773C8.99476 7.525 8.98929 7.52363 8.98382 7.5209C9.83285 6.9043 10.3852 5.90215 10.3852 4.77148C10.3852 2.89844 8.87035 1.38086 7.0014 1.38086C5.13246 1.38086 3.61898 2.89844 3.61898 4.77148C3.61898 5.90215 4.17132 6.9043 5.02171 7.5209C5.01625 7.52363 5.01078 7.525 5.00531 7.52773C4.39418 7.78613 3.84593 8.15664 3.37425 8.62969C2.9053 9.09779 2.53195 9.65271 2.27503 10.2635C2.02226 10.8616 1.88584 11.5024 1.87308 12.1516C1.87272 12.1662 1.87528 12.1807 1.88061 12.1943C1.88594 12.2078 1.89394 12.2202 1.90413 12.2307C1.91433 12.2411 1.92651 12.2494 1.93996 12.2551C1.95341 12.2608 1.96786 12.2637 1.98246 12.2637H2.8014C2.86019 12.2637 2.90941 12.2158 2.91078 12.157C2.93812 11.1016 3.36058 10.1131 4.10843 9.36387C4.88089 8.58867 5.90902 8.16211 7.00277 8.16211C7.77797 8.16211 8.52172 8.37676 9.16293 8.77871C9.1794 8.78906 9.19831 8.79489 9.21775 8.79561C9.23719 8.79633 9.25647 8.79192 9.27367 8.78281ZM7.00277 7.12305C6.3766 7.12305 5.78734 6.87832 5.343 6.43398C5.12438 6.21593 4.95107 5.95678 4.83304 5.67145C4.71502 5.38612 4.65461 5.08026 4.65531 4.77148C4.65531 4.14395 4.90003 3.55332 5.343 3.10898C5.78597 2.66465 6.37523 2.41992 7.00277 2.41992C7.63031 2.41992 8.2182 2.66465 8.66253 3.10898C8.88116 3.32704 9.05447 3.58619 9.1725 3.87152C9.29052 4.15685 9.35093 4.46271 9.35023 4.77148C9.35023 5.39902 9.1055 5.98965 8.66253 6.43398C8.2182 6.87832 7.62894 7.12305 7.00277 7.12305ZM12.0313 10.377H10.8828V9.22852C10.8828 9.16836 10.8336 9.11914 10.7735 9.11914H10.0078C9.94769 9.11914 9.89847 9.16836 9.89847 9.22852V10.377H8.75004C8.68988 10.377 8.64066 10.4262 8.64066 10.4863V11.252C8.64066 11.3121 8.68988 11.3613 8.75004 11.3613H9.89847V12.5098C9.89847 12.5699 9.94769 12.6191 10.0078 12.6191H10.7735C10.8336 12.6191 10.8828 12.5699 10.8828 12.5098V11.3613H12.0313C12.0914 11.3613 12.1407 11.3121 12.1407 11.252V10.4863C12.1407 10.4262 12.0914 10.377 12.0313 10.377Z" fill="white"/>
</svg>
