<svg width="21" height="21" viewBox="0 0 21 21" fill="none" xmlns="http://www.w3.org/2000/svg">
<path d="M14.0561 7.27618C14.0561 7.18595 13.9823 7.11212 13.892 7.11212L12.5385 7.11827L10.5 9.54845L8.4636 7.12033L7.10803 7.11417C7.0178 7.11417 6.94397 7.18595 6.94397 7.27824C6.94397 7.3172 6.95833 7.35411 6.98293 7.38488L9.651 10.5636L6.98293 13.7402C6.95815 13.7703 6.9444 13.8079 6.94397 13.8469C6.94397 13.9371 7.0178 14.011 7.10803 14.011L8.4636 14.0048L10.5 11.5746L12.5364 14.0027L13.89 14.0089C13.9802 14.0089 14.054 13.9371 14.054 13.8448C14.054 13.8059 14.0397 13.769 14.0151 13.7382L11.3511 10.5615L14.0192 7.38283C14.0438 7.35411 14.0561 7.31515 14.0561 7.27618Z" fill="#D3D3D3"/>
<path d="M10.5 1.33301C5.42637 1.33301 1.3125 5.44688 1.3125 10.5205C1.3125 15.5941 5.42637 19.708 10.5 19.708C15.5736 19.708 19.6875 15.5941 19.6875 10.5205C19.6875 5.44688 15.5736 1.33301 10.5 1.33301ZM10.5 18.1494C6.2877 18.1494 2.87109 14.7328 2.87109 10.5205C2.87109 6.3082 6.2877 2.8916 10.5 2.8916C14.7123 2.8916 18.1289 6.3082 18.1289 10.5205C18.1289 14.7328 14.7123 18.1494 10.5 18.1494Z" fill="#D3D3D3"/>
</svg>
