<svg width="24" height="24" viewBox="0 0 24 24" fill="none" xmlns="http://www.w3.org/2000/svg">
<path d="M11.001 10H13.001V15H11.001V10ZM11 16H13V18H11V16Z" fill="#FF4A4A"/>
<path d="M13.7679 4.20018C13.4199 3.54518 12.7419 3.13818 11.9999 3.13818C11.2579 3.13818 10.5799 3.54518 10.2319 4.20118L2.89395 18.0642C2.73112 18.3686 2.65046 18.7102 2.65993 19.0553C2.6694 19.4005 2.76867 19.7371 2.94795 20.0322C3.12465 20.3286 3.37559 20.5737 3.676 20.7435C3.97641 20.9133 4.3159 21.0017 4.66095 21.0002H19.3389C20.0469 21.0002 20.6879 20.6382 21.0529 20.0322C21.2319 19.737 21.331 19.4004 21.3405 19.0553C21.35 18.7103 21.2695 18.3687 21.1069 18.0642L13.7679 4.20018ZM4.66095 19.0002L11.9999 5.13718L19.3439 19.0002H4.66095Z" fill="#FF4A4A"/>
</svg>
