<svg width="58" height="58" viewBox="0 0 58 58" fill="none" xmlns="http://www.w3.org/2000/svg">
<path fill-rule="evenodd" clip-rule="evenodd" d="M19.7308 7.21738C16.4157 8.10859 13.1221 9.07794 9.8527 10.1246C9.55683 10.216 9.29273 10.3889 9.09074 10.6236C8.88875 10.8583 8.75707 11.1452 8.71083 11.4514C6.7787 25.578 11.2375 35.8875 16.5553 42.6771C19.2233 46.0846 22.1125 48.6076 24.5195 50.2643C25.7266 51.0908 26.7887 51.6925 27.6261 52.0768C28.0466 52.2689 28.3873 52.3994 28.6483 52.4755C28.7634 52.5125 28.8809 52.5416 29 52.5625C29.0253 52.5589 29.1377 52.5444 29.3516 52.4791C29.6126 52.3994 29.9533 52.2689 30.3738 52.0768C31.2076 51.6925 32.277 51.0908 33.4805 50.2643C36.4987 48.1466 39.1831 45.5892 41.4446 42.6771C46.7625 35.8875 51.2212 25.578 49.2891 11.4514C49.2428 11.1452 49.1112 10.8583 48.9092 10.6236C48.7072 10.3889 48.4431 10.216 48.1472 10.1246C45.878 9.39962 42.05 8.21788 38.2691 7.21738C34.4048 6.19875 30.8487 5.4375 29 5.4375C27.1512 5.4375 23.5987 6.19875 19.7308 7.21738ZM18.8028 3.71562C22.5837 2.71512 26.5966 1.8125 29 1.8125C31.3997 1.8125 35.4162 2.71512 39.1971 3.71562C42.5694 4.62106 45.9198 5.60613 49.2456 6.67C51.1596 7.279 52.6023 8.92837 52.8815 10.962C54.9586 26.1761 50.141 37.4499 44.3011 44.9101C41.8125 48.1118 38.8579 50.9222 35.5358 53.2476C34.3807 54.0567 33.1596 54.7673 31.8855 55.3719C30.9067 55.8214 29.8627 56.1875 29 56.1875C28.1372 56.1875 27.0932 55.8214 26.1145 55.3719C24.84 54.7678 23.6189 54.0572 22.4641 53.2476C19.1434 50.9218 16.19 48.1114 13.7025 44.9101C7.85533 37.4499 3.04133 26.1761 5.11845 10.962C5.25733 9.97626 5.67252 9.05 6.31598 8.29043C6.95943 7.53086 7.80483 6.96904 8.75433 6.67C12.0801 5.60615 15.4305 4.62108 18.8028 3.71562Z" fill="white"/>
<path fill-rule="evenodd" clip-rule="evenodd" d="M29 19.9375C29.4807 19.9375 29.9417 20.1285 30.2816 20.4684C30.6215 20.8083 30.8125 21.2693 30.8125 21.75V29C30.8125 29.4807 30.6215 29.9417 30.2816 30.2816C29.9417 30.6215 29.4807 30.8125 29 30.8125H21.75C21.2693 30.8125 20.8083 30.6215 20.4684 30.2816C20.1285 29.9417 19.9375 29.4807 19.9375 29C19.9375 28.5193 20.1285 28.0583 20.4684 27.7184C20.8083 27.3785 21.2693 27.1875 21.75 27.1875H27.1875V21.75C27.1875 21.2693 27.3785 20.8083 27.7184 20.4684C28.0583 20.1285 28.5193 19.9375 29 19.9375Z" fill="white"/>
<path fill-rule="evenodd" clip-rule="evenodd" d="M27.1875 29C27.1875 28.5193 27.3785 28.0583 27.7184 27.7184C28.0583 27.3785 28.5193 27.1875 29 27.1875H36.25C36.7307 27.1875 37.1917 27.3785 37.5316 27.7184C37.8715 28.0583 38.0625 28.5193 38.0625 29C38.0625 29.4807 37.8715 29.9417 37.5316 30.2816C37.1917 30.6215 36.7307 30.8125 36.25 30.8125H30.8125V36.25C30.8125 36.7307 30.6215 37.1917 30.2816 37.5316C29.9417 37.8715 29.4807 38.0625 29 38.0625C28.5193 38.0625 28.0583 37.8715 27.7184 37.5316C27.3785 37.1917 27.1875 36.7307 27.1875 36.25V29Z" fill="white"/>
</svg>
