<svg width="54" height="54" viewBox="0 0 54 54" fill="none" xmlns="http://www.w3.org/2000/svg">
<path d="M22.5775 10.6537C23.2384 10.4889 23.9081 10.3614 24.5834 10.2718V13.341C24.5834 13.9819 24.838 14.5966 25.2912 15.0498C25.7444 15.503 26.3591 15.7577 27 15.7577C27.641 15.7577 28.2556 15.503 28.7089 15.0498C29.1621 14.5966 29.4167 13.9819 29.4167 13.341V10.2549C33.0346 10.7684 36.3862 12.4484 38.9625 15.0399V15.0423L38.9649 15.0447C41.5412 17.628 43.2115 20.9762 43.7258 24.5882H41.5C40.8591 24.5882 40.2444 24.8428 39.7912 25.296C39.338 25.7492 39.0834 26.3639 39.0834 27.0048C39.0834 27.6458 39.338 28.2605 39.7912 28.7137C40.2444 29.1669 40.8591 29.4215 41.5 29.4215H43.7282C43.6361 30.0943 43.507 30.7615 43.3415 31.4201C43.1822 32.0402 43.2754 32.6981 43.6007 33.2496C43.926 33.801 44.4569 34.2008 45.0767 34.3612C45.2739 34.4128 45.477 34.4388 45.6809 34.4385C46.2165 34.4384 46.737 34.2603 47.1604 33.9322C47.5838 33.6041 47.8863 33.1446 48.0202 32.626C48.2851 31.5725 48.4757 30.5017 48.5905 29.4215H51.1667C51.8076 29.4215 52.4223 29.1669 52.8755 28.7137C53.3287 28.2605 53.5834 27.6458 53.5834 27.0048C53.5834 26.3639 53.3287 25.7492 52.8755 25.296C52.4223 24.8428 51.8076 24.5882 51.1667 24.5882H48.605C48.1563 20.5076 46.5534 16.6396 43.9844 13.4377L45.7969 11.6252C46.2371 11.1694 46.4807 10.5589 46.4751 9.92528C46.4696 9.29163 46.2155 8.6855 45.7674 8.23743C45.3193 7.78936 44.7132 7.53521 44.0796 7.5297C43.4459 7.52419 42.8355 7.76778 42.3797 8.208L40.5599 10.0277C37.361 7.45911 33.4949 5.85768 29.4167 5.41191V2.83091C29.4167 2.18997 29.1621 1.57528 28.7089 1.12207C28.2556 0.668858 27.641 0.414246 27 0.414246C26.3591 0.414246 25.7444 0.668858 25.2912 1.12207C24.838 1.57528 24.5834 2.18997 24.5834 2.83091V5.40708C23.4998 5.52046 22.4256 5.71106 21.3692 5.97741C20.761 6.14871 20.2442 6.55136 19.9293 7.09911C19.6144 7.64685 19.5265 8.29613 19.6845 8.90787C19.8425 9.51961 20.2338 10.0451 20.7745 10.3719C21.3153 10.6987 21.9625 10.8007 22.5775 10.6561V10.6537ZM31.8334 19.7548C31.8334 20.2328 31.9751 20.7 32.2406 21.0975C32.5062 21.4949 32.8836 21.8046 33.3252 21.9875C33.7668 22.1705 34.2527 22.2183 34.7215 22.1251C35.1903 22.0318 35.6209 21.8016 35.9589 21.4637C36.2968 21.1257 36.527 20.6951 36.6203 20.2263C36.7135 19.7575 36.6656 19.2716 36.4827 18.83C36.2998 18.3884 35.9901 18.011 35.5926 17.7454C35.1952 17.4799 34.728 17.3382 34.25 17.3382C33.6091 17.3382 32.9944 17.5928 32.5412 18.046C32.088 18.4992 31.8334 19.1139 31.8334 19.7548ZM42.4111 38.9987L42.3942 38.9722L42.3652 38.9528L4.54194 1.12958C4.08615 0.689363 3.47569 0.445777 2.84205 0.451283C2.20841 0.45679 1.60228 0.710948 1.15421 1.15902C0.706139 1.60709 0.451981 2.21322 0.446475 2.84686C0.440969 3.4805 0.684555 4.09096 1.12477 4.54675L10.0157 13.4377C7.44563 16.6392 5.84188 20.5073 5.3926 24.5882H2.83335C2.19241 24.5882 1.57773 24.8428 1.12451 25.296C0.671299 25.7492 0.416687 26.3639 0.416687 27.0048C0.416687 27.6458 0.671299 28.2605 1.12451 28.7137C1.57773 29.1669 2.19241 29.4215 2.83335 29.4215H5.39502C5.84455 33.5021 7.44638 37.3705 10.0133 40.5744L8.20077 42.3869C7.97012 42.61 7.7862 42.8768 7.65976 43.1717C7.53332 43.4667 7.46688 43.7838 7.46432 44.1047C7.46176 44.4256 7.52313 44.7438 7.64486 45.0407C7.76658 45.3376 7.94621 45.6073 8.17328 45.834C8.40034 46.0608 8.67029 46.24 8.96738 46.3613C9.26446 46.4826 9.58272 46.5436 9.9036 46.5405C10.2245 46.5375 10.5415 46.4706 10.8363 46.3438C11.131 46.2169 11.3976 46.0326 11.6204 45.8017L13.4329 43.9892C16.6362 46.555 20.5037 48.156 24.5834 48.605V51.1739C24.5834 51.8149 24.838 52.4295 25.2912 52.8828C25.7444 53.336 26.3591 53.5906 27 53.5906C27.641 53.5906 28.2556 53.336 28.7089 52.8828C29.1621 52.4295 29.4167 51.8149 29.4167 51.1739V48.605C33.4961 48.1567 37.3636 46.5565 40.5672 43.9916L49.4581 52.8825C49.9139 53.3227 50.5243 53.5663 51.158 53.5608C51.7916 53.5553 52.3978 53.3011 52.8458 52.8531C53.2939 52.405 53.5481 51.7989 53.5536 51.1652C53.5591 50.5316 53.3155 49.9211 52.8753 49.4653L42.4111 38.9987ZM29.4167 43.7233V39.0906C29.4167 38.4496 29.1621 37.835 28.7089 37.3817C28.2556 36.9285 27.641 36.6739 27 36.6739C26.3591 36.6739 25.7444 36.9285 25.2912 37.3817C24.838 37.835 24.5834 38.4496 24.5834 39.0906V43.7233C20.9778 43.2139 17.6335 41.5524 15.0496 38.9867L15.0375 38.9697L15.0206 38.9577C12.4534 36.3739 10.7895 33.03 10.2767 29.4239H12.5C13.141 29.4239 13.7556 29.1693 14.2089 28.7161C14.6621 28.2629 14.9167 27.6482 14.9167 27.0072C14.9167 26.3663 14.6621 25.7516 14.2089 25.2984C13.7556 24.8452 13.141 24.5906 12.5 24.5906H10.2743C10.6727 21.7958 11.7699 19.1467 13.4643 16.8887L17.9448 21.3692C17.4802 22.0664 17.2716 22.903 17.3543 23.7368C17.4369 24.5705 17.8059 25.3499 18.3983 25.9423C18.9907 26.5347 19.7701 26.9037 20.6038 26.9863C21.4375 27.069 22.2742 26.8604 22.9714 26.3958L37.1162 40.5406C34.8571 42.2298 32.2093 43.3235 29.4167 43.7209V43.7233ZM19.75 31.8406C19.272 31.8406 18.8048 31.9823 18.4074 32.2479C18.01 32.5134 17.7002 32.8908 17.5173 33.3324C17.3344 33.774 17.2865 34.2599 17.3798 34.7287C17.473 35.1975 17.7032 35.6281 18.0412 35.9661C18.3792 36.3041 18.8098 36.5342 19.2786 36.6275C19.7473 36.7207 20.2332 36.6729 20.6748 36.49C21.1164 36.307 21.4939 35.9973 21.7594 35.5999C22.025 35.2025 22.1667 34.7352 22.1667 34.2572C22.1667 33.6163 21.9121 33.0016 21.4589 32.5484C21.0056 32.0952 20.391 31.8406 19.75 31.8406Z" fill="white"/>
</svg>
