<?xml version="1.0"?>
<svg xmlns="http://www.w3.org/2000/svg" xmlns:xlink="http://www.w3.org/1999/xlink" xmlns:svgjs="http://svgjs.com/svgjs" version="1.1" width="512" height="512" x="0" y="0" viewBox="0 0 512 512" style="enable-background:new 0 0 512 512" xml:space="preserve" class=""><g><path xmlns="http://www.w3.org/2000/svg" d="m76 512h360c8.284 0 15-6.716 15-15v-452c0-8.284-6.716-15-15-15h-105v-15c0-8.284-6.716-15-15-15h-120c-8.284 0-15 6.716-15 15v15h-105c-8.284 0-15 6.716-15 15v452c0 8.284 6.716 15 15 15zm135-482h90v30h-90zm-120 30h90v15c0 8.284 6.716 15 15 15h120c8.284 0 15-6.716 15-15v-15h90v422h-330z" fill="#ffffff" data-original="#000000" style="" class=""/><path xmlns="http://www.w3.org/2000/svg" d="m346 181h-45v-46c0-8.284-6.716-15-15-15h-60c-8.284 0-15 6.716-15 15v46h-45c-8.284 0-15 6.716-15 15v60c0 8.284 6.716 15 15 15h45v46c0 8.284 6.716 15 15 15h60c8.284 0 15-6.716 15-15v-46h45c8.284 0 15-6.716 15-15v-60c0-8.284-6.716-15-15-15zm-15 60h-45c-8.284 0-15 6.716-15 15v46h-30v-46c0-8.284-6.716-15-15-15h-45v-30h45c8.284 0 15-6.716 15-15v-46h30v46c0 8.284 6.716 15 15 15h45z" fill="#ffffff" data-original="#000000" style="" class=""/><path xmlns="http://www.w3.org/2000/svg" d="m346 362h-120c-8.284 0-15 6.716-15 15s6.716 15 15 15h120c8.284 0 15-6.716 15-15s-6.716-15-15-15z" fill="#ffffff" data-original="#000000" style="" class=""/><circle xmlns="http://www.w3.org/2000/svg" cx="166" cy="377" r="15" fill="#ffffff" data-original="#000000" style="" class=""/><path xmlns="http://www.w3.org/2000/svg" d="m346 422h-120c-8.284 0-15 6.716-15 15s6.716 15 15 15h120c8.284 0 15-6.716 15-15s-6.716-15-15-15z" fill="#ffffff" data-original="#000000" style="" class=""/><circle xmlns="http://www.w3.org/2000/svg" cx="166" cy="437" r="15" fill="#ffffff" data-original="#000000" style="" class=""/></g></svg>
