<svg width="42" height="22" viewBox="0 0 42 22" fill="none" xmlns="http://www.w3.org/2000/svg">
<path d="M10.6579 14.3723C9.04074 14.3723 8.02511 15.509 8.02511 17.3254C8.02511 19.1379 9.0173 20.2825 10.6579 20.2825C12.2868 20.2825 13.2868 19.134 13.2868 17.3254C13.2868 15.5129 12.279 14.3723 10.6579 14.3723ZM10.6579 15.1458C11.7243 15.1458 12.3923 15.9895 12.3923 17.3254C12.3923 18.6497 11.7282 19.509 10.6579 19.509C9.57199 19.509 8.91964 18.6497 8.91964 17.3254C8.91964 15.9895 9.59152 15.1458 10.6579 15.1458ZM17.5546 15.9036H16.7148V18.3918C16.7148 19.0754 16.3437 19.4895 15.664 19.4895C15.0468 19.4895 14.7695 19.1536 14.7695 18.4504V15.9036H13.9296V18.6575C13.9296 19.6536 14.4531 20.2278 15.3945 20.2278C16.039 20.2278 16.4726 19.9543 16.6796 19.4739H16.746V20.1458H17.5546V15.9036ZM18.6622 14.8333V15.9153H17.9865V16.5872H18.6622V19.0286C18.6622 19.845 19.0333 20.1731 19.9669 20.1731C20.131 20.1731 20.2872 20.1536 20.424 20.1301V19.4622C20.3068 19.4739 20.2326 19.4817 20.1036 19.4817C19.6857 19.4817 19.5021 19.2825 19.5021 18.8254V16.5872H20.424V15.9153H19.5021V14.8333H18.6622ZM20.8441 17.0911C20.8441 17.72 21.2191 18.0793 22.0277 18.2668L22.7699 18.4426C23.1956 18.5442 23.3949 18.7161 23.3949 18.9817C23.3949 19.3293 23.0238 19.5715 22.5003 19.5715C21.9925 19.5715 21.68 19.3645 21.5746 19.0325H20.7347C20.8089 19.7708 21.4691 20.2278 22.4808 20.2278C23.4964 20.2278 24.2425 19.6926 24.2425 18.9036C24.2425 18.2864 23.8636 17.9387 23.055 17.7512L22.348 17.5872C21.8871 17.4778 21.6722 17.3137 21.6722 17.052C21.6722 16.7083 22.0277 16.4778 22.4964 16.4778C22.973 16.4778 23.2777 16.6848 23.3558 17.0012H24.1605C24.0785 16.2668 23.4535 15.8215 22.4964 15.8215C21.5355 15.8215 20.8441 16.3528 20.8441 17.0911ZM25.2798 15.1458C25.5728 15.1458 25.8111 14.9075 25.8111 14.6184C25.8111 14.3254 25.5728 14.0872 25.2798 14.0872C24.9869 14.0872 24.7486 14.3254 24.7486 14.6184C24.7486 14.9075 24.9869 15.1458 25.2798 15.1458ZM24.8619 20.1458H25.6978V15.9036H24.8619V20.1458ZM28.0789 20.2161C28.6648 20.2161 29.1609 19.9387 29.4148 19.4739H29.4812V20.1458H30.2859V14.2395H29.446V16.5754H29.3835C29.1531 16.1106 28.6609 15.8293 28.0789 15.8293C27.0046 15.8293 26.3132 16.6848 26.3132 18.0208C26.3132 19.3645 26.9968 20.2161 28.0789 20.2161ZM28.3171 16.5481C29.0203 16.5481 29.4617 17.1184 29.4617 18.0247C29.4617 18.9387 29.0242 19.4973 28.3171 19.4973C27.6062 19.4973 27.1804 18.9465 27.1804 18.0247C27.1804 17.1067 27.6101 16.5481 28.3171 16.5481ZM33.9287 19.009C33.7724 19.3528 33.4248 19.5403 32.917 19.5403C32.2451 19.5403 31.8115 19.0559 31.7841 18.2864V18.2473H34.7881V17.9583C34.7881 16.6301 34.0732 15.8215 32.8896 15.8215C31.6904 15.8215 30.9287 16.6848 30.9287 18.0325C30.9287 19.3879 31.6748 20.2278 32.8935 20.2278C33.8662 20.2278 34.5537 19.759 34.7373 19.009H33.9287ZM32.8857 16.5051C33.5068 16.5051 33.9131 16.9543 33.9326 17.6418H31.7841C31.831 16.9583 32.2646 16.5051 32.8857 16.5051Z" fill="#EF8009"/>
<path d="M23.9702 5.56684H22.3609C22.1483 4.9798 21.5916 4.5547 20.9338 4.5547C20.2759 4.5547 19.7192 4.9798 19.5066 5.56684H17.8973C17.7303 5.56684 16.8852 5.51624 16.8852 4.5547V4.04863C16.8852 3.12252 17.6645 3.03649 17.8973 3.03649H23.0491C23.2617 3.62353 23.8184 4.04863 24.4762 4.04863C24.8789 4.04863 25.2651 3.88868 25.5498 3.60396C25.8345 3.31924 25.9945 2.93307 25.9945 2.53042C25.9945 2.12776 25.8345 1.7416 25.5498 1.45688C25.2651 1.17216 24.8789 1.01221 24.4762 1.01221C23.8184 1.01221 23.2617 1.43731 23.0491 2.02435H17.8973C17.0826 2.02435 15.873 2.56078 15.873 4.04863V4.5547C15.873 6.04255 17.0826 6.57898 17.8973 6.57898H19.5066C19.7192 7.16603 20.2759 7.59113 20.9338 7.59113C21.5916 7.59113 22.1483 7.16603 22.3609 6.57898H23.9702C24.1372 6.57898 24.9823 6.62959 24.9823 7.59113V8.0972C24.9823 9.02331 24.203 9.10934 23.9702 9.10934H18.8184C18.6058 8.5223 18.0492 8.0972 17.3913 8.0972C16.9886 8.0972 16.6024 8.25715 16.3177 8.54187C16.033 8.82659 15.873 9.21275 15.873 9.61541C15.873 10.0181 16.033 10.4042 16.3177 10.6889C16.6024 10.9737 16.9886 11.1336 17.3913 11.1336C18.0492 11.1336 18.6058 10.7085 18.8184 10.1215H23.9702C24.785 10.1215 25.9945 9.57998 25.9945 8.0972V7.59113C25.9945 6.10834 24.785 5.56684 23.9702 5.56684ZM24.4762 2.02435C24.6105 2.02435 24.7392 2.07767 24.8341 2.17257C24.929 2.26748 24.9823 2.3962 24.9823 2.53042C24.9823 2.66464 24.929 2.79336 24.8341 2.88827C24.7392 2.98317 24.6105 3.03649 24.4762 3.03649C24.342 3.03649 24.2133 2.98317 24.1184 2.88827C24.0235 2.79336 23.9702 2.66464 23.9702 2.53042C23.9702 2.3962 24.0235 2.26748 24.1184 2.17257C24.2133 2.07767 24.342 2.02435 24.4762 2.02435ZM17.3913 10.1215C17.257 10.1215 17.1283 10.0682 17.0334 9.97326C16.9385 9.87835 16.8852 9.74963 16.8852 9.61541C16.8852 9.48119 16.9385 9.35247 17.0334 9.25756C17.1283 9.16266 17.257 9.10934 17.3913 9.10934C17.5255 9.10934 17.6542 9.16266 17.7491 9.25756C17.844 9.35247 17.8973 9.48119 17.8973 9.61541C17.8973 9.74963 17.844 9.87835 17.7491 9.97326C17.6542 10.0682 17.5255 10.1215 17.3913 10.1215Z" fill="#EF8009"/>
</svg>
