<svg width="75" height="60" viewBox="0 0 75 60" fill="none" xmlns="http://www.w3.org/2000/svg">
<g clip-path="url(#clip0)">
<path d="M40.3123 17.6578V1.875C40.3123 1.37772 40.1147 0.900806 39.7631 0.549175C39.4115 0.197544 38.9346 0 38.4373 0L36.5623 0C36.065 0 35.5881 0.197544 35.2365 0.549175C34.8848 0.900806 34.6873 1.37772 34.6873 1.875V17.6578C35.536 17.1456 36.5085 16.8749 37.4998 16.8749C38.4911 16.8749 39.4636 17.1456 40.3123 17.6578ZM22.9146 52.0852C21.8615 51.0294 21.2701 49.599 21.2701 48.1078C21.2701 46.6166 21.8615 45.1863 22.9146 44.1305L23.9201 43.125H22.4998C21.0079 43.125 19.5772 42.5324 18.5223 41.4775C17.4674 40.4226 16.8748 38.9918 16.8748 37.5C16.8748 36.0082 17.4674 34.5774 18.5223 33.5225C19.5772 32.4676 21.0079 31.875 22.4998 31.875H23.9201L22.9146 30.8707C21.9214 29.8862 21.3305 28.5669 21.2572 27.1703C21.184 25.7736 21.6337 24.3998 22.5186 23.3168C23.4034 22.2338 24.66 21.5192 26.0432 21.3125C27.4264 21.1058 28.837 21.4218 29.9998 22.1988V18.9551C29.9998 14.693 26.3224 11.25 21.7967 11.25C16.6404 11.25 14.9998 14.5898 12.4076 18.648C7.04861 26.9998 3.01638 36.1316 0.454473 45.7184C0.150184 46.8502 -0.0027106 48.0174 -0.000214056 49.1895C-0.000214056 56.3672 7.324 61.5539 14.6775 59.5758L21.6502 57.716C24.0912 57.0681 26.2524 55.6376 27.8025 53.6438C26.9224 53.8053 26.0161 53.7477 25.1636 53.4758C24.3111 53.204 23.5387 52.7264 22.9146 52.0852ZM49.433 49.4332C49.7843 49.0816 49.9817 48.6049 49.9817 48.1078C49.9817 47.6107 49.7843 47.134 49.433 46.7824L48.4275 45.777C46.065 43.4145 47.7385 39.375 51.0795 39.375H52.4998C52.9971 39.375 53.474 39.1775 53.8256 38.8258C54.1772 38.4742 54.3748 37.9973 54.3748 37.5C54.3748 37.0027 54.1772 36.5258 53.8256 36.1742C53.474 35.8225 52.9971 35.625 52.4998 35.625H51.0795C47.7385 35.625 46.065 31.5855 48.4275 29.2242L49.433 28.2188C49.7847 27.8671 49.9822 27.3901 49.9822 26.8928C49.9822 26.3954 49.7847 25.9185 49.433 25.5668C49.0813 25.2151 48.6043 25.0176 48.107 25.0176C47.6097 25.0176 47.1327 25.2151 46.781 25.5668L45.7767 26.5723C43.4142 28.9348 39.3748 27.2613 39.3748 23.9203V22.5C39.3748 22.0027 39.1772 21.5258 38.8256 21.1742C38.474 20.8225 37.9971 20.625 37.4998 20.625C37.0025 20.625 36.5256 20.8225 36.174 21.1742C35.8223 21.5258 35.6248 22.0027 35.6248 22.5V23.9203C35.6248 27.2613 31.5853 28.9348 29.2228 26.5723L28.2185 25.5668C27.8669 25.2151 27.3899 25.0176 26.8926 25.0176C26.3952 25.0176 25.9183 25.2151 25.5666 25.5668C25.2149 25.9185 25.0173 26.3954 25.0173 26.8928C25.0173 27.3901 25.2149 27.8671 25.5666 28.2188L26.5721 29.2242C28.9345 31.5855 27.2611 35.625 23.9201 35.625H22.4998C22.0025 35.625 21.5256 35.8225 21.174 36.1742C20.8223 36.5258 20.6248 37.0027 20.6248 37.5C20.6248 37.9973 20.8223 38.4742 21.174 38.8258C21.5256 39.1775 22.0025 39.375 22.4998 39.375H23.9201C27.2611 39.375 28.9345 43.4145 26.5721 45.777L25.5666 46.7824C25.3883 46.9556 25.2463 47.1625 25.1487 47.3911C25.0511 47.6197 25 47.8654 24.9982 48.1139C24.9965 48.3624 25.0441 48.6088 25.1385 48.8388C25.2328 49.0687 25.3719 49.2776 25.5477 49.4533C25.7234 49.629 25.9324 49.768 26.1624 49.8622C26.3924 49.9565 26.6388 50.004 26.8873 50.0021C27.1358 50.0003 27.3815 49.949 27.61 49.8513C27.8386 49.7537 28.0454 49.6115 28.2185 49.4332L29.2228 48.4289C31.5853 46.0664 35.6248 47.7398 35.6248 51.0797V52.5C35.6248 52.9973 35.8223 53.4742 36.174 53.8258C36.5256 54.1775 37.0025 54.375 37.4998 54.375C37.9971 54.375 38.474 54.1775 38.8256 53.8258C39.1772 53.4742 39.3748 52.9973 39.3748 52.5V51.0797C39.3748 47.7398 43.4142 46.0664 45.7767 48.4289L46.781 49.4332C46.9551 49.6074 47.1619 49.7455 47.3894 49.8398C47.6169 49.934 47.8607 49.9825 48.107 49.9825C48.3533 49.9825 48.5971 49.934 48.8246 49.8398C49.0522 49.7455 49.2589 49.6074 49.433 49.4332ZM33.7498 35.625C33.3789 35.625 33.0164 35.515 32.7081 35.309C32.3997 35.103 32.1594 34.8101 32.0175 34.4675C31.8756 34.1249 31.8385 33.7479 31.9108 33.3842C31.9832 33.0205 32.1617 32.6864 32.424 32.4242C32.6862 32.1619 33.0203 31.9834 33.384 31.911C33.7477 31.8387 34.1247 31.8758 34.4673 32.0177C34.8099 32.1596 35.1028 32.4 35.3088 32.7083C35.5148 33.0166 35.6248 33.3792 35.6248 33.75C35.6248 34.2473 35.4272 34.7242 35.0756 35.0758C34.724 35.4275 34.2471 35.625 33.7498 35.625ZM41.2498 43.125C40.8789 43.125 40.5164 43.015 40.2081 42.809C39.8997 42.603 39.6594 42.3101 39.5175 41.9675C39.3756 41.6249 39.3385 41.2479 39.4108 40.8842C39.4832 40.5205 39.6617 40.1864 39.924 39.9242C40.1862 39.6619 40.5203 39.4834 40.884 39.411C41.2477 39.3387 41.6247 39.3758 41.9673 39.5177C42.3099 39.6596 42.6028 39.9 42.8088 40.2083C43.0148 40.5166 43.1248 40.8792 43.1248 41.25C43.1248 41.7473 42.9272 42.2242 42.5756 42.5758C42.224 42.9275 41.7471 43.125 41.2498 43.125ZM74.5451 45.7184C71.9832 36.1316 67.951 26.9998 62.592 18.648C59.9998 14.5898 58.3592 11.25 53.2029 11.25C48.6771 11.25 44.9998 14.693 44.9998 18.9551V22.2035C46.1626 21.4265 47.5732 21.1105 48.9564 21.3172C50.3396 21.5239 51.5961 22.2384 52.481 23.3215C53.3659 24.4045 53.8156 25.7783 53.7423 27.1749C53.6691 28.5716 53.0782 29.8908 52.0849 30.8754L51.0795 31.875H52.4998C53.9916 31.875 55.4224 32.4676 56.4773 33.5225C57.5322 34.5774 58.1248 36.0082 58.1248 37.5C58.1248 38.9918 57.5322 40.4226 56.4773 41.4775C55.4224 42.5324 53.9916 43.125 52.4998 43.125H51.0795L52.0849 44.1305C52.9453 44.9647 53.5147 46.0534 53.7093 47.2359C53.9039 48.4184 53.7133 49.6321 53.1656 50.698C52.6179 51.764 51.7422 52.6257 50.6675 53.1561C49.5929 53.6864 48.3762 53.8574 47.197 53.6438C48.7472 55.6376 50.9084 57.0681 53.3494 57.716L60.322 59.5758C67.6756 61.5539 74.9998 56.3672 74.9998 49.1895C75.0023 48.0174 74.8494 46.8502 74.5451 45.7184Z" fill="white"/>
</g>
<defs>
<clipPath id="clip0">
<rect width="75" height="60" fill="white"/>
</clipPath>
</defs>
</svg>
