<?xml version="1.0"?>
<svg xmlns="http://www.w3.org/2000/svg" id="Capa_1" enable-background="new 0 0 512.002 512.002" height="512px" viewBox="0 0 512.002 512.002" width="512px"><g><g><path d="m246.993 3.007-241 181c-6.625 4.975-7.961 14.378-2.986 21.002 4.983 6.634 14.388 7.954 21.002 2.986l6.992-5.251v294.257c0 8.284 6.716 15 15 15h420c8.284 0 15-6.716 15-15v-294.257l6.992 5.251c6.624 4.975 16.026 3.638 21.002-2.986 4.975-6.624 3.638-16.027-2.986-21.002l-55.008-41.313v-96.693c0-8.284-6.716-15-15-15h-60c-8.284 0-15 6.716-15 15v29.1l-95.992-72.094c-5.336-4.008-12.68-4.008-18.016 0zm144.009 57.994h30v59.162l-30-22.531zm60 119.212v301.788h-390v-301.788l195-146.452z" data-original="#000000" class="active-path" data-old_color="#000000" fill="#FFFFFF"/><path d="m256.001 271.001c-41.355 0-75 33.645-75 75 0 8.284 6.716 15 15 15h120c8.284 0 15-6.716 15-15 .001-41.355-33.645-75-75-75zm-42.43 60c6.191-17.461 22.874-30 42.43-30 19.557 0 36.239 12.539 42.43 30z" data-original="#000000" class="active-path" data-old_color="#000000" fill="#FFFFFF"/><path d="m301.002 226.001c0-24.813-20.188-45-45-45s-45 20.187-45 45 20.187 45 45 45 45-20.187 45-45zm-45.001 15c-8.271 0-15-6.729-15-15s6.729-15 15-15 15 6.729 15 15-6.728 15-15 15z" data-original="#000000" class="active-path" data-old_color="#000000" fill="#FFFFFF"/><path d="m213.223 157.915c8.894-2.969 18.145-5.007 27.496-6.06 8.232-.926 14.155-8.35 13.229-16.583s-8.352-14.161-16.583-13.229c-11.438 1.287-22.756 3.781-33.641 7.415-7.858 2.623-12.102 11.12-9.479 18.978 2.624 7.86 11.122 12.101 18.978 9.479z" data-original="#000000" class="active-path" data-old_color="#000000" fill="#FFFFFF"/><path d="m378.76 229.742c3.451 7.517 12.351 10.835 19.89 7.374 7.529-3.457 10.831-12.362 7.374-19.891-4.785-10.424-10.692-20.389-17.559-29.618-4.944-6.646-14.34-8.027-20.988-3.082-6.646 4.945-8.026 14.341-3.082 20.988 5.619 7.553 10.452 15.704 14.365 24.229z" data-original="#000000" class="active-path" data-old_color="#000000" fill="#FFFFFF"/><path d="m298.028 414.336c-8.911 2.916-18.174 4.9-27.532 5.897-8.237.878-14.204 8.268-13.326 16.505.876 8.224 8.255 14.206 16.505 13.326 11.445-1.22 22.777-3.648 33.683-7.217 7.874-2.576 12.168-11.048 9.591-18.921-2.576-7.873-11.049-12.17-18.921-9.59z" data-original="#000000" class="active-path" data-old_color="#000000" fill="#FFFFFF"/><path d="m296.529 157.186c8.952 2.813 17.643 6.588 25.83 11.219 7.165 4.054 16.337 1.583 20.44-5.671 4.079-7.211 1.54-16.363-5.671-20.441-10.016-5.665-20.649-10.284-31.605-13.727-7.904-2.483-16.324 1.91-18.807 9.813-2.484 7.903 1.91 16.323 9.813 18.807z" data-original="#000000" class="active-path" data-old_color="#000000" fill="#FFFFFF"/><path d="m214.717 414.576c-8.935-2.867-17.603-6.693-25.764-11.373-7.186-4.121-16.353-1.636-20.474 5.551s-1.635 16.353 5.551 20.474c9.982 5.724 20.588 10.405 31.521 13.913 7.87 2.527 16.33-1.797 18.865-9.7 2.532-7.888-1.811-16.334-9.699-18.865z" data-original="#000000" class="active-path" data-old_color="#000000" fill="#FFFFFF"/><path d="m405.817 269.237c-8.283.096-14.921 6.89-14.824 15.173.112 10.11-.879 20.038-2.903 29.625-1.711 8.106 3.473 16.064 11.579 17.775 8.121 1.711 16.067-3.487 17.774-11.579 2.577-12.207 3.69-24.463 3.548-36.17-.096-8.225-6.792-14.826-14.995-14.826-.06.001-.119.002-.179.002z" data-original="#000000" class="active-path" data-old_color="#000000" fill="#FFFFFF"/><path d="m165.879 165.153c-5.589-6.113-15.079-6.537-21.192-.948-8.477 7.751-16.167 16.411-22.855 25.738-4.828 6.732-3.284 16.104 3.448 20.931 6.702 4.806 16.082 3.314 20.931-3.448 5.479-7.639 11.777-14.732 18.721-21.082 6.113-5.59 6.537-15.078.947-21.191z" data-original="#000000" class="active-path" data-old_color="#000000" fill="#FFFFFF"/><path d="m345.414 407.376c5.555 6.147 15.04 6.625 21.187 1.072 8.521-7.702 16.262-16.316 23.005-25.604 4.867-6.704 3.378-16.084-3.326-20.951-6.707-4.868-16.085-3.376-20.951 3.326-5.522 7.607-11.861 14.663-18.843 20.971-6.147 5.555-6.627 15.04-1.072 21.186z" data-original="#000000" class="active-path" data-old_color="#000000" fill="#FFFFFF"/><path d="m132.913 341.538c-3.412-7.549-12.297-10.903-19.847-7.49-7.549 3.412-10.902 12.298-7.49 19.847 4.724 10.452 10.573 20.451 17.384 29.72 4.881 6.642 14.262 8.134 20.97 3.205 6.676-4.905 8.111-14.294 3.205-20.97-5.573-7.584-10.358-15.764-14.222-24.312z" data-original="#000000" class="active-path" data-old_color="#000000" fill="#FFFFFF"/><path d="m106.079 301.881c8.284-.042 14.966-6.791 14.925-15.075.04-.834-.356-12.917 2.748-28.065 1.664-8.116-3.567-16.043-11.683-17.706-8.117-1.664-16.043 3.567-17.706 11.683-3.727 18.182-3.337 33.782-3.359 34.239.042 8.259 6.749 14.925 14.999 14.925.024-.001.05-.001.076-.001z" data-original="#000000" class="active-path" data-old_color="#000000" fill="#FFFFFF"/></g></g> </svg>
