<?xml version="1.0"?>
<svg xmlns="http://www.w3.org/2000/svg" id="_x31_" enable-background="new 0 0 24 24" height="512px" viewBox="0 0 24 24" width="512px"><g><g><g><path d="m21.5 24h-19c-1.379 0-2.5-1.121-2.5-2.5v-19c0-1.379 1.121-2.5 2.5-2.5h19c1.379 0 2.5 1.121 2.5 2.5v19c0 1.379-1.121 2.5-2.5 2.5zm-19-23c-.827 0-1.5.673-1.5 1.5v19c0 .827.673 1.5 1.5 1.5h19c.827 0 1.5-.673 1.5-1.5v-19c0-.827-.673-1.5-1.5-1.5z" data-original="#000000" class="active-path" data-old_color="#000000" fill="#FFFFFF"/></g></g><g><g><path d="m8.5 11h-4c-.827 0-1.5-.673-1.5-1.5v-4c0-.827.673-1.5 1.5-1.5h4c.827 0 1.5.673 1.5 1.5v4c0 .827-.673 1.5-1.5 1.5zm-4-6c-.275 0-.5.225-.5.5v4c0 .275.225.5.5.5h4c.275 0 .5-.225.5-.5v-4c0-.275-.225-.5-.5-.5z" data-original="#000000" class="active-path" data-old_color="#000000" fill="#FFFFFF"/></g></g><g><g><path d="m20.5 6h-7c-.276 0-.5-.224-.5-.5s.224-.5.5-.5h7c.276 0 .5.224.5.5s-.224.5-.5.5z" data-original="#000000" class="active-path" data-old_color="#000000" fill="#FFFFFF"/></g></g><g><g><path d="m20.5 10h-7c-.276 0-.5-.224-.5-.5s.224-.5.5-.5h7c.276 0 .5.224.5.5s-.224.5-.5.5z" data-original="#000000" class="active-path" data-old_color="#000000" fill="#FFFFFF"/></g></g><g><g><path d="m6.5 9c-.128 0-.256-.049-.354-.146l-2-2c-.195-.195-.195-.512 0-.707s.512-.195.707 0l1.647 1.646 4.646-4.646c.195-.195.512-.195.707 0s.195.512 0 .707l-5 5c-.097.097-.225.146-.353.146z" data-original="#000000" class="active-path" data-old_color="#000000" fill="#FFFFFF"/></g></g><g><g><path d="m8.5 21h-4c-.827 0-1.5-.673-1.5-1.5v-4c0-.827.673-1.5 1.5-1.5h4c.827 0 1.5.673 1.5 1.5v4c0 .827-.673 1.5-1.5 1.5zm-4-6c-.275 0-.5.225-.5.5v4c0 .275.225.5.5.5h4c.275 0 .5-.225.5-.5v-4c0-.275-.225-.5-.5-.5z" data-original="#000000" class="active-path" data-old_color="#000000" fill="#FFFFFF"/></g></g><g><g><path d="m20.5 16h-7c-.276 0-.5-.224-.5-.5s.224-.5.5-.5h7c.276 0 .5.224.5.5s-.224.5-.5.5z" data-original="#000000" class="active-path" data-old_color="#000000" fill="#FFFFFF"/></g></g><g><g><path d="m20.5 20h-7c-.276 0-.5-.224-.5-.5s.224-.5.5-.5h7c.276 0 .5.224.5.5s-.224.5-.5.5z" data-original="#000000" class="active-path" data-old_color="#000000" fill="#FFFFFF"/></g></g></g> </svg>
