<svg width="10" height="10" viewBox="0 0 10 10" fill="none" xmlns="http://www.w3.org/2000/svg">
<path d="M4.67458 1.4059L3.33333 3.08256L1.99208 1.4059C1.93791 1.33893 1.86435 1.29036 1.78149 1.26684C1.69863 1.24332 1.61052 1.24601 1.52925 1.27453C1.44797 1.30305 1.37751 1.35601 1.32752 1.42615C1.27752 1.49629 1.25045 1.58018 1.25 1.66631V7.91631C1.25 8.37589 1.62375 8.74964 2.08333 8.74964H7.91667C8.37625 8.74964 8.75 8.37589 8.75 7.91631V1.66631C8.74955 1.58018 8.72248 1.49629 8.67248 1.42615C8.62249 1.35601 8.55203 1.30305 8.47075 1.27453C8.38948 1.24601 8.30137 1.24332 8.21851 1.26684C8.13565 1.29036 8.06209 1.33893 8.00792 1.4059L6.66667 3.08256L5.32542 1.4059C5.16667 1.2084 4.83333 1.2084 4.67458 1.4059ZM2.08333 7.91631V7.08298H7.91708V7.91631H2.08333ZM6.34125 4.01006C6.5 4.20798 6.83375 4.20798 6.9925 4.01006L7.91667 2.85423L7.91708 6.24964H2.08333V2.85423L3.00792 4.01006C3.16667 4.20798 3.50042 4.20798 3.65917 4.01006L5 2.3334L6.34125 4.01006Z" fill="white"/>
</svg>
