<svg width="18" height="24" viewBox="0 0 18 24" fill="none" xmlns="http://www.w3.org/2000/svg">
  <path d="M9 18V23M13 12C15.374 13.183 17 15.65 17 19V23H1V19C1 15.646 2.631 13.175 5 12H13ZM9 13C9.78793 13 10.5681 12.8448 11.2961 12.5433C12.0241 12.2417 12.6855 11.7998 13.2426 11.2426C13.7998 10.6855 14.2417 10.0241 14.5433 9.2961C14.8448 8.56815 15 7.78793 15 7C15 6.21207 14.8448 5.43185 14.5433 4.7039C14.2417 3.97595 13.7998 3.31451 13.2426 2.75736C12.6855 2.20021 12.0241 1.75825 11.2961 1.45672C10.5681 1.15519 9.78793 1 9 1C7.4087 1 5.88258 1.63214 4.75736 2.75736C3.63214 3.88258 3 5.4087 3 7C3 8.5913 3.63214 10.1174 4.75736 11.2426C5.88258 12.3679 7.4087 13 9 13V13ZM15 7C13.5 7 12 7.36 10 5C8 7.36 5.5 8 3 7H15ZM4 13L9.025 18.257L14 13H4Z" stroke="#848484" stroke-width="2"/>
  </svg>
