<svg width="50" height="50" viewBox="0 0 50 50" fill="none" xmlns="http://www.w3.org/2000/svg">
<path d="M45.1319 16.5235C44.0364 13.9089 42.4427 11.5323 40.4395 9.52641C38.4424 7.51698 36.07 5.91936 33.4571 4.82426C30.7804 3.69698 27.9044 3.11913 25.0001 3.12504H24.9024C21.9483 3.13969 19.0919 3.72563 16.4014 4.87797C13.811 5.9843 11.4609 7.58475 9.48249 9.58989C7.49875 11.5913 5.92327 13.9595 4.84382 16.5625C3.72328 19.2694 3.15551 22.173 3.17389 25.1026C3.18854 28.4913 3.99909 31.8555 5.51276 34.8633V42.2852C5.51276 43.5254 6.51862 44.5313 7.75397 44.5313H15.1661C18.1879 46.0561 21.5226 46.8584 24.9073 46.875H25.0098C27.9298 46.875 30.7569 46.3086 33.4229 45.2002C36.0226 44.1182 38.3861 42.5392 40.3809 40.5518C42.3926 38.5547 43.9747 36.2207 45.0831 33.6182C46.2305 30.9229 46.8165 28.0567 46.8311 25.0977C46.8409 22.1241 46.2647 19.2383 45.1319 16.5235ZM15.254 27.3438C13.9649 27.3438 12.9151 26.294 12.9151 25C12.9151 23.7061 13.9649 22.6563 15.254 22.6563C16.543 22.6563 17.5928 23.7061 17.5928 25C17.5928 26.294 16.5479 27.3438 15.254 27.3438ZM25.0001 27.3438C23.711 27.3438 22.6612 26.294 22.6612 25C22.6612 23.7061 23.711 22.6563 25.0001 22.6563C26.2891 22.6563 27.3389 23.7061 27.3389 25C27.3389 26.294 26.2891 27.3438 25.0001 27.3438ZM34.7462 27.3438C33.4571 27.3438 32.4073 26.294 32.4073 25C32.4073 23.7061 33.4571 22.6563 34.7462 22.6563C36.0352 22.6563 37.085 23.7061 37.085 25C37.085 26.294 36.0352 27.3438 34.7462 27.3438Z" fill="#EF8009"/>
</svg>
