<?xml version="1.0"?>
<svg xmlns="http://www.w3.org/2000/svg" xmlns:xlink="http://www.w3.org/1999/xlink" xmlns:svgjs="http://svgjs.com/svgjs" version="1.1" width="512" height="512" x="0" y="0" viewBox="0 0 512 512" style="enable-background:new 0 0 512 512" xml:space="preserve" class=""><g><title xmlns="http://www.w3.org/2000/svg">Customer Satisfaction Score</title><path xmlns="http://www.w3.org/2000/svg" d="M178.135,10A71.625,71.625,0,1,0,249.76,81.625,71.706,71.706,0,0,0,178.135,10Zm0,131.25A59.625,59.625,0,1,1,237.76,81.625,59.692,59.692,0,0,1,178.135,141.25Z" fill="#ffffff" data-original="#000000" style="" class=""/><path xmlns="http://www.w3.org/2000/svg" d="M178.135,358.75a71.625,71.625,0,1,0,71.625,71.625A71.706,71.706,0,0,0,178.135,358.75Zm0,131.25a59.625,59.625,0,1,1,59.625-59.625A59.692,59.692,0,0,1,178.135,490Z" fill="#ffffff" data-original="#000000" style="" class=""/><path xmlns="http://www.w3.org/2000/svg" d="M178.135,184.375A71.625,71.625,0,1,0,249.76,256,71.706,71.706,0,0,0,178.135,184.375Zm0,131.25A59.625,59.625,0,1,1,237.76,256,59.692,59.692,0,0,1,178.135,315.625Z" fill="#ffffff" data-original="#000000" style="" class=""/><circle xmlns="http://www.w3.org/2000/svg" cx="147.51" cy="57.625" r="11" fill="#ffffff" data-original="#000000" style="" class=""/><circle xmlns="http://www.w3.org/2000/svg" cx="207.51" cy="57.625" r="11" fill="#ffffff" data-original="#000000" style="" class=""/><path xmlns="http://www.w3.org/2000/svg" d="M208.135,79.625a6,6,0,0,0-6,6,24,24,0,0,1-48,0,6,6,0,0,0-12,0,36,36,0,0,0,72,0A6,6,0,0,0,208.135,79.625Z" fill="#ffffff" data-original="#000000" style="" class=""/><circle xmlns="http://www.w3.org/2000/svg" cx="148.135" cy="425.875" r="11" fill="#ffffff" data-original="#000000" style="" class=""/><circle xmlns="http://www.w3.org/2000/svg" cx="208.135" cy="425.875" r="11" fill="#ffffff" data-original="#000000" style="" class=""/><path xmlns="http://www.w3.org/2000/svg" d="M178.76,440.375a31.035,31.035,0,0,0-31,31,6,6,0,0,0,12,0,19,19,0,0,1,38,0,6,6,0,0,0,12,0A31.035,31.035,0,0,0,178.76,440.375Z" fill="#ffffff" data-original="#000000" style="" class=""/><circle xmlns="http://www.w3.org/2000/svg" cx="148.135" cy="239.5" r="11" fill="#ffffff" data-original="#000000" style="" class=""/><circle xmlns="http://www.w3.org/2000/svg" cx="208.135" cy="239.5" r="11" fill="#ffffff" data-original="#000000" style="" class=""/><path xmlns="http://www.w3.org/2000/svg" d="M203.135,271.809h-50a6,6,0,0,0,0,12h50a6,6,0,0,0,0-12Z" fill="#ffffff" data-original="#000000" style="" class=""/><path xmlns="http://www.w3.org/2000/svg" d="M384.135,90.484a6,6,0,0,0-6,6v19.141h-68v-68h68v2a6,6,0,0,0,12,0v-8a6,6,0,0,0-6-6h-80a6,6,0,0,0-6,6v80a6,6,0,0,0,6,6h80a6,6,0,0,0,6-6V96.484A6,6,0,0,0,384.135,90.484Z" fill="#ffffff" data-original="#000000" style="" class=""/><path xmlns="http://www.w3.org/2000/svg" d="M384.135,210h-80a6,6,0,0,0-6,6v80a6,6,0,0,0,6,6h80a6,6,0,0,0,6-6V216A6,6,0,0,0,384.135,210Zm-6,80h-68V222h68Z" fill="#ffffff" data-original="#000000" style="" class=""/><path xmlns="http://www.w3.org/2000/svg" d="M384.135,384.375h-80a6,6,0,0,0-6,6v80a6,6,0,0,0,6,6h80a6,6,0,0,0,6-6v-80A6,6,0,0,0,384.135,384.375Zm-6,80h-68v-68h68Z" fill="#ffffff" data-original="#000000" style="" class=""/><path xmlns="http://www.w3.org/2000/svg" d="M395.635,51.278,350.349,89.245,333.022,71.918a6,6,0,0,0-8.485,8.485l21.213,21.213a6,6,0,0,0,8.1.356l49.5-41.5a6,6,0,0,0-7.71-9.2Z" fill="#ffffff" data-original="#000000" style="" class=""/></g></svg>
