<?xml version="1.0"?>
<svg xmlns="http://www.w3.org/2000/svg" xmlns:xlink="http://www.w3.org/1999/xlink" xmlns:svgjs="http://svgjs.com/svgjs" version="1.1" width="512" height="512" x="0" y="0" viewBox="0 0 74 74" style="enable-background:new 0 0 512 512" xml:space="preserve" class=""><g><path xmlns="http://www.w3.org/2000/svg" d="m4 21h-2v-18a1 1 0 0 1 1-1h18v2h-17z" fill="#ef8009" data-original="#000000" style=""/><path xmlns="http://www.w3.org/2000/svg" d="m16-2.799h2v39.598h-2z" transform="matrix(.707 -.707 .707 .707 -7.042 17)" fill="#ef8009" data-original="#000000" style=""/><path xmlns="http://www.w3.org/2000/svg" d="m72 21h-2v-17h-17v-2h18a1 1 0 0 1 1 1z" fill="#ef8009" data-original="#000000" style=""/><path xmlns="http://www.w3.org/2000/svg" d="m37.201 16h39.598v2h-39.598z" transform="matrix(.707 -.707 .707 .707 4.674 45.284)" fill="#ef8009" data-original="#000000" style=""/><path xmlns="http://www.w3.org/2000/svg" d="m21 72h-18a1 1 0 0 1 -1-1v-18h2v17h17z" fill="#ef8009" data-original="#000000" style=""/><path xmlns="http://www.w3.org/2000/svg" d="m-2.799 56h39.598v2h-39.598z" transform="matrix(.707 -.707 .707 .707 -35.326 28.716)" fill="#ef8009" data-original="#000000" style=""/><path xmlns="http://www.w3.org/2000/svg" d="m71 72h-18v-2h17v-17h2v18a1 1 0 0 1 -1 1z" fill="#ef8009" data-original="#000000" style=""/><path xmlns="http://www.w3.org/2000/svg" d="m56 37.201h2v39.598h-2z" transform="matrix(.707 -.707 .707 .707 -23.61 57)" fill="#ef8009" data-original="#000000" style=""/></g></svg>
