<svg width="21" height="21" viewBox="0 0 21 21" fill="none" xmlns="http://www.w3.org/2000/svg">
  <path d="M3.99999 20.4999C3.35092 20.4997 2.71468 20.319 2.16238 19.9781C1.61007 19.6371 1.16345 19.1493 0.872424 18.5692C0.581399 17.989 0.457435 17.3393 0.514385 16.6928C0.571334 16.0462 0.806953 15.4282 1.19491 14.9079C1.58287 14.3875 2.10789 13.9853 2.71129 13.7461C3.31469 13.5069 3.97271 13.4403 4.61181 13.5536C5.25092 13.6669 5.84593 13.9557 6.33035 14.3877C6.81478 14.8197 7.16954 15.3778 7.35499 15.9999H13V13.9999H15V8.24186L12.757 5.99986H6.99999V7.99986H0.999989V1.99986H6.99999V3.99986H12.757L16 0.755859L20.243 4.99986L17 8.24086V13.9999H19V19.9999H13V17.9999H7.35499C7.13945 18.7222 6.69651 19.3557 6.09203 19.8062C5.48755 20.2566 4.75383 20.4999 3.99999 20.4999ZM3.99999 15.4999C3.80294 15.4999 3.60783 15.5388 3.42581 15.6143C3.24379 15.6897 3.07841 15.8003 2.93912 15.9397C2.79983 16.0791 2.68936 16.2445 2.61402 16.4266C2.53867 16.6087 2.49992 16.8038 2.49999 17.0009C2.50005 17.1979 2.53893 17.393 2.6144 17.575C2.68987 17.7571 2.80045 17.9224 2.93983 18.0617C3.07921 18.201 3.24466 18.3115 3.42673 18.3868C3.60881 18.4622 3.80394 18.5009 4.00099 18.5009C4.39895 18.5007 4.78055 18.3425 5.06186 18.061C5.34316 17.7795 5.50112 17.3978 5.50099 16.9999C5.50086 16.6019 5.34264 16.2203 5.06115 15.939C4.77966 15.6577 4.39795 15.4997 3.99999 15.4999ZM17 15.9999H15V17.9999H17V15.9999ZM16 3.58586L14.586 4.99986L16 6.41386L17.414 4.99986L16 3.58586ZM4.99999 3.99986H2.99999V5.99986H4.99999V3.99986Z" fill="#848484"/>
  </svg>
