<svg width="25" height="25" viewBox="0 0 25 25" fill="none" xmlns="http://www.w3.org/2000/svg">
<path d="M21.875 22.6558C21.7724 22.6559 21.6708 22.6358 21.576 22.5965C21.4812 22.5572 21.3952 22.4995 21.3228 22.4268L2.57277 3.67677C2.43244 3.52907 2.35537 3.33239 2.35797 3.12867C2.36058 2.92495 2.44267 2.73031 2.58673 2.58624C2.7308 2.44218 2.92544 2.36009 3.12916 2.35749C3.33288 2.35488 3.52956 2.43195 3.67726 2.57228L22.4273 21.3223C22.5365 21.4315 22.6108 21.5707 22.6409 21.7222C22.671 21.8737 22.6556 22.0307 22.5965 22.1734C22.5374 22.3162 22.4373 22.4381 22.3089 22.524C22.1805 22.6098 22.0295 22.6557 21.875 22.6558Z" fill="#FF8686"/>
<path d="M1.89062 9.60786C0.653809 10.7358 0 12.2758 0 14.062C0 15.8198 0.702148 17.4252 1.97705 18.583C3.20508 19.6982 4.86133 20.312 6.64062 20.312H16.0547C16.132 20.312 16.2076 20.2891 16.2719 20.2462C16.3362 20.2033 16.3863 20.1423 16.4159 20.0709C16.4455 19.9995 16.4532 19.9209 16.4381 19.845C16.423 19.7692 16.3857 19.6996 16.3311 19.645L4.92578 8.2397C4.87567 8.18949 4.81284 8.15387 4.74402 8.13666C4.6752 8.11946 4.603 8.12132 4.53516 8.14204C3.51562 8.45405 2.60742 8.95357 1.89062 9.60786Z" fill="#FF8686"/>
<path d="M23.271 19.1031C24.4023 18.2022 25 16.8648 25 15.2345C25 12.4234 22.9492 10.8116 20.7246 10.315C20.5783 10.2817 20.4446 10.2069 20.3397 10.0996C20.2347 9.99232 20.1629 9.85707 20.1328 9.71004C19.7578 7.91903 18.9389 6.3824 17.7314 5.21785C16.326 3.86671 14.4495 3.11607 12.5 3.12508C10.9804 3.12508 9.56443 3.56453 8.36814 4.39949C8.32076 4.4319 8.28111 4.47435 8.252 4.52383C8.2229 4.5733 8.20505 4.62858 8.19974 4.68574C8.19442 4.74289 8.20177 4.80052 8.22126 4.85451C8.24074 4.9085 8.27189 4.95754 8.31248 4.99813L22.5429 19.2286C22.6075 19.2932 22.6928 19.3332 22.7837 19.3415C22.8747 19.3498 22.9658 19.3259 23.041 19.274C23.1201 19.2193 23.1968 19.1624 23.271 19.1031Z" fill="#FF8686"/>
</svg>
