<svg width="21" height="21" viewBox="0 0 21 21" fill="none" xmlns="http://www.w3.org/2000/svg">
<path d="M18.6539 17.5239L13.328 12.198C14.1545 11.1296 14.6016 9.82324 14.6016 8.44922C14.6016 6.80449 13.9597 5.2623 12.7989 4.09951C11.6382 2.93672 10.0919 2.29688 8.44922 2.29688C6.80654 2.29688 5.26025 2.93877 4.09951 4.09951C2.93672 5.26025 2.29688 6.80449 2.29688 8.44922C2.29688 10.0919 2.93877 11.6382 4.09951 12.7989C5.26025 13.9617 6.80449 14.6016 8.44922 14.6016C9.82324 14.6016 11.1275 14.1545 12.196 13.3301L17.5219 18.6539C17.5375 18.6695 17.556 18.6819 17.5764 18.6904C17.5969 18.6988 17.6187 18.7032 17.6408 18.7032C17.6629 18.7032 17.6848 18.6988 17.7052 18.6904C17.7256 18.6819 17.7442 18.6695 17.7598 18.6539L18.6539 17.7618C18.6695 17.7462 18.6819 17.7277 18.6904 17.7072C18.6988 17.6868 18.7032 17.665 18.7032 17.6429C18.7032 17.6208 18.6988 17.5989 18.6904 17.5785C18.6819 17.5581 18.6695 17.5395 18.6539 17.5239ZM11.6977 11.6977C10.8281 12.5651 9.67559 13.043 8.44922 13.043C7.22285 13.043 6.07031 12.5651 5.20078 11.6977C4.3333 10.8281 3.85547 9.67559 3.85547 8.44922C3.85547 7.22285 4.3333 6.06826 5.20078 5.20078C6.07031 4.3333 7.22285 3.85547 8.44922 3.85547C9.67559 3.85547 10.8302 4.33125 11.6977 5.20078C12.5651 6.07031 13.043 7.22285 13.043 8.44922C13.043 9.67559 12.5651 10.8302 11.6977 11.6977Z" fill="#808080"/>
</svg>
