<svg width="23" height="23" viewBox="0 0 23 23" fill="none" xmlns="http://www.w3.org/2000/svg">
<path d="M11.4361 11.0527C13.1611 11.0527 14.5028 9.64714 14.5028 7.92214C14.5028 6.19714 13.0972 4.85547 11.3722 4.85547C9.64724 4.85547 8.30557 6.26102 8.30557 7.92214C8.30557 9.64714 9.71113 11.0527 11.4361 11.0527ZM11.3722 6.13325C11.4361 6.13325 11.4361 6.13325 11.3722 6.13325C12.3945 6.13325 13.225 6.9638 13.225 7.98602C13.225 9.00825 12.3945 9.77491 11.3722 9.77491C10.35 9.77491 9.58335 8.94436 9.58335 7.98602C9.58335 6.9638 10.4139 6.13325 11.3722 6.13325Z" fill="black"/>
<path d="M20.8917 10.6694C19.6778 9.5833 18.0806 9.0083 16.4195 9.07219H15.9083C15.7806 9.5833 15.5889 10.0305 15.3333 10.4139C15.7167 10.35 16.0361 10.35 16.4195 10.35C17.6333 10.2861 18.8472 10.6694 19.8056 11.3722V15.9722H21.0833V10.8611L20.8917 10.6694Z" fill="black"/>
<path d="M14.95 4.98367C15.2695 4.217 16.1639 3.83367 16.9945 4.15311C17.7611 4.47256 18.1445 5.367 17.825 6.19756C17.5695 6.77256 16.9945 7.15589 16.4195 7.15589C16.2917 7.15589 16.1 7.15589 15.9722 7.092C16.0361 7.41145 16.0361 7.73089 16.0361 7.98645V8.36978C16.1639 8.36978 16.2917 8.43367 16.4195 8.43367C18.0167 8.43367 19.2945 7.15589 19.2945 5.62256C19.2945 4.02534 18.0167 2.74756 16.4834 2.74756C15.4611 2.74756 14.5667 3.25867 14.0556 4.15311C14.375 4.34478 14.6945 4.60034 14.95 4.98367Z" fill="black"/>
<path d="M7.66669 10.4778C7.41113 10.0945 7.21947 9.64727 7.09169 9.13616H6.58058C4.91947 9.07227 3.32224 9.64727 2.10835 10.6695L1.91669 10.8612V15.9723H3.19446V11.3723C4.21669 10.6695 5.36669 10.2862 6.58058 10.3501C6.96391 10.3501 7.34724 10.4139 7.66669 10.4778Z" fill="black"/>
<path d="M6.58057 8.36944C6.70835 8.36944 6.83613 8.36944 6.96391 8.30555V7.92221C6.96391 7.60277 6.96391 7.28333 7.0278 7.02777C6.90002 7.09166 6.70835 7.09166 6.58057 7.09166C5.75002 7.09166 5.04724 6.38888 5.04724 5.55833C5.04724 4.72777 5.75002 4.02499 6.58057 4.02499C7.21946 4.02499 7.79446 4.40833 8.05002 4.98333C8.30557 4.66388 8.68891 4.34444 9.00835 4.08888C8.1778 2.74722 6.4528 2.29999 5.11113 3.13055C3.76946 3.9611 3.32224 5.6861 4.1528 7.02777C4.66391 7.85833 5.55835 8.36944 6.58057 8.36944Z" fill="black"/>
<path d="M16.675 14.5026L16.5472 14.3109C15.2694 12.9054 13.4806 12.0748 11.5639 12.1387C9.64722 12.0748 7.79444 12.9054 6.51666 14.3109L6.38889 14.5026V19.3581C6.38889 19.9331 6.83611 20.4442 7.475 20.4442H15.6528C16.2278 20.4442 16.7389 19.9331 16.7389 19.3581V14.5026H16.675ZM15.3972 19.1665H7.66666V14.9498C8.68889 13.9276 10.0944 13.4165 11.5639 13.4165C12.9694 13.3526 14.375 13.9276 15.3972 14.9498V19.1665Z" fill="black"/>
</svg>
