<svg enable-background="new 0 0 59 59" viewBox="0 0 59 59" xmlns="http://www.w3.org/2000/svg"><path d="m47.5 47h-34v-22c0-9.4 7.6-17 17-17 9.4 0 17 7.6 17 17z" fill="#e64c3c"/><path d="m10.5 47h40v12h-40z" fill="#556080"/><g fill="#f0c419"><path d="m48.8 4.3-3 3c-.4.4-.4 1 0 1.4.2.2.4.3.7.3s.5-.1.7-.3l3-3c.4-.4.4-1 0-1.4s-1-.4-1.4 0z"/><path d="m29.5 0c-.6 0-1 .4-1 1v3c0 .6.4 1 1 1s1-.4 1-1v-3c0-.6-.4-1-1-1z"/><path d="m52.5 24h3c.6 0 1-.4 1-1s-.4-1-1-1h-3c-.6 0-1 .4-1 1s.4 1 1 1z"/><path d="m55.5 38h-3c-.6 0-1 .4-1 1s.4 1 1 1h3c.6 0 1-.4 1-1s-.4-1-1-1z"/><path d="m10.2 4.3c-.4-.4-1-.4-1.4 0s-.4 1 0 1.4l3 3c.2.2.4.3.7.3s.5-.1.7-.3c.4-.4.4-1 0-1.4z"/><path d="m6.5 22h-3c-.6 0-1 .4-1 1s.4 1 1 1h3c.6 0 1-.4 1-1s-.4-1-1-1z"/><path d="m6.5 38h-3c-.6 0-1 .4-1 1s.4 1 1 1h3c.6 0 1-.4 1-1s-.4-1-1-1z"/></g><path d="m30.5 8c-9.4 0-17 7.6-17 17v22h17z" fill="#ff5364"/><path d="m10.5 47h20v12h-20z" fill="#8697cb"/></svg>