<svg enable-background="new 0 0 512.1 512.1" viewBox="0 0 512.1 512.1" xmlns="http://www.w3.org/2000/svg"><g fill="#00a650"><path d="m299.5 434.9c11.4-2.7 22.4-6.6 33.1-11.5l-13.3-29.1c-8.8 4-17.9 7.2-27.3 9.4z"/><path d="m92.5 171.7c-5.4 10.4-9.7 21.3-13 32.5l30.7 9c2.7-9.3 6.3-18.2 10.8-26.8z"/><path d="m440.1 256h-32c0 9.7-.9 19.3-2.7 28.8l31.4 6c2.2-11.4 3.3-23.1 3.3-34.8z"/><path d="m366.1 360.9 23.2 22.1c8.1-8.5 15.3-17.7 21.6-27.5l-26.9-17.3c-5.3 8.1-11.3 15.7-17.9 22.7z"/><path d="m229.9 438.2 4.5-31.7c-9.6-1.4-19-3.6-28.1-6.8l-10.4 30.3c11 3.8 22.4 6.5 34 8.2z"/><path d="m263.3 104.3 1.5-32c-11.7-.5-23.4 0-34.9 1.6l4.5 31.8c9.6-1.4 19.3-1.9 28.9-1.4z"/><path d="m362.8 106.1c-9.5-6.8-19.7-12.7-30.3-17.5l-13.3 29.1c8.8 4 17.2 8.9 25 14.5z"/><path d="m135.6 395.1 21-24.2c-7.3-6.3-14-13.3-20-20.9l-25.2 19.8c7.3 9.1 15.3 17.6 24.2 25.3z"/><path d="m72.9 273.5c1.1 11.6 3.3 23.1 6.6 34.3l30.7-9c-2.7-9.3-4.5-18.8-5.5-28.4z"/><path d="m180.1 124.3-16-27.7c-10.1 5.9-19.7 12.7-28.5 20.3l21 24.2c7.2-6.3 15.1-11.9 23.5-16.8z"/><path d="m368.1 256c0-61.9-50.1-112-112-112s-112 50.1-112 112 50.1 112 112 112c61.8-.1 111.9-50.2 112-112zm-33.6 16c-8.8 43.3-51.1 71.2-94.4 62.4s-71.2-51.1-62.4-94.4 51.1-71.2 94.4-62.4c31.4 6.4 56 31 62.4 62.4h-78.4v32z"/><path d="m512.1 64h-112v112h32v-58.1c31.2 39.3 48.1 87.9 48 138.1.1 123.8-100.2 224.1-224 224.2s-224.2-100.2-224.2-224 100.2-224.1 224-224.2c37 0 73.4 9.1 105.9 26.6l15.2-28.2c-124.6-66.8-279.8-19.9-346.6 104.7s-19.9 279.8 104.7 346.6 279.8 19.9 346.6-104.7c19.9-37.2 30.4-78.8 30.4-121 .1-58.2-19.8-114.8-56.5-160h56.5z"/></g></svg>