<?xml version="1.0" encoding="utf-8"?>
<!-- Generator: Adobe Illustrator 23.0.4, SVG Export Plug-In . SVG Version: 6.00 Build 0)  -->
<svg version="1.1" id="Layer_1" xmlns="http://www.w3.org/2000/svg" xmlns:xlink="http://www.w3.org/1999/xlink" x="0px" y="0px"
	 viewBox="0 0 4673.8 511" style="enable-background:new 0 0 4673.8 511;" xml:space="preserve">
<style type="text/css">
	.st0{fill:#21ABE8;}
	.st1{clip-path:url(#SVGID_2_);}
	.st2{fill:#5FD6FF;}
	.st3{fill:#FFFFFF;stroke:#FFFFFF;stroke-width:5;stroke-miterlimit:10;}
	.st4{fill:#FFFFFF;}
	.st5{opacity:0.8;fill:none;stroke:#A9EDFF;stroke-width:10;stroke-miterlimit:10;}
	.st6{opacity:0.6;fill:none;stroke:#A9EDFF;stroke-width:10;stroke-miterlimit:10;}
	.st7{opacity:0.4;fill:none;stroke:#A9EDFF;stroke-width:10;stroke-miterlimit:10;}
	.st8{opacity:0.3;fill:none;stroke:#A9EDFF;stroke-width:10;stroke-miterlimit:10;}
	.st9{opacity:0.2;fill:none;stroke:#A9EDFF;stroke-width:10;stroke-miterlimit:10;}
	.st10{opacity:0.1;fill:none;stroke:#A9EDFF;stroke-width:10;stroke-miterlimit:10;}
	.st11{fill:#222222;}
</style>
<path class="st0" d="M685.4,506.5c72.9,0,132-59.1,132-132c0-62.6-43.6-115-102.1-128.5C714,113.5,606.3,6.5,473.5,6.5
	c-91.1,0-170.5,50.5-211.7,124.9c-12.5-5.4-26.3-8.4-40.9-8.4c-52.3,0-95.5,39-102.1,89.5C50.8,226-0.5,286-0.5,358.1
	c0,82,66.5,148.4,148.4,148.4C170.8,506.5,669.7,506.5,685.4,506.5z"/>
<g>
	<defs>
		<path id="SVGID_1_" d="M685.4,506.5c72.9,0,132-59.1,132-132c0-62.6-43.6-115-102.1-128.5C714,113.5,606.3,6.5,473.5,6.5
			c-91.1,0-170.5,50.5-211.7,124.9c-12.5-5.4-26.3-8.4-40.9-8.4c-52.3,0-95.5,39-102.1,89.5C50.8,226-0.5,286-0.5,358.1
			c0,82,66.5,148.4,148.4,148.4C170.8,506.5,669.7,506.5,685.4,506.5z"/>
	</defs>
	<clipPath id="SVGID_2_">
		<use xlink:href="#SVGID_1_"  style="overflow:visible;"/>
	</clipPath>
	<g id="knob" class="st1">
		<circle class="st2" cx="473.9" cy="247.6" r="53.3"/>
		<g>
			<path class="st3" d="M473.9,87.6c-88.2,0-160,71.8-160,160s71.8,160,160,160s160-71.8,160-160S562.2,87.6,473.9,87.6z
				 M473.9,380.9c-69,0-125.9-52.7-132.7-120h12.7c7.4,0,13.3-6,13.3-13.3s-6-13.3-13.3-13.3h-12.7c2.7-26.8,13.3-51.2,29.5-71
				l8.9,8.9c2.6,2.6,6,3.9,9.4,3.9c3.4,0,6.8-1.3,9.4-3.9c5.2-5.2,5.2-13.7,0-18.9l-8.9-8.9c19.8-16.2,44.2-26.8,71-29.5v12.7
				c0,7.4,6,13.3,13.3,13.3s13.3-6,13.3-13.3v-12.7c26.8,2.7,51.2,13.3,71,29.5l-8.9,8.9c-5.2,5.2-5.2,13.6,0,18.9
				c2.6,2.6,6,3.9,9.4,3.9c3.4,0,6.8-1.3,9.4-3.9l8.9-8.9c16.2,19.8,26.8,44.2,29.5,71h-12.7c-7.4,0-13.3,6-13.3,13.3
				s6,13.3,13.3,13.3h12.7C599.9,328.2,542.9,380.9,473.9,380.9z"/>
			<path class="st4" d="M473.9,180.9c-36.8,0-66.7,29.9-66.7,66.7s29.9,66.7,66.7,66.7s66.7-29.9,66.7-66.7S510.7,180.9,473.9,180.9
				z M473.9,287.6c-22.1,0-40-17.9-40-40s17.9-40,40-40c6.2,0,12,1.4,17.2,3.9l-13.3,13.3c-5.2,5.2-5.2,13.6,0,18.9
				c2.6,2.6,6,3.9,9.4,3.9c3.4,0,6.8-1.3,9.4-3.9l13.3-13.3c2.5,5.2,3.9,11,3.9,17.2C513.9,269.6,496,287.6,473.9,287.6L473.9,287.6
				z"/>
		</g>
	</g>
	<g id="lines" class="st1">
		<circle class="st5" cx="473.9" cy="247.6" r="234"/>
		<circle class="st6" cx="473.9" cy="247.6" r="284"/>
		<circle class="st7" cx="473.9" cy="247.6" r="334"/>
		<circle class="st8" cx="473.9" cy="247.6" r="384"/>
		<circle class="st9" cx="473.9" cy="247.6" r="434"/>
		<circle class="st10" cx="473.9" cy="247.6" r="484"/>
	</g>
</g>
<g id="typo">
	<path class="st11" d="M993.8,307.9c0-7.7-2.7-13.8-8.2-18.1c-5.5-4.3-15.1-8.8-28.8-13.4c-13.8-4.6-25-9.1-33.7-13.4
		c-28.4-14-42.6-33.1-42.6-57.5c0-12.1,3.5-22.9,10.6-32.2c7.1-9.3,17.1-16.5,30-21.7c13-5.2,27.5-7.8,43.7-7.8
		c15.8,0,29.9,2.8,42.4,8.4c12.5,5.6,22.2,13.6,29.1,24c6.9,10.4,10.4,22.3,10.4,35.6H994c0-8.9-2.7-15.9-8.2-20.8
		c-5.5-4.9-12.9-7.4-22.2-7.4c-9.4,0-16.9,2.1-22.4,6.2c-5.5,4.2-8.2,9.5-8.2,15.9c0,5.6,3,10.7,9,15.3c6,4.6,16.6,9.3,31.8,14.2
		c15.2,4.9,27.6,10.1,37.3,15.7c23.7,13.7,35.5,32.5,35.5,56.5c0,19.2-7.2,34.2-21.7,45.2c-14.5,10.9-34.3,16.4-59.5,16.4
		c-17.8,0-33.9-3.2-48.3-9.6c-14.4-6.4-25.2-15.1-32.5-26.2c-7.3-11.1-10.9-23.9-10.9-38.3h53c0,11.7,3,20.4,9.1,26
		c6.1,5.6,15.9,8.4,29.6,8.4c8.7,0,15.6-1.9,20.7-5.6C991.3,320,993.8,314.8,993.8,307.9z"/>
	<path class="st11" d="M1143.2,146.9l48.9,152.5l48.8-152.5h69.6v219.3h-53V315l5.1-104.8l-53,156h-34.9L1121.5,210l5.1,105v51.2
		h-52.9V146.9H1143.2z"/>
	<path class="st11" d="M1471.4,325.2h-72.4l-12.6,41h-56.5l80.4-219.3h49.7l81,219.3h-56.8L1471.4,325.2z M1411.6,284.4h47.1
		l-23.6-76L1411.6,284.4z"/>
	<path class="st11" d="M1638.4,288.6h-28.6v77.6h-52.9V146.9h86.3c26,0,46.3,5.8,61,17.3c14.7,11.5,22,27.8,22,48.9
		c0,15.2-3.1,27.9-9.3,37.9c-6.2,10-15.8,18.2-29,24.4l45.8,88.5v2.3h-56.6L1638.4,288.6z M1609.8,248h33.4c10,0,17.6-2.6,22.7-7.9
		c5.1-5.3,7.6-12.7,7.6-22.1c0-9.5-2.6-16.9-7.7-22.3c-5.1-5.4-12.6-8.1-22.6-8.1h-33.4V248z"/>
	<path class="st11" d="M1922.7,187.8h-65.8v178.4H1804V187.8h-64.6v-40.8h183.3V187.8z"/>
	<path class="st11" d="M2190.1,292c-0.7,15.3-4.8,28.7-12.3,40.4s-18.1,20.8-31.7,27.2c-13.6,6.4-29.1,9.6-46.6,9.6
		c-28.8,0-51.5-9.4-68.1-28.2c-16.6-18.8-24.8-45.3-24.8-79.5v-10.8c0-21.5,3.7-40.3,11.2-56.4c7.5-16.1,18.2-28.6,32.3-37.3
		c14.1-8.8,30.3-13.2,48.8-13.2c26.6,0,48,7,64.2,21c16.2,14,25.3,33.3,27.6,57.9h-52.7c-0.4-13.4-3.8-22.9-10.1-28.8
		c-6.3-5.8-16-8.7-28.9-8.7c-13.2,0-22.8,4.9-28.9,14.8c-6.1,9.8-9.3,25.6-9.6,47.1v15.5c0,23.4,2.9,40.1,8.8,50.1
		c5.9,10,16,15.1,30.3,15.1c12.1,0,21.4-2.9,27.9-8.6c6.4-5.7,9.8-14.8,10.2-27.3H2190.1z"/>
	<path class="st11" d="M2400.8,261.1c0,21.4-4,40.3-11.9,56.8c-7.9,16.5-19.2,29.1-33.8,38c-14.6,8.9-31.2,13.3-49.9,13.3
		c-18.7,0-35.2-4.3-49.7-12.9c-14.5-8.6-25.7-20.9-33.8-36.8c-8.1-16-12.3-34.3-12.7-55v-12.3c0-21.5,3.9-40.4,11.8-56.8
		c7.9-16.4,19.2-29.1,33.9-38c14.7-8.9,31.4-13.4,50.2-13.4c18.6,0,35.1,4.4,49.7,13.3c14.6,8.8,25.9,21.4,34,37.7
		c8.1,16.3,12.2,35,12.3,56.1V261.1z M2347,251.9c0-21.8-3.6-38.3-10.9-49.6c-7.3-11.3-17.7-16.9-31.2-16.9
		c-26.5,0-40.5,19.9-42,59.6l-0.2,16.1c0,21.5,3.6,38,10.7,49.5c7.1,11.5,17.7,17.3,31.8,17.3c13.4,0,23.6-5.7,30.9-17
		c7.2-11.3,10.9-27.7,11-48.9V251.9z"/>
	<path class="st11" d="M2611.2,366.2h-52.6l-77.7-136.4v136.4h-52.9V146.9h52.9l77.6,136.4V146.9h52.7V366.2z"/>
	<path class="st11" d="M2812.4,187.8h-65.8v178.4h-52.9V187.8h-64.6v-40.8h183.3V187.8z"/>
	<path class="st11" d="M2916.1,288.6h-28.6v77.6h-52.9V146.9h86.3c26,0,46.3,5.8,61,17.3c14.7,11.5,22,27.8,22,48.9
		c0,15.2-3.1,27.9-9.3,37.9c-6.2,10-15.8,18.2-29,24.4l45.8,88.5v2.3h-56.6L2916.1,288.6z M2887.5,248h33.4c10,0,17.6-2.6,22.7-7.9
		c5.1-5.3,7.6-12.7,7.6-22.1c0-9.5-2.6-16.9-7.7-22.3c-5.1-5.4-12.6-8.1-22.6-8.1h-33.4V248z"/>
	<path class="st11" d="M3221.5,261.1c0,21.4-4,40.3-11.9,56.8c-7.9,16.5-19.2,29.1-33.8,38c-14.6,8.9-31.2,13.3-49.9,13.3
		c-18.7,0-35.2-4.3-49.7-12.9c-14.5-8.6-25.7-20.9-33.8-36.8c-8.1-16-12.3-34.3-12.7-55v-12.3c0-21.5,3.9-40.4,11.8-56.8
		c7.9-16.4,19.2-29.1,33.9-38c14.7-8.9,31.4-13.4,50.2-13.4c18.6,0,35.1,4.4,49.7,13.3c14.6,8.8,25.9,21.4,34,37.7
		c8.1,16.3,12.2,35,12.3,56.1V261.1z M3167.8,251.9c0-21.8-3.6-38.3-10.9-49.6c-7.3-11.3-17.7-16.9-31.2-16.9
		c-26.5,0-40.5,19.9-42,59.6l-0.2,16.1c0,21.5,3.6,38,10.7,49.5c7.1,11.5,17.7,17.3,31.8,17.3c13.4,0,23.6-5.7,30.9-17
		c7.2-11.3,10.9-27.7,11-48.9V251.9z"/>
	<path class="st11" d="M3301.6,325.5h92v40.7h-144.9V146.9h52.9V325.5z"/>
	<path class="st11" d="M3605.8,307.9c0-7.7-2.7-13.8-8.2-18.1c-5.5-4.3-15.1-8.8-28.8-13.4c-13.8-4.6-25-9.1-33.7-13.4
		c-28.4-14-42.6-33.1-42.6-57.5c0-12.1,3.5-22.9,10.6-32.2c7.1-9.3,17.1-16.5,30-21.7c13-5.2,27.5-7.8,43.7-7.8
		c15.8,0,29.9,2.8,42.4,8.4c12.5,5.6,22.2,13.6,29.1,24c6.9,10.4,10.4,22.3,10.4,35.6H3606c0-8.9-2.7-15.9-8.2-20.8
		c-5.5-4.9-12.9-7.4-22.2-7.4c-9.4,0-16.9,2.1-22.4,6.2c-5.5,4.2-8.2,9.5-8.2,15.9c0,5.6,3,10.7,9,15.3c6,4.6,16.6,9.3,31.8,14.2
		c15.2,4.9,27.6,10.1,37.3,15.7c23.7,13.7,35.5,32.5,35.5,56.5c0,19.2-7.2,34.2-21.7,45.2c-14.5,10.9-34.3,16.4-59.5,16.4
		c-17.8,0-33.9-3.2-48.3-9.6c-14.4-6.4-25.2-15.1-32.5-26.2c-7.3-11.1-10.9-23.9-10.9-38.3h53c0,11.7,3,20.4,9.1,26
		c6.1,5.6,15.9,8.4,29.6,8.4c8.7,0,15.6-1.9,20.7-5.6C3603.3,320,3605.8,314.8,3605.8,307.9z"/>
	<path class="st11" d="M3766.1,242.1l40.4-95.2h57.1l-70.6,140.5v78.8h-53.6v-78.8l-70.5-140.5h56.8L3766.1,242.1z"/>
	<path class="st11" d="M3990.1,307.9c0-7.7-2.7-13.8-8.2-18.1c-5.5-4.3-15.1-8.8-28.8-13.4c-13.8-4.6-25-9.1-33.7-13.4
		c-28.4-14-42.6-33.1-42.6-57.5c0-12.1,3.5-22.9,10.6-32.2c7.1-9.3,17.1-16.5,30-21.7c13-5.2,27.5-7.8,43.7-7.8
		c15.8,0,29.9,2.8,42.4,8.4c12.5,5.6,22.2,13.6,29.1,24c6.9,10.4,10.4,22.3,10.4,35.6h-52.7c0-8.9-2.7-15.9-8.2-20.8
		c-5.5-4.9-12.9-7.4-22.2-7.4c-9.4,0-16.9,2.1-22.4,6.2c-5.5,4.2-8.2,9.5-8.2,15.9c0,5.6,3,10.7,9,15.3c6,4.6,16.6,9.3,31.8,14.2
		c15.2,4.9,27.6,10.1,37.3,15.7c23.7,13.7,35.5,32.5,35.5,56.5c0,19.2-7.2,34.2-21.7,45.2c-14.5,10.9-34.3,16.4-59.5,16.4
		c-17.8,0-33.9-3.2-48.3-9.6c-14.4-6.4-25.2-15.1-32.5-26.2c-7.3-11.1-10.9-23.9-10.9-38.3h53c0,11.7,3,20.4,9.1,26
		c6.1,5.6,15.9,8.4,29.6,8.4c8.7,0,15.6-1.9,20.7-5.6C3987.6,320,3990.1,314.8,3990.1,307.9z"/>
	<path class="st11" d="M4242.2,187.8h-65.8v178.4h-52.9V187.8H4059v-40.8h183.3V187.8z"/>
	<path class="st11" d="M4400.5,273.1h-83.1v52.4h98.2v40.7h-151V146.9h151.3v40.8h-98.5V234h83.1V273.1z"/>
	<path class="st11" d="M4506.5,146.9l48.9,152.5l48.8-152.5h69.6v219.3h-53V315l5.1-104.8l-53,156H4538L4484.8,210l5.1,105v51.2
		h-52.9V146.9H4506.5z"/>
</g>
</svg>
