<svg enable-background="new 0 0 4413.8 511" viewBox="0 0 4413.8 511" xmlns="http://www.w3.org/2000/svg"><path d="m490.8 256.5c6-15.4 10.8-31 14.2-46.4 7.2-32.6 8-63.3 2.3-91.1-6.1-29.9-19.3-55.1-39.2-75.1-20-19.9-45.2-33.1-75.1-39.2-27.8-5.7-58.5-4.9-91.1 2.3-15.4 3.4-31 8.2-46.4 14.2-15.4-6-30.9-10.8-46.4-14.2-32.6-7.2-63.3-8-91.1-2.3-29.9 6.1-55.1 19.3-75.1 39.2-19.9 20-33.1 45.2-39.2 75.1-5.7 27.8-4.9 58.5 2.3 91.1 3.4 15.4 8.2 30.9 14.2 46.4-6 15.4-10.8 31-14.2 46.4-7.2 32.6-8 63.3-2.3 91.1 6.1 29.9 19.3 55.1 39.2 75.1 19.9 19.9 45.2 33.1 75.1 39.2 12.3 2.5 25.1 3.7 38.3 3.7 16.9 0 34.5-2 52.8-6 15.4-3.4 31-8.2 46.4-14.2 15.4 6 30.9 10.8 46.4 14.2 18.3 4 35.9 6 52.8 6 13.3 0 26.1-1.2 38.3-3.7 29.9-6.1 55.1-19.3 75.1-39.2 19.9-19.9 33.1-45.2 39.2-75.1 5.7-27.8 4.9-58.5-2.3-91.1-3.4-15.5-8.2-31-14.2-46.4zm-180.3-210.5c15.6-3.4 30.4-5.1 44.4-5.1 35 0 64.3 10.6 85 31.3 28.8 28.8 38.1 74.8 26.1 129.3-.2.9-.4 1.9-.6 2.8-18.3-31.2-41.5-61.3-69-88.7-27.4-27.4-57.5-50.7-88.7-69 .9-.2 1.8-.4 2.8-.6zm-110 421c-15.6 3.4-30.4 5.1-44.4 5.1-35 0-64.3-10.6-85-31.3-28.8-28.8-38.1-74.8-26.1-129.3.2-.9.4-1.9.6-2.8 18.3 31.2 41.5 61.3 69 88.7 27.4 27.4 57.5 50.7 88.7 69-.9.2-1.8.4-2.8.6zm239.3-26.2c-28.8 28.9-74.8 38.2-129.3 26.2-.9-.2-1.8-.4-2.8-.6 15.6-9.2 31-19.5 45.8-31.1-12.1-6.4-21.8-16.8-27.2-29.4-22.8 17.4-46.7 31.8-70.8 42.7-39.5-17.8-78.2-44.9-112.7-79.3-34.4-34.4-61.5-73.1-79.3-112.7 11-24.4 25.5-48.5 43.1-71.5-12.8-5-23.5-14.3-30.3-26.1-11.4 14.7-21.7 29.9-30.7 45.4-.2-.9-.4-1.8-.6-2.8-12-54.6-2.7-100.6 26.2-129.4 20.6-20.6 50-31.3 85-31.3 14 0 28.8 1.7 44.4 5.1.9.2 1.8.4 2.8.6-15.4 9-30.6 19.3-45.2 30.6 11.8 6.8 21.1 17.5 26.1 30.3 22.9-17.6 47-32.1 71.3-43.1 39.5 17.8 78.2 44.9 112.7 79.3 34.4 34.4 61.5 73.1 79.3 112.7-10.9 24.1-25.2 48-42.6 70.7 12.6 5.4 23 15.1 29.4 27.2 11.5-14.8 21.9-30.1 31-45.7.2.9.4 1.8.6 2.8 12 54.6 2.7 100.6-26.2 129.4z" fill="#1b8dd6"/><path d="m401.3 382.2c0 11-8.9 20-20 20-11 0-20-8.9-20-20 0-11 8.9-20 20-20 11.1.1 20 9 20 20zm-253.5-252.4c0 11-8.9 20-20 20-11 0-20-8.9-20-20 0-11 8.9-20 20-20s20 8.9 20 20z" fill="#20a6fc"/><path d="m320.6 152.7c-16.9-17.4-39.7-26.9-64.1-26.9-50.4 0-91.4 40.7-91.7 90.8v.5c.1 35.6 14.9 55.7 26.7 71.9 9.2 12.5 15.2 20.8 15.2 34.8v24.7c0 21.4 17.3 38.7 38.5 38.7h22.5c21.4 0 38.8-17.4 38.8-38.7v-24.7c0-14.2 6.1-23 14.6-35.2 11.2-16.1 25.2-36.2 25.3-71.6v-.5c-.1-24.1-9.3-46.8-25.8-63.8zm-74 194.6v-20h20v20zm41.7-81.5c-4.6 6.6-9.4 13.5-13.4 21.6h-37c-4.2-8.2-9.3-15.3-14.2-22-10.2-13.9-18.9-25.9-19-48.6.1-28.2 23.3-51.2 51.8-51.2 28 0 49.9 22.4 50 51.2-.1 23-8.5 35.1-18.2 49z" fill="#21e8de"/><g fill="#222"><path d="m733.8 307.9c0-7.7-2.7-13.8-8.2-18.1s-15.1-8.8-28.8-13.4c-13.8-4.6-25-9.1-33.7-13.4-28.4-14-42.6-33.1-42.6-57.5 0-12.1 3.5-22.9 10.6-32.2s17.1-16.5 30-21.7c13-5.2 27.5-7.8 43.7-7.8 15.8 0 29.9 2.8 42.4 8.4s22.2 13.6 29.1 24 10.4 22.3 10.4 35.6h-52.7c0-8.9-2.7-15.9-8.2-20.8s-12.9-7.4-22.2-7.4c-9.4 0-16.9 2.1-22.4 6.2-5.5 4.2-8.2 9.5-8.2 15.9 0 5.6 3 10.7 9 15.3s16.6 9.3 31.8 14.2 27.6 10.1 37.3 15.7c23.7 13.7 35.5 32.5 35.5 56.5 0 19.2-7.2 34.2-21.7 45.2-14.5 10.9-34.3 16.4-59.5 16.4-17.8 0-33.9-3.2-48.3-9.6s-25.2-15.1-32.5-26.2-10.9-23.9-10.9-38.3h53c0 11.7 3 20.4 9.1 26s15.9 8.4 29.6 8.4c8.7 0 15.6-1.9 20.7-5.6 5.2-3.7 7.7-8.9 7.7-15.8z"/><path d="m883.2 146.9 48.9 152.5 48.9-152.5h69.6v219.3h-53v-51.2l5.1-104.8-53 156h-34.9l-53.3-156.2 5.1 105v51.2h-52.9v-219.3z"/><path d="m1211.4 325.2h-72.4l-12.6 41h-56.5l80.4-219.3h49.7l81 219.3h-56.8zm-59.8-40.8h47.1l-23.6-76z"/><path d="m1378.4 288.6h-28.6v77.6h-52.9v-219.3h86.3c26 0 46.3 5.8 61 17.3s22 27.8 22 48.9c0 15.2-3.1 27.9-9.3 37.9s-15.8 18.2-29 24.4l45.8 88.5v2.3h-56.6zm-28.6-40.6h33.4c10 0 17.6-2.6 22.7-7.9s7.6-12.7 7.6-22.1c0-9.5-2.6-16.9-7.7-22.3s-12.6-8.1-22.6-8.1h-33.4z"/><path d="m1662.7 187.8h-65.8v178.4h-52.9v-178.4h-64.6v-40.8h183.3z"/><path d="m1930.1 292c-.7 15.3-4.8 28.7-12.3 40.4s-18.1 20.8-31.7 27.2-29.1 9.6-46.6 9.6c-28.8 0-51.5-9.4-68.1-28.2s-24.8-45.3-24.8-79.5v-10.8c0-21.5 3.7-40.3 11.2-56.4s18.2-28.6 32.3-37.3c14.1-8.8 30.3-13.2 48.8-13.2 26.6 0 48 7 64.2 21s25.3 33.3 27.6 57.9h-52.7c-.4-13.4-3.8-22.9-10.1-28.8-6.3-5.8-16-8.7-28.9-8.7-13.2 0-22.8 4.9-28.9 14.8-6.1 9.8-9.3 25.6-9.6 47.1v15.5c0 23.4 2.9 40.1 8.8 50.1s16 15.1 30.3 15.1c12.1 0 21.4-2.9 27.9-8.6 6.4-5.7 9.8-14.8 10.2-27.3h52.4z"/><path d="m2140.8 261.1c0 21.4-4 40.3-11.9 56.8s-19.2 29.1-33.8 38-31.2 13.3-49.9 13.3-35.2-4.3-49.7-12.9-25.7-20.9-33.8-36.8c-8.1-16-12.3-34.3-12.7-55v-12.3c0-21.5 3.9-40.4 11.8-56.8s19.2-29.1 33.9-38 31.4-13.4 50.2-13.4c18.6 0 35.1 4.4 49.7 13.3 14.6 8.8 25.9 21.4 34 37.7s12.2 35 12.3 56.1v10zm-53.8-9.2c0-21.8-3.6-38.3-10.9-49.6s-17.7-16.9-31.2-16.9c-26.5 0-40.5 19.9-42 59.6l-.2 16.1c0 21.5 3.6 38 10.7 49.5s17.7 17.3 31.8 17.3c13.4 0 23.6-5.7 30.9-17 7.2-11.3 10.9-27.7 11-48.9v-10.1z"/><path d="m2351.2 366.2h-52.6l-77.7-136.4v136.4h-52.9v-219.3h52.9l77.6 136.4v-136.4h52.7z"/><path d="m2552.4 187.8h-65.8v178.4h-52.9v-178.4h-64.6v-40.8h183.3z"/><path d="m2656.1 288.6h-28.6v77.6h-52.9v-219.3h86.3c26 0 46.3 5.8 61 17.3s22 27.8 22 48.9c0 15.2-3.1 27.9-9.3 37.9s-15.8 18.2-29 24.4l45.8 88.5v2.3h-56.6zm-28.6-40.6h33.4c10 0 17.6-2.6 22.7-7.9s7.6-12.7 7.6-22.1c0-9.5-2.6-16.9-7.7-22.3s-12.6-8.1-22.6-8.1h-33.4z"/><path d="m2961.5 261.1c0 21.4-4 40.3-11.9 56.8s-19.2 29.1-33.8 38-31.2 13.3-49.9 13.3-35.2-4.3-49.7-12.9-25.7-20.9-33.8-36.8c-8.1-16-12.3-34.3-12.7-55v-12.3c0-21.5 3.9-40.4 11.8-56.8s19.2-29.1 33.9-38 31.4-13.4 50.2-13.4c18.6 0 35.1 4.4 49.7 13.3 14.6 8.8 25.9 21.4 34 37.7s12.2 35 12.3 56.1v10zm-53.7-9.2c0-21.8-3.6-38.3-10.9-49.6s-17.7-16.9-31.2-16.9c-26.5 0-40.5 19.9-42 59.6l-.2 16.1c0 21.5 3.6 38 10.7 49.5s17.7 17.3 31.8 17.3c13.4 0 23.6-5.7 30.9-17 7.2-11.3 10.9-27.7 11-48.9v-10.1z"/><path d="m3041.6 325.5h92v40.7h-144.9v-219.3h52.9z"/><path d="m3345.8 307.9c0-7.7-2.7-13.8-8.2-18.1s-15.1-8.8-28.8-13.4c-13.8-4.6-25-9.1-33.7-13.4-28.4-14-42.6-33.1-42.6-57.5 0-12.1 3.5-22.9 10.6-32.2s17.1-16.5 30-21.7c13-5.2 27.5-7.8 43.7-7.8 15.8 0 29.9 2.8 42.4 8.4s22.2 13.6 29.1 24 10.4 22.3 10.4 35.6h-52.7c0-8.9-2.7-15.9-8.2-20.8s-12.9-7.4-22.2-7.4c-9.4 0-16.9 2.1-22.4 6.2-5.5 4.2-8.2 9.5-8.2 15.9 0 5.6 3 10.7 9 15.3s16.6 9.3 31.8 14.2 27.6 10.1 37.3 15.7c23.7 13.7 35.5 32.5 35.5 56.5 0 19.2-7.2 34.2-21.7 45.2-14.5 10.9-34.3 16.4-59.5 16.4-17.8 0-33.9-3.2-48.3-9.6s-25.2-15.1-32.5-26.2-10.9-23.9-10.9-38.3h53c0 11.7 3 20.4 9.1 26s15.9 8.4 29.6 8.4c8.7 0 15.6-1.9 20.7-5.6 5.2-3.7 7.7-8.9 7.7-15.8z"/><path d="m3506.1 242.1 40.4-95.2h57.1l-70.6 140.5v78.8h-53.6v-78.8l-70.5-140.5h56.8z"/><path d="m3730.1 307.9c0-7.7-2.7-13.8-8.2-18.1s-15.1-8.8-28.8-13.4c-13.8-4.6-25-9.1-33.7-13.4-28.4-14-42.6-33.1-42.6-57.5 0-12.1 3.5-22.9 10.6-32.2s17.1-16.5 30-21.7c13-5.2 27.5-7.8 43.7-7.8 15.8 0 29.9 2.8 42.4 8.4s22.2 13.6 29.1 24 10.4 22.3 10.4 35.6h-52.7c0-8.9-2.7-15.9-8.2-20.8s-12.9-7.4-22.2-7.4c-9.4 0-16.9 2.1-22.4 6.2-5.5 4.2-8.2 9.5-8.2 15.9 0 5.6 3 10.7 9 15.3s16.6 9.3 31.8 14.2 27.6 10.1 37.3 15.7c23.7 13.7 35.5 32.5 35.5 56.5 0 19.2-7.2 34.2-21.7 45.2-14.5 10.9-34.3 16.4-59.5 16.4-17.8 0-33.9-3.2-48.3-9.6s-25.2-15.1-32.5-26.2-10.9-23.9-10.9-38.3h53c0 11.7 3 20.4 9.1 26s15.9 8.4 29.6 8.4c8.7 0 15.6-1.9 20.7-5.6 5.2-3.7 7.7-8.9 7.7-15.8z"/><path d="m3982.2 187.8h-65.8v178.4h-52.9v-178.4h-64.5v-40.8h183.3v40.8z"/><path d="m4140.5 273.1h-83.1v52.4h98.2v40.7h-151v-219.3h151.3v40.8h-98.5v46.3h83.1z"/><path d="m4246.5 146.9 48.9 152.5 48.8-152.5h69.6v219.3h-53v-51.2l5.1-104.8-53 156h-34.9l-53.2-156.2 5.1 105v51.2h-52.9v-219.3z"/></g></svg>