<svg enable-background="new 0 0 3694.1 511" viewBox="0 0 3694.1 511" xmlns="http://www.w3.org/2000/svg"><path d="m490.8 256.5c6-15.4 10.8-31 14.2-46.4 7.2-32.6 8-63.3 2.3-91.1-6.1-29.9-19.3-55.1-39.2-75.1-20-19.9-45.2-33.1-75.1-39.2-27.8-5.7-58.5-4.9-91.1 2.3-15.4 3.4-31 8.2-46.4 14.2-15.4-6-30.9-10.8-46.4-14.2-32.6-7.2-63.3-8-91.1-2.3-29.9 6.1-55.1 19.3-75.1 39.2-19.9 20-33.1 45.2-39.2 75.1-5.7 27.8-4.9 58.5 2.3 91.1 3.4 15.4 8.2 30.9 14.2 46.4-6 15.4-10.8 31-14.2 46.4-7.2 32.6-8 63.3-2.3 91.1 6.1 29.9 19.3 55.1 39.2 75.1 19.9 19.9 45.2 33.1 75.1 39.2 12.3 2.5 25.1 3.7 38.3 3.7 16.9 0 34.5-2 52.8-6 15.4-3.4 31-8.2 46.4-14.2 15.4 6 30.9 10.8 46.4 14.2 18.3 4 35.9 6 52.8 6 13.3 0 26.1-1.2 38.3-3.7 29.9-6.1 55.1-19.3 75.1-39.2 19.9-19.9 33.1-45.2 39.2-75.1 5.7-27.8 4.9-58.5-2.3-91.1-3.4-15.5-8.2-31-14.2-46.4zm-180.3-210.5c15.6-3.4 30.4-5.1 44.4-5.1 35 0 64.3 10.6 85 31.3 28.8 28.8 38.1 74.8 26.1 129.3-.2.9-.4 1.9-.6 2.8-18.3-31.2-41.5-61.3-69-88.7-27.4-27.4-57.5-50.7-88.7-69 .9-.2 1.8-.4 2.8-.6zm-110 421c-15.6 3.4-30.4 5.1-44.4 5.1-35 0-64.3-10.6-85-31.3-28.8-28.8-38.1-74.8-26.1-129.3.2-.9.4-1.9.6-2.8 18.3 31.2 41.5 61.3 69 88.7 27.4 27.4 57.5 50.7 88.7 69-.9.2-1.8.4-2.8.6zm239.3-26.2c-28.8 28.9-74.8 38.2-129.3 26.2-.9-.2-1.8-.4-2.8-.6 15.6-9.2 31-19.5 45.8-31.1-12.1-6.4-21.8-16.8-27.2-29.4-22.8 17.4-46.7 31.8-70.8 42.7-39.5-17.8-78.2-44.9-112.7-79.3-34.4-34.4-61.5-73.1-79.3-112.7 11-24.4 25.5-48.5 43.1-71.5-12.8-5-23.5-14.3-30.3-26.1-11.4 14.7-21.7 29.9-30.7 45.4-.2-.9-.4-1.8-.6-2.8-12-54.6-2.7-100.6 26.2-129.4 20.6-20.6 50-31.3 85-31.3 14 0 28.8 1.7 44.4 5.1.9.2 1.8.4 2.8.6-15.4 9-30.6 19.3-45.2 30.6 11.8 6.8 21.1 17.5 26.1 30.3 22.9-17.6 47-32.1 71.3-43.1 39.5 17.8 78.2 44.9 112.7 79.3 34.4 34.4 61.5 73.1 79.3 112.7-10.9 24.1-25.2 48-42.6 70.7 12.6 5.4 23 15.1 29.4 27.2 11.5-14.8 21.9-30.1 31-45.7.2.9.4 1.8.6 2.8 12 54.6 2.7 100.6-26.2 129.4z" fill="#1b8dd6"/><path d="m401.3 382.2c0 11-8.9 20-20 20-11 0-20-8.9-20-20 0-11 8.9-20 20-20 11.1.1 20 9 20 20zm-253.5-252.4c0 11-8.9 20-20 20-11 0-20-8.9-20-20 0-11 8.9-20 20-20s20 8.9 20 20z" fill="#20a6fc"/><path d="m320.6 152.7c-16.9-17.4-39.7-26.9-64.1-26.9-50.4 0-91.4 40.7-91.7 90.8v.5c.1 35.6 14.9 55.7 26.7 71.9 9.2 12.5 15.2 20.8 15.2 34.8v24.7c0 21.4 17.3 38.7 38.5 38.7h22.5c21.4 0 38.8-17.4 38.8-38.7v-24.7c0-14.2 6.1-23 14.6-35.2 11.2-16.1 25.2-36.2 25.3-71.6v-.5c-.1-24.1-9.3-46.8-25.8-63.8zm-74 194.6v-20h20v20zm41.7-81.5c-4.6 6.6-9.4 13.5-13.4 21.6h-37c-4.2-8.2-9.3-15.3-14.2-22-10.2-13.9-18.9-25.9-19-48.6.1-28.2 23.3-51.2 51.8-51.2 28 0 49.9 22.4 50 51.2-.1 23-8.5 35.1-18.2 49z" fill="#21e8de"/><g fill="#222"><path d="m711.1 298.2c0-6.3-2.2-11.1-6.7-14.6-4.4-3.5-12.2-7.1-23.4-10.9-11.2-3.7-20.3-7.4-27.3-10.9-23-11.3-34.5-26.9-34.5-46.6 0-9.8 2.9-18.5 8.6-26.1 5.7-7.5 13.9-13.4 24.4-17.6s22.3-6.3 35.4-6.3c12.8 0 24.2 2.3 34.4 6.8 10.1 4.6 18 11 23.6 19.5s8.4 18 8.4 28.9h-42.7c0-7.2-2.2-12.9-6.7-16.8-4.4-4-10.4-6-18-6-7.7 0-13.7 1.7-18.1 5.1s-6.7 7.7-6.7 12.9c0 4.6 2.4 8.7 7.3 12.4s13.5 7.5 25.8 11.5c12.3 3.9 22.4 8.2 30.3 12.8 19.2 11.1 28.8 26.3 28.8 45.8 0 15.5-5.9 27.8-17.6 36.6-11.7 8.9-27.8 13.3-48.2 13.3-14.4 0-27.4-2.6-39.1-7.8s-20.5-12.2-26.4-21.2-8.8-19.3-8.8-31.1h43c0 9.5 2.5 16.5 7.4 21.1s12.9 6.8 24 6.8c7.1 0 12.7-1.5 16.8-4.6s6-7.5 6-13z"/><path d="m832.2 167.7 39.7 123.7 39.6-123.7h56.4v177.7h-43v-41.5l4.2-85-43 126.5h-28.3l-43.1-126.6 4.2 85.1v41.5h-42.8v-177.7z"/><path d="m1098.2 312.2h-58.7l-10.3 33.2h-45.8l65.2-177.7h40.3l65.7 177.7h-46zm-48.5-33.1h38.2l-19.2-61.6z"/><path d="m1233.6 282.6h-23.2v62.9h-42.8v-177.8h69.9c21.1 0 37.6 4.7 49.4 14 11.9 9.3 17.8 22.6 17.8 39.6 0 12.4-2.5 22.6-7.5 30.7s-12.8 14.7-23.5 19.8l37.1 71.8v1.8h-45.9zm-23.2-33h27.1c8.1 0 14.3-2.1 18.4-6.4s6.2-10.3 6.2-17.9c0-7.7-2.1-13.7-6.2-18-4.2-4.4-10.3-6.5-18.3-6.5h-27.1v48.8z"/><path d="m1464 200.8h-53.3v144.7h-42.8v-144.7h-52.4v-33.1h148.5z"/><path d="m1680.8 285.2c-.6 12.4-3.9 23.3-10 32.8s-14.7 16.8-25.7 22-23.6 7.8-37.8 7.8c-23.4 0-41.7-7.6-55.2-22.8-13.4-15.2-20.1-36.7-20.1-64.5v-8.8c0-17.4 3-32.7 9.1-45.7 6.1-13.1 14.8-23.2 26.2-30.3s24.6-10.7 39.6-10.7c21.6 0 38.9 5.7 52 17 13.1 11.4 20.5 27 22.3 46.9h-42.7c-.3-10.8-3.1-18.6-8.2-23.3s-12.9-7.1-23.4-7.1c-10.7 0-18.5 4-23.4 12-5 8-7.6 20.7-7.8 38.2v12.6c0 19 2.4 32.5 7.1 40.6 4.8 8.1 13 12.2 24.6 12.2 9.8 0 17.4-2.3 22.6-7 5.2-4.6 8-12 8.3-22.1h42.5z"/><path d="m1851.6 260.2c0 17.3-3.2 32.7-9.6 46s-15.6 23.6-27.4 30.8-25.3 10.8-40.5 10.8-28.6-3.5-40.3-10.4c-11.7-7-20.9-16.9-27.4-29.8-6.6-12.9-10-27.8-10.3-44.6v-10c0-17.4 3.2-32.8 9.6-46.1s15.5-23.6 27.5-30.8c11.9-7.2 25.5-10.9 40.7-10.9 15.1 0 28.5 3.6 40.3 10.7 11.8 7.2 21 17.4 27.5 30.6s9.9 28.4 9.9 45.5zm-43.6-7.4c0-17.7-3-31.1-8.8-40.2-5.9-9.2-14.3-13.7-25.3-13.7-21.5 0-32.8 16.1-34.1 48.3l-.1 13.1c0 17.4 2.9 30.8 8.7 40.2s14.4 14 25.8 14c10.8 0 19.2-4.6 25-13.8 5.9-9.2 8.8-22.4 8.9-39.7v-8.2z"/><path d="m2022.1 345.4h-42.6l-63-110.6v110.6h-42.8v-177.7h42.8l62.9 110.6v-110.6h42.7z"/><path d="m2185.2 200.8h-53.3v144.7h-42.9v-144.7h-52.4v-33.1h148.6z"/><path d="m2269.3 282.6h-23.2v62.9h-42.8v-177.8h69.9c21.1 0 37.6 4.7 49.4 14 11.9 9.3 17.8 22.6 17.8 39.6 0 12.4-2.5 22.6-7.5 30.7s-12.8 14.7-23.5 19.8l37.1 71.8v1.8h-45.9zm-23.2-33h27.1c8.1 0 14.3-2.1 18.4-6.4s6.2-10.3 6.2-17.9c0-7.7-2.1-13.7-6.2-18-4.2-4.4-10.3-6.5-18.3-6.5h-27.1v48.8z"/><path d="m2516.9 260.2c0 17.3-3.2 32.7-9.6 46s-15.6 23.6-27.4 30.8-25.3 10.8-40.5 10.8-28.6-3.5-40.3-10.4c-11.7-7-20.9-16.9-27.4-29.8-6.6-12.9-10-27.8-10.3-44.6v-10c0-17.4 3.2-32.8 9.6-46.1s15.5-23.6 27.5-30.8c11.9-7.2 25.5-10.9 40.7-10.9 15.1 0 28.5 3.6 40.3 10.7 11.8 7.2 21 17.4 27.5 30.6s9.9 28.4 9.9 45.5zm-43.6-7.4c0-17.7-3-31.1-8.8-40.2-5.9-9.2-14.3-13.7-25.3-13.7-21.5 0-32.8 16.1-34.1 48.3l-.1 13.1c0 17.4 2.9 30.8 8.7 40.2s14.4 14 25.8 14c10.8 0 19.2-4.6 25-13.8 5.9-9.2 8.8-22.4 8.9-39.7v-8.2z"/><path d="m2581.8 312.5h74.6v33h-117.4v-177.8h42.8z"/><path d="m2828.4 298.2c0-6.3-2.2-11.1-6.7-14.6-4.4-3.5-12.2-7.1-23.4-10.9-11.2-3.7-20.3-7.4-27.3-10.9-23-11.3-34.5-26.9-34.5-46.6 0-9.8 2.9-18.5 8.6-26.1 5.7-7.5 13.9-13.4 24.4-17.6s22.3-6.3 35.4-6.3c12.8 0 24.2 2.3 34.4 6.8 10.1 4.6 18 11 23.6 19.5s8.4 18 8.4 28.9h-42.7c0-7.2-2.2-12.9-6.7-16.8-4.4-4-10.4-6-18-6-7.7 0-13.7 1.7-18.1 5.1s-6.7 7.7-6.7 12.9c0 4.6 2.4 8.7 7.3 12.4s13.5 7.5 25.8 11.5c12.3 3.9 22.4 8.2 30.3 12.8 19.2 11.1 28.8 26.3 28.8 45.8 0 15.5-5.9 27.8-17.6 36.6-11.7 8.9-27.8 13.3-48.2 13.3-14.4 0-27.4-2.6-39.1-7.8s-20.5-12.2-26.4-21.2-8.8-19.3-8.8-31.1h43c0 9.5 2.5 16.5 7.4 21.1s12.9 6.8 24 6.8c7.1 0 12.7-1.5 16.8-4.6s6-7.5 6-13z"/><path d="m2958.3 244.8 32.7-77.1h46.3l-57.3 113.9v63.8h-43.5v-63.8l-57.1-113.9h46z"/><path d="m3139.9 298.2c0-6.3-2.2-11.1-6.7-14.6-4.4-3.5-12.2-7.1-23.4-10.9-11.2-3.7-20.3-7.4-27.3-10.9-23-11.3-34.5-26.9-34.5-46.6 0-9.8 2.9-18.5 8.6-26.1 5.7-7.5 13.9-13.4 24.4-17.6s22.3-6.3 35.4-6.3c12.8 0 24.2 2.3 34.4 6.8 10.1 4.6 18 11 23.6 19.5s8.4 18 8.4 28.9h-42.7c0-7.2-2.2-12.9-6.7-16.8-4.4-4-10.4-6-18-6-7.7 0-13.7 1.7-18.1 5.1s-6.7 7.7-6.7 12.9c0 4.6 2.4 8.7 7.3 12.4s13.5 7.5 25.8 11.5c12.3 3.9 22.4 8.2 30.3 12.8 19.2 11.1 28.8 26.3 28.8 45.8 0 15.5-5.9 27.8-17.6 36.6-11.7 8.9-27.8 13.3-48.2 13.3-14.4 0-27.4-2.6-39.1-7.8s-20.5-12.2-26.4-21.2-8.8-19.3-8.8-31.1h43c0 9.5 2.5 16.5 7.4 21.1s12.9 6.8 24 6.8c7.1 0 12.7-1.5 16.8-4.6s6-7.5 6-13z"/><path d="m3344.3 200.8h-53.3v144.7h-42.8v-144.7h-52.4v-33.1h148.6v33.1z"/><path d="m3472.6 270h-67.4v42.5h79.6v33h-122.4v-177.8h122.6v33.1h-79.8v37.5h67.4z"/><path d="m3558.5 167.7 39.7 123.7 39.6-123.7h56.4v177.7h-43v-41.5l4.2-85-43 126.5h-28.4l-43.1-126.6 4.2 85.1v41.5h-42.8v-177.7z"/></g></svg>