<?xml version="1.0" encoding="utf-8"?>
<!-- Generator: Adobe Illustrator 23.0.3, SVG Export Plug-In . SVG Version: 6.00 Build 0)  -->
<svg version="1.1" id="Layer_1" xmlns="http://www.w3.org/2000/svg" xmlns:xlink="http://www.w3.org/1999/xlink" x="0px" y="0px"
	 viewBox="0 0 512 512" style="enable-background:new 0 0 512 512;" xml:space="preserve">
<style type="text/css">
	.st0{clip-path:url(#SVGID_2_);fill:#FFFFFF;}
	.st1{clip-path:url(#SVGID_2_);fill:url(#top__x28_gradiant_x29__1_);}
	.st2{clip-path:url(#SVGID_2_);fill:url(#bottom__x28_gradiant_x29__1_);}
	.st3{clip-path:url(#SVGID_4_);fill:#FFFFFF;}
</style>
<g id="Naran-logo__x28_white_x29__3_">
	<g id="bottom_23_">
		<defs>
			<path id="SVGID_1_" d="M222.8,404.9c-2.3,0-4.6-0.5-6.7-1.4c-6.2-2.8-9.2-9.5-7.5-16.9l48.5-218.6l-84.4,69h32.6l-8.1,36.5h-76.6
				c-7.4,0-13-4.4-14.4-11.3c-1.3-6.8,2-14.7,8.4-19.9l160.4-131.3c6.4-5.2,14.6-6.8,20.8-4c6.2,2.8,9.2,9.5,7.5,16.9l-48.5,218.6
				l84.4-69h-32.6l8.1-36.5h76.6c7.4,0,13,4.4,14.4,11.3c1.3,6.8-2,14.7-8.4,19.9L236.9,399.6C232.7,403,227.6,404.9,222.8,404.9z"
				/>
		</defs>
		<clipPath id="SVGID_2_">
			<use xlink:href="#SVGID_1_"  style="overflow:visible;"/>
		</clipPath>
		<polygon id="left__x28_base_x29__23_" class="st0" points="206,54.7 55,54.7 55,456 206,456 206,237.1 257.1,168.1 311.8,168.1 
			357,54.7 		"/>
		
			<linearGradient id="top__x28_gradiant_x29__1_" gradientUnits="userSpaceOnUse" x1="258.501" y1="167.3297" x2="258.501" y2="255.3452">
			<stop  offset="0" style="stop-color:#FFFFFF"/>
			<stop  offset="1" style="stop-color:#FFFFFF;stop-opacity:0"/>
		</linearGradient>
		<polygon id="top__x28_gradiant_x29__23_" class="st1" points="257.1,168.1 311.8,167.3 296.5,255.3 205.2,255.3 		"/>
		<polygon id="right__x28_base_x29__23_" class="st0" points="305.6,456 456.6,456 456.6,54.7 305.6,54.7 305.6,273.6 254.9,342.6 
			199.7,342.6 154.6,456 		"/>
		
			<linearGradient id="bottom__x28_gradiant_x29__1_" gradientUnits="userSpaceOnUse" x1="-7653.8022" y1="246.6393" x2="-7653.8022" y2="334.6548" gradientTransform="matrix(-1 0 0 -1 -7400.728 590)">
			<stop  offset="0" style="stop-color:#FFFFFF"/>
			<stop  offset="1" style="stop-color:#FFFFFF;stop-opacity:0"/>
		</linearGradient>
		<polygon id="bottom__x28_gradiant_x29__23_" class="st2" points="254.9,342.6 199.7,343.4 215.1,255.3 306.4,255.3 		"/>
	</g>
	<g id="middle_23_">
		<defs>
			<polygon id="SVGID_3_" points="310.3,273.6 193.6,273.6 201.7,237.1 318.4,237.1 			"/>
		</defs>
		<clipPath id="SVGID_4_">
			<use xlink:href="#SVGID_3_"  style="overflow:visible;"/>
		</clipPath>
		<rect x="55.4" y="54.7" class="st3" width="401.2" height="401.2"/>
	</g>
</g>
</svg>
