<?xml version="1.0" encoding="utf-8"?>
<!-- Generator: Adobe Illustrator 23.0.3, SVG Export Plug-In . SVG Version: 6.00 Build 0)  -->
<svg version="1.1" id="Layer_1" xmlns="http://www.w3.org/2000/svg" xmlns:xlink="http://www.w3.org/1999/xlink" x="0px" y="0px"
	 viewBox="0 0 512 512" style="enable-background:new 0 0 512 512;" xml:space="preserve">
<style type="text/css">
	.st0{fill:#FFFFFF;}
</style>
<g>
	<g>
		<g>
			<g>
				<path class="st0" d="M51.6,320.2c-9.7-4.6-17.7-8.2-17.7-15.6c0-5.6,4.6-9.9,13.6-9.9c3.3,0,6,0.4,8.8,0.9
					c1.4,0.3,3.1,0.5,4.4,0.5c7.8,0,12.3-4.6,15.2-13.6l1.3-3.6c-1.3-0.5-14.1-6.1-30.7-6.1c-26.6,0-40.6,17-40.6,34.7
					c0,9,2.8,15.4,7.2,20.5c5.6,6.5,13.7,10.9,21.1,14.5c11,5.4,20.9,9.3,20.9,17.3c0,7-7.3,11.1-17,11.1c-13.3,0-25.1-7.7-26.5-8.6
					L0.5,383c1.9,1.2,16.1,10.1,39.4,10.1c24.8,0,43.5-14.2,43.5-36.1C83.1,335.1,65.7,327,51.6,320.2z"/>
				<path class="st0" d="M148.7,330.3l45-55.2h-32l-35.9,47.6h-0.5v-47.6H98.9v116.9h1.5c11.4,0,25-5.3,25-24.3v-26.9h0.5l36.6,49.8
					h33.7L148.7,330.3z"/>
			</g>
			<g>
				<path class="st0" d="M195.2,150c-9.3,1.8-23.1,10.2-23.1,25.1c0,13.6,11.1,21.8,11.1,39.6c0,13.3-7.3,22.4-15.2,27.4
					c3.2-0.3,6.8-0.5,10.6-0.5c8.2,0,13.1,0.8,13.3,0.8l41.7-51.2C222.1,173.8,208.5,160.4,195.2,150z"/>
				<path class="st0" d="M230.1,288.3c5.3-8.2,5.9-21.3,6.4-34.4c0.5-12.4,3.1-21.6,19.6-21.8c3.7,0,7.2,0.5,13.4,0.5
					c24.3-0.1,40.1-8.5,49.9-14c-20.1-12.8-49.6-26-86.1-27.4c-2.4,6.7-20.9,58.1-22.3,62.2c0.3,0.3,3.5,3.8,7.6,10.9
					C224.9,274.1,228.1,282.3,230.1,288.3z"/>
			</g>
		</g>
		<g>
			<path class="st0" d="M142,246.3c-2,0-3.2-1.4-3.5-3.8c-0.3-2.4-10.8-98-12.3-112.3c-0.3-2.2-0.8-6-0.8-7.3c0-2.2,1.4-3.3,3.2-3.5
				c5,0,31.9,6.3,60.4,26.4c-8.2,2.3-23.2,10.9-23.1,28.7c0,15.8,11.3,24.3,11.4,40.1C177.6,240.2,148.2,246.3,142,246.3z"/>
			<path class="st0" d="M232.6,295.1c0.5,1.2,0.9,2.2,1.3,2.9c0.6,1.2,1.5,1.7,2.6,1.7c0.6,0,1.5-0.3,2.4-0.6
				c2.2-1,89.4-41.6,102.5-47.6c1.9-0.9,5.5-2.6,6.7-3.2c1.3-0.8,1.8-1.8,1.8-2.8c0-0.6-0.1-1.2-0.5-1.7
				c-1.7-2.7-10.1-11.7-24.2-21.4c-11.1,6.1-28.7,15.8-54.7,15.8c-6.4,0-7.8-0.4-12.2-0.4c-12.7,0-15.9,5.5-16.4,16.6
				c-0.1,2-0.1,5-0.3,8.1C241.4,272.2,240.2,286,232.6,295.1z"/>
		</g>
	</g>
	<g>
		<path class="st0" d="M301.3,322v68.5h-15.1v-81.1h57c0,0,0,2.3,0,2.7c0,5.9-4.5,9.7-10.1,9.7h-31.8V322z"/>
		<rect x="286.2" y="378.2" class="st0" width="56.9" height="12.4"/>
		<rect x="299.8" y="342.6" class="st0" width="40.7" height="12.4"/>
		<g>
			<g>
				<g>
					<g>
						<path class="st0" d="M398,376.7c-3.2-4.7-7-10.4-10.6-15.9c-1.2-1.8-2.6-3.7-3.8-5.6c-4.4,3.2-8.2,7.2-8.2,12.8
							c0,6.1,4.1,11.3,12.8,11.3C391.6,379.3,394.9,378.2,398,376.7z M416.5,378.9c2.8,3.8,5.1,7.2,6.8,9.5
							c-0.5,0.4-1.2,0.9-1.7,1.3c-1.3,1-4,2.4-7.4,2.4c-4.7,0-7.2-2.2-8.5-4.1c-0.1-0.3-0.3-0.4-0.5-0.8c-5.4,2.9-11.8,4.9-19.1,4.9
							c-15.9,0-25.4-10.6-25.4-23.1c0-11.8,8.1-18.4,16.1-23.9c-3.8-6.4-6.8-12.7-6.8-18.1c0-10.2,7-18.6,20.5-18.6
							c13.8,0,20.1,8.1,20.1,15.8c0,9.3-4.6,14.7-16.4,23.3c1.7,2.4,3.5,4.7,5,6.9c3.3,4.7,6.5,9.3,9.7,13.8c4.4-4.6,7.4-9.2,8.6-11
							l10.5,6.1C426.7,365.9,422.9,372.6,416.5,378.9z M388,337.8c6.3-4.4,9.6-7.7,9.6-11.7c0-2.9-1.9-5.9-6.9-5.9
							c-3.7,0-6.7,2.7-6.7,6.9C384.1,330,385.7,333.7,388,337.8z"/>
					</g>
				</g>
				<path class="st0" d="M503.4,373.4c-1.3,0.6-8.7,5.3-18.7,5.3c-18.4,0-26.9-14.7-26.9-28.4c0-15.5,9.9-28.4,26.9-28.4
					c4.7,0,8.3,1.4,9.6,1.8c2,0.6,4.4,1.9,7.8,1.9c2.8,0,5.1-1.3,7.6-4.5c1-1.4,2.8-4.1,2.8-4.1c-0.9-0.6-11.7-8.6-29.2-8.6
					c-25.5,0-42,16.9-42,41.7c0,25.1,17,41.7,42,41.7c15.6,0,25.1-6.1,26.9-7L503.4,373.4z"/>
			</g>
		</g>
	</g>
</g>
</svg>
